M48
METRIC,TZ
VER,1
FMAT,2
DETECT,ON
ATC,ON
T1C0.6000
T2C0.9949
T3C0.8890
T4C1.1006
T5C3.0000
%
T1
X386080Y-243840
Y-228600
X419100Y-233680
X434340Y-241300
X518160Y-53340
X335280Y-33020
X386080Y-30480
X332740Y43180
X351555Y166605
X271780Y182880
X342900Y185420
X374415Y222485
X399815Y308845
X349015Y336785
X404895Y354565
X346475Y374885
X336315Y397745
X436880Y411480
X369335Y420605
X394735Y476485
X474980Y462280
X350520Y505460
X420135Y499345
X298215Y573005
X364255Y570465
X317500Y586740
X361715Y631425
X389655Y710165
X441960Y243840
X411480Y149860
Y185420
X419100Y795020
X480060
X238760Y-264160
X563880Y-144780
X452120Y982980
X231140Y1021080
X452120
Y1008380
X271780Y1033780
X452120Y1036320
X411480Y-30480
X358140Y-228600
X447040Y-223520
X541020Y-172720
X378460Y-104140
X391160
X403860
X431800Y822960
X426720Y-86360
X434340Y-58420
X343935Y362185
X310000Y80000
X266700Y279400
X347980Y246380
X266700Y421640
X317500Y246380
X350520Y220980
Y200660
X264160Y487680
X322580Y632460
X353060Y756920
X276860Y723900
X434340Y703580
T2
X553720Y406400
Y721360
Y1092200
Y492760
T3
X553720Y431800
Y670560
Y695960
Y645160
Y1066800
Y1041400
Y990600
Y1016000
Y965200
Y518160
T4
X203200Y711200
X152400Y762000
Y660400
X147320Y528320
X198120Y477520
Y579120
X147320Y340360
X198120Y289560
Y391160
X147320Y157480
X198120Y106680
Y208280
T5
X165100Y1079500
X563880Y581660
Y127000
X175260Y-274320
M30
