G04 Generated by Ultiboard 14.1 *
%FSLAX34Y34*%
%MOMM*%

%ADD10C,0.0001*%
%ADD11C,0.6000*%
%ADD12C,0.9949*%
%ADD13C,0.8890*%
%ADD14C,1.1006*%
%ADD15C,3.0000*%


G04 ColorRGB 000000 for the following layer *
%LNDrill-Copper Top-Copper Bottom*%
%LPD*%
G54D11*
X386080Y-243840D03*
X386080Y-228600D03*
X419100Y-233680D03*
X434340Y-241300D03*
X518160Y-53340D03*
X335280Y-33020D03*
X386080Y-30480D03*
X332740Y43180D03*
X351555Y166605D03*
X271780Y182880D03*
X342900Y185420D03*
X374415Y222485D03*
X399815Y308845D03*
X349015Y336785D03*
X404895Y354565D03*
X346475Y374885D03*
X336315Y397745D03*
X436880Y411480D03*
X369335Y420605D03*
X394735Y476485D03*
X474980Y462280D03*
X350520Y505460D03*
X420135Y499345D03*
X298215Y573005D03*
X364255Y570465D03*
X317500Y586740D03*
X361715Y631425D03*
X389655Y710165D03*
X441960Y243840D03*
X411480Y149860D03*
X411480Y185420D03*
X419100Y795020D03*
X480060Y795020D03*
X238760Y-264160D03*
X563880Y-144780D03*
X452120Y982980D03*
X231140Y1021080D03*
X452120Y1021080D03*
X452120Y1008380D03*
X271780Y1033780D03*
X452120Y1036320D03*
X411480Y-30480D03*
X358140Y-228600D03*
X447040Y-223520D03*
X541020Y-172720D03*
X378460Y-104140D03*
X391160Y-104140D03*
X403860Y-104140D03*
X431800Y822960D03*
X426720Y-86360D03*
X434340Y-58420D03*
X343935Y362185D03*
X310000Y80000D03*
X266700Y279400D03*
X347980Y246380D03*
X266700Y421640D03*
X317500Y246380D03*
X350520Y220980D03*
X350520Y200660D03*
X264160Y487680D03*
X322580Y632460D03*
X353060Y756920D03*
X276860Y723900D03*
X434340Y703580D03*
G54D12*
X553720Y406400D03*
X553720Y721360D03*
X553720Y1092200D03*
X553720Y492760D03*
G54D13*
X553720Y431800D03*
X553720Y670560D03*
X553720Y695960D03*
X553720Y645160D03*
X553720Y1066800D03*
X553720Y1041400D03*
X553720Y990600D03*
X553720Y1016000D03*
X553720Y965200D03*
X553720Y518160D03*
G54D14*
X203200Y711200D03*
X152400Y762000D03*
X152400Y660400D03*
X147320Y528320D03*
X198120Y477520D03*
X198120Y579120D03*
X147320Y340360D03*
X198120Y289560D03*
X198120Y391160D03*
X147320Y157480D03*
X198120Y106680D03*
X198120Y208280D03*
G54D15*
X165100Y1079500D03*
X563880Y581660D03*
X563880Y127000D03*
X175260Y-274320D03*

M02*
