G04 Generated by Ultiboard 14.1 *
%FSLAX34Y34*%
%MOMM*%

%ADD10C,0.0001*%
%ADD11C,0.0010*%
%ADD12C,0.2540*%
%ADD13C,0.1520*%
%ADD14C,0.0286*%
%ADD15C,0.1270*%
%ADD16R,1.0500X1.7500*%
%ADD17R,0.8000X1.7000*%
%ADD18R,2.3000X1.9000*%
%ADD19R,1.8000X1.9000*%
%ADD20R,0.4000X1.4000*%
%ADD21R,1.7500X1.0500*%
%ADD22R,1.1500X1.8000*%
%ADD23R,0.3600X0.6200*%
%ADD24C,1.0000*%
%ADD25R,3.1500X2.2000*%
%ADD26R,0.3000X0.9500*%
%ADD27R,0.9500X0.3000*%
%ADD28R,3.3500X3.3500*%
%ADD29R,1.0000X0.6000*%
%ADD30R,1.5000X1.5000*%
%ADD31R,1.8000X1.1500*%
%ADD32R,0.9500X2.1500*%
%ADD33R,3.2500X2.1500*%
%ADD34R,0.5291X0.5291*%
%ADD35C,0.9949*%
%ADD36C,1.6088*%
%ADD37C,2.1168*%
%ADD38R,1.0000X2.0000*%
%ADD39R,2.0000X1.0000*%


G04 ColorRGB 00FF00 for the following layer *
%LNCopper Top*%
%LPD*%
G54D10*
G36*
X129557Y1120123D02*
X129557Y1120123D01*
X129557Y-307323D01*
X617203Y-307323D01*
X617203Y1120123D01*
X129557Y1120123D01*
D02*
G37*
%LPC*%
G36*
X419685Y1053321D02*
G75*
D01*
G02X421460Y1054037I1775J-1841*
G01*
X421460Y1054037D01*
X441460Y1054037D01*
G74*
D01*
G02X444017Y1051480I0J2557*
G01*
X444017Y1051480D01*
X444017Y1049801D01*
X521120Y1049801D01*
X524999Y1053680D01*
X524999Y1082030D01*
G75*
D01*
G02X525972Y1084388I3321J10*
G01*
X525972Y1084388D01*
X536132Y1094548D01*
G74*
D01*
G02X537653Y1095416I2348J2348*
G01*
G75*
D01*
G02X538480Y1095521I827J-3216*
G01*
X538480Y1095521D01*
X543805Y1095521D01*
G75*
D01*
G02X551075Y1102146I7270J-676*
G01*
X551075Y1102146D01*
X556365Y1102146D01*
G74*
D01*
G02X563635Y1095521I0J7301*
G01*
X563635Y1095521D01*
X563880Y1095521D01*
G74*
D01*
G02X566233Y1094543I0J3321*
G01*
X566233Y1094543D01*
X575113Y1085663D01*
G74*
D01*
G02X576091Y1083310I2343J2353*
G01*
X576091Y1083310D01*
X576091Y946150D01*
G75*
D01*
G02X575113Y943797I-3321J0*
G01*
X575113Y943797D01*
X557041Y925724D01*
X557041Y731275D01*
G74*
D01*
G02X563666Y724005I676J7270*
G01*
X563666Y724005D01*
X563666Y718715D01*
G75*
D01*
G02X556365Y711414I-7301J0*
G01*
X556365Y711414D01*
X551075Y711414D01*
G75*
D01*
G02X543805Y718039I0J7301*
G01*
X543805Y718039D01*
X453496Y718039D01*
X441479Y706022D01*
G75*
D01*
G02X437661Y696805I-7139J-2442*
G01*
X437661Y696805D01*
X437661Y640080D01*
G75*
D01*
G02X436683Y637727I-3321J0*
G01*
X436683Y637727D01*
X414801Y615844D01*
X414801Y600816D01*
X484943Y530673D01*
G74*
D01*
G02X485921Y528320I2343J2353*
G01*
X485921Y528320D01*
X485921Y526561D01*
X495294Y526561D01*
G75*
D01*
G02X496409Y526370I6J-3321*
G01*
G74*
D01*
G02X497653Y525583I1109J3130*
G01*
X497653Y525583D01*
X523043Y500193D01*
G74*
D01*
G02X524021Y497840I2343J2353*
G01*
X524021Y497840D01*
X524021Y493158D01*
X525972Y495108D01*
G75*
D01*
G02X528326Y496081I2348J-2348*
G01*
X528326Y496081D01*
X543805Y496081D01*
G75*
D01*
G02X551075Y502706I7270J-676*
G01*
X551075Y502706D01*
X556365Y502706D01*
G74*
D01*
G02X563666Y495405I0J7301*
G01*
X563666Y495405D01*
X563666Y490115D01*
G75*
D01*
G02X556365Y482814I-7301J0*
G01*
X556365Y482814D01*
X551075Y482814D01*
G75*
D01*
G02X543805Y489439I0J7301*
G01*
X543805Y489439D01*
X529696Y489439D01*
X523053Y482797D01*
G74*
D01*
G02X523043Y482787I2353J2343*
G01*
X523043Y482787D01*
X523001Y482744D01*
X523001Y421376D01*
X528556Y415821D01*
X547620Y415821D01*
G74*
D01*
G02X548222Y415766I0J3321*
G01*
G75*
D01*
G02X551075Y416346I2853J-6721*
G01*
X551075Y416346D01*
X556365Y416346D01*
G74*
D01*
G02X563666Y409045I0J7301*
G01*
X563666Y409045D01*
X563666Y403755D01*
G75*
D01*
G02X556365Y396454I-7301J0*
G01*
X556365Y396454D01*
X551075Y396454D01*
G75*
D01*
G02X543774Y403755I0J7301*
G01*
X543774Y403755D01*
X543774Y409045D01*
G74*
D01*
G02X543775Y409179I7301J0*
G01*
X543775Y409179D01*
X527187Y409179D01*
G75*
D01*
G02X524832Y410152I-7J3321*
G01*
X524832Y410152D01*
X517332Y417652D01*
G74*
D01*
G02X516884Y418208I2348J2348*
G01*
X516884Y418208D01*
X510353Y411677D01*
G74*
D01*
G02X508000Y410699I2353J2343*
G01*
X508000Y410699D01*
X501161Y410699D01*
X501161Y393700D01*
G75*
D01*
G02X500183Y391347I-3321J0*
G01*
X500183Y391347D01*
X473221Y364384D01*
X473221Y299720D01*
G75*
D01*
G02X472243Y297367I-3321J0*
G01*
X472243Y297367D01*
X458087Y283210D01*
X467163Y274133D01*
G74*
D01*
G02X468141Y271780I2343J2353*
G01*
X468141Y271780D01*
X468141Y228600D01*
G75*
D01*
G02X467163Y226247I-3321J0*
G01*
X467163Y226247D01*
X447821Y206904D01*
X447821Y51581D01*
X497836Y51581D01*
G75*
D01*
G02X498539Y51507I4J-3321*
G01*
G74*
D01*
G02X500193Y50603I699J3247*
G01*
X500193Y50603D01*
X512883Y37913D01*
G74*
D01*
G02X513861Y35560I2343J2353*
G01*
X513861Y35560D01*
X513861Y-44344D01*
X515718Y-46201D01*
G75*
D01*
G02X511021Y-50898I2442J-7139*
G01*
X511021Y-50898D01*
X509293Y-49170D01*
X509293Y-59372D01*
X521088Y-71167D01*
X592500Y-71167D01*
G74*
D01*
G02X595216Y-72295I0J3833*
G01*
X595216Y-72295D01*
X595359Y-72437D01*
X595359Y-72437D01*
X602705Y-79784D01*
G74*
D01*
G02X603833Y-82500I2705J2716*
G01*
X603833Y-82500D01*
X603833Y-104312D01*
X604443Y-104921D01*
X607271Y-107750D01*
X610860Y-107750D01*
G74*
D01*
G02X611870Y-108760I0J1010*
G01*
X611870Y-108760D01*
X611870Y-114760D01*
G75*
D01*
G02X610860Y-115770I-1010J0*
G01*
X610860Y-115770D01*
X609693Y-115770D01*
X609693Y-143440D01*
G75*
D01*
G02X608565Y-146156I-3833J0*
G01*
X608565Y-146156D01*
X604487Y-150234D01*
X604443Y-150279D01*
X592873Y-161848D01*
X592873Y-239160D01*
X594290Y-239160D01*
G74*
D01*
G02X595300Y-240170I0J1010*
G01*
X595300Y-240170D01*
X595300Y-257670D01*
G75*
D01*
G02X594290Y-258680I-1010J0*
G01*
X594290Y-258680D01*
X592873Y-258680D01*
X592873Y-274720D01*
X594290Y-274720D01*
G74*
D01*
G02X595300Y-275730I0J1010*
G01*
X595300Y-275730D01*
X595300Y-293230D01*
G75*
D01*
G02X594290Y-294240I-1010J0*
G01*
X594290Y-294240D01*
X583790Y-294240D01*
G75*
D01*
G02X582780Y-293230I0J1010*
G01*
X582780Y-293230D01*
X582780Y-275730D01*
G75*
D01*
G02X583790Y-274720I1010J0*
G01*
X583790Y-274720D01*
X585207Y-274720D01*
X585207Y-258680D01*
X583790Y-258680D01*
G75*
D01*
G02X582780Y-257670I0J1010*
G01*
X582780Y-257670D01*
X582780Y-240170D01*
G75*
D01*
G02X583790Y-239160I1010J0*
G01*
X583790Y-239160D01*
X585207Y-239160D01*
X585207Y-160267D01*
G75*
D01*
G02X586329Y-157549I3833J7*
G01*
X586329Y-157549D01*
X602027Y-141852D01*
X602027Y-115770D01*
X600860Y-115770D01*
G75*
D01*
G02X599850Y-114760I0J1010*
G01*
X599850Y-114760D01*
X599850Y-111171D01*
X597289Y-108611D01*
G75*
D01*
G02X596167Y-105893I2711J2711*
G01*
X596167Y-105893D01*
X596167Y-84088D01*
X590912Y-78833D01*
X519500Y-78833D01*
G75*
D01*
G02X518094Y-78566I0J3833*
G01*
G74*
D01*
G02X516789Y-77711I1406J3566*
G01*
X516789Y-77711D01*
X511516Y-72437D01*
X511516Y-72437D01*
X502749Y-63671D01*
G75*
D01*
G02X501627Y-60947I2711J2711*
G01*
X501627Y-60947D01*
X501627Y31432D01*
X493712Y39347D01*
X439420Y39347D01*
G75*
D01*
G02X435587Y43180I0J3833*
G01*
X435587Y43180D01*
X435587Y210815D01*
G75*
D01*
G02X436709Y213531I3833J5*
G01*
X436709Y213531D01*
X455907Y232728D01*
X455907Y267652D01*
X446869Y276689D01*
G75*
D01*
G02X445747Y279410I2711J2711*
G01*
X445747Y279410D01*
X445747Y287014D01*
G75*
D01*
G02X446869Y289731I3833J6*
G01*
X446869Y289731D01*
X460987Y303848D01*
X460987Y368292D01*
G75*
D01*
G02X462109Y371011I3833J8*
G01*
X462109Y371011D01*
X488927Y397828D01*
X488927Y419100D01*
G75*
D01*
G02X492760Y422933I3833J0*
G01*
X492760Y422933D01*
X503872Y422933D01*
X505687Y424748D01*
X505687Y490088D01*
X491608Y504167D01*
X469900Y504167D01*
G75*
D01*
G02X466067Y508000I0J3833*
G01*
X466067Y508000D01*
X466067Y521652D01*
X396069Y591649D01*
G75*
D01*
G02X394947Y594370I2711J2711*
G01*
X394947Y594370D01*
X394947Y619755D01*
G75*
D01*
G02X396069Y622471I3833J5*
G01*
X396069Y622471D01*
X415267Y641668D01*
X415267Y732472D01*
X388449Y759289D01*
G75*
D01*
G02X387327Y762011I2711J2711*
G01*
X387327Y762011D01*
X387327Y815332D01*
G75*
D01*
G02X388449Y818051I3833J8*
G01*
X388449Y818051D01*
X390989Y820591D01*
G75*
D01*
G02X393707Y821713I2711J-2711*
G01*
X393707Y821713D01*
X404812Y821713D01*
X420347Y837248D01*
X420347Y868674D01*
G75*
D01*
G02X421469Y871391I3833J6*
G01*
X421469Y871391D01*
X423901Y873823D01*
X421460Y873823D01*
G75*
D01*
G02X418903Y876380I0J2557*
G01*
X418903Y876380D01*
X418903Y886380D01*
G74*
D01*
G02X419288Y887730I2557J0*
G01*
G75*
D01*
G02X418903Y889080I2172J1350*
G01*
X418903Y889080D01*
X418903Y899080D01*
G74*
D01*
G02X419288Y900430I2557J0*
G01*
G75*
D01*
G02X418903Y901780I2172J1350*
G01*
X418903Y901780D01*
X418903Y911780D01*
G74*
D01*
G02X419288Y913130I2557J0*
G01*
G75*
D01*
G02X418903Y914480I2172J1350*
G01*
X418903Y914480D01*
X418903Y924480D01*
G74*
D01*
G02X419288Y925830I2557J0*
G01*
G75*
D01*
G02X418903Y927180I2172J1350*
G01*
X418903Y927180D01*
X418903Y937180D01*
G74*
D01*
G02X419288Y938530I2557J0*
G01*
G75*
D01*
G02X418903Y939880I2172J1350*
G01*
X418903Y939880D01*
X418903Y949880D01*
G74*
D01*
G02X419288Y951230I2557J0*
G01*
G75*
D01*
G02X418903Y952580I2172J1350*
G01*
X418903Y952580D01*
X418903Y962580D01*
G74*
D01*
G02X419288Y963930I2557J0*
G01*
G75*
D01*
G02X418903Y965280I2172J1350*
G01*
X418903Y965280D01*
X418903Y975280D01*
G74*
D01*
G02X419288Y976630I2557J0*
G01*
G75*
D01*
G02X418903Y977980I2172J1350*
G01*
X418903Y977980D01*
X418903Y987980D01*
G74*
D01*
G02X419288Y989330I2557J0*
G01*
G75*
D01*
G02X418903Y990680I2172J1350*
G01*
X418903Y990680D01*
X418903Y994897D01*
X416884Y994897D01*
X414803Y992816D01*
X414803Y874084D01*
X419651Y869236D01*
G74*
D01*
G02X419883Y868680I551J556*
G01*
X419883Y868680D01*
X419883Y838200D01*
G75*
D01*
G02X419651Y837644I-783J0*
G01*
X419651Y837644D01*
X404416Y822409D01*
G74*
D01*
G02X403860Y822177I556J551*
G01*
X403860Y822177D01*
X391484Y822177D01*
X386863Y817556D01*
X386863Y759784D01*
X414571Y732076D01*
G74*
D01*
G02X414803Y731520I551J556*
G01*
X414803Y731520D01*
X414803Y642620D01*
G75*
D01*
G02X414571Y642064I-783J0*
G01*
X414571Y642064D01*
X394483Y621976D01*
X394483Y592144D01*
X465371Y521256D01*
G74*
D01*
G02X465603Y520700I551J556*
G01*
X465603Y520700D01*
X465603Y503703D01*
X491089Y503703D01*
G75*
D01*
G02X491311Y503671I3J-783*
G01*
G74*
D01*
G02X491647Y503471I219J751*
G01*
X491647Y503471D01*
X504991Y490127D01*
G74*
D01*
G02X505223Y489572I551J555*
G01*
X505223Y489572D01*
X505223Y425264D01*
G75*
D01*
G02X504991Y424708I-783J0*
G01*
X504991Y424708D01*
X503912Y423629D01*
G74*
D01*
G02X503549Y423421I556J551*
G01*
G75*
D01*
G02X503353Y423397I-193J759*
G01*
X503353Y423397D01*
X488463Y423397D01*
X488463Y398780D01*
G75*
D01*
G02X488231Y398224I-783J0*
G01*
X488231Y398224D01*
X460523Y370516D01*
X460523Y304800D01*
G75*
D01*
G02X460291Y304244I-783J0*
G01*
X460291Y304244D01*
X445283Y289236D01*
X445283Y277184D01*
X455211Y267256D01*
G74*
D01*
G02X455443Y266700I551J556*
G01*
X455443Y266700D01*
X455443Y236220D01*
G75*
D01*
G02X455211Y235664I-783J0*
G01*
X455211Y235664D01*
X432583Y213036D01*
X432583Y38883D01*
X492757Y38883D01*
G75*
D01*
G02X492991Y38848I3J-783*
G01*
G74*
D01*
G02X493316Y38651I231J748*
G01*
X493316Y38651D01*
X500931Y31036D01*
G74*
D01*
G02X501163Y30480I551J556*
G01*
X501163Y30480D01*
X501163Y-53340D01*
G75*
D01*
G02X500931Y-53896I-783J0*
G01*
X500931Y-53896D01*
X495856Y-58971D01*
G74*
D01*
G02X495300Y-59203I556J551*
G01*
X495300Y-59203D01*
X452444Y-59203D01*
X442743Y-68904D01*
X442743Y-147320D01*
G75*
D01*
G02X442511Y-147876I-783J0*
G01*
X442511Y-147876D01*
X438576Y-151811D01*
G74*
D01*
G02X438020Y-152043I556J551*
G01*
X438020Y-152043D01*
X431766Y-152043D01*
X431766Y-152760D01*
G75*
D01*
G02X431756Y-152939I-1536J0*
G01*
X431756Y-152939D01*
X444344Y-152939D01*
X461499Y-135784D01*
X461499Y-96529D01*
G75*
D01*
G02X462472Y-94172I3321J9*
G01*
X462472Y-94172D01*
X477712Y-78932D01*
G74*
D01*
G02X478986Y-78138I2348J2348*
G01*
G75*
D01*
G02X480060Y-77959I1074J-3142*
G01*
X480060Y-77959D01*
X505455Y-77959D01*
G75*
D01*
G02X506376Y-78088I5J-3321*
G01*
G74*
D01*
G02X507813Y-78937I916J3192*
G01*
X507813Y-78937D01*
X511683Y-82807D01*
G74*
D01*
G02X512661Y-85160I2343J2353*
G01*
X512661Y-85160D01*
X512661Y-97322D01*
X515812Y-94172D01*
G75*
D01*
G02X518166Y-93199I2348J-2348*
G01*
X518166Y-93199D01*
X527380Y-93199D01*
X527380Y-87770D01*
G75*
D01*
G02X528390Y-86760I1010J0*
G01*
X528390Y-86760D01*
X538890Y-86760D01*
G74*
D01*
G02X539900Y-87770I0J1010*
G01*
X539900Y-87770D01*
X539900Y-105270D01*
G75*
D01*
G02X538890Y-106280I-1010J0*
G01*
X538890Y-106280D01*
X528390Y-106280D01*
G75*
D01*
G02X527380Y-105270I0J1010*
G01*
X527380Y-105270D01*
X527380Y-99841D01*
X519536Y-99841D01*
X515350Y-104027D01*
X515350Y-105260D01*
G75*
D01*
G02X514340Y-106270I-1010J0*
G01*
X514340Y-106270D01*
X504340Y-106270D01*
G75*
D01*
G02X503330Y-105260I0J1010*
G01*
X503330Y-105260D01*
X503330Y-99260D01*
G75*
D01*
G02X504340Y-98250I1010J0*
G01*
X504340Y-98250D01*
X506019Y-98250D01*
X506019Y-86536D01*
X504084Y-84601D01*
X481436Y-84601D01*
X468141Y-97896D01*
X468141Y-137160D01*
G75*
D01*
G02X467163Y-139513I-3321J0*
G01*
X467163Y-139513D01*
X448073Y-158603D01*
G74*
D01*
G02X445829Y-159579I2353J2343*
G01*
G75*
D01*
G02X445718Y-159581I-109J3319*
G01*
X445718Y-159581D01*
X431756Y-159581D01*
G74*
D01*
G02X431766Y-159760I1526J179*
G01*
X431766Y-159760D01*
X431766Y-162760D01*
G75*
D01*
G02X431396Y-163760I-1536J0*
G01*
G74*
D01*
G02X431766Y-164760I1166J1000*
G01*
X431766Y-164760D01*
X431766Y-167760D01*
G75*
D01*
G02X430230Y-169296I-1536J0*
G01*
X430230Y-169296D01*
X420730Y-169296D01*
G75*
D01*
G02X419744Y-168938I0J1536*
G01*
G74*
D01*
G02X419082Y-169440I1224J928*
G01*
G74*
D01*
G02X419516Y-170510I1102J1070*
G01*
X419516Y-170510D01*
X419516Y-180010D01*
G75*
D01*
G02X417980Y-181546I-1536J0*
G01*
X417980Y-181546D01*
X414980Y-181546D01*
G75*
D01*
G02X413980Y-181176I0J1536*
G01*
G74*
D01*
G02X412980Y-181546I1000J1166*
G01*
X412980Y-181546D01*
X409980Y-181546D01*
G75*
D01*
G02X408980Y-181176I0J1536*
G01*
G74*
D01*
G02X407980Y-181546I1000J1166*
G01*
X407980Y-181546D01*
X404980Y-181546D01*
G75*
D01*
G02X403980Y-181176I0J1536*
G01*
G74*
D01*
G02X402980Y-181546I1000J1166*
G01*
X402980Y-181546D01*
X399980Y-181546D01*
G75*
D01*
G02X398980Y-181176I0J1536*
G01*
G74*
D01*
G02X397980Y-181546I1000J1166*
G01*
X397980Y-181546D01*
X394980Y-181546D01*
G75*
D01*
G02X393980Y-181176I0J1536*
G01*
G74*
D01*
G02X392980Y-181546I1000J1166*
G01*
X392980Y-181546D01*
X389980Y-181546D01*
G75*
D01*
G02X389000Y-181193I0J1536*
G01*
G74*
D01*
G02X388020Y-181546I980J1183*
G01*
X388020Y-181546D01*
X385020Y-181546D01*
G75*
D01*
G02X383484Y-180010I0J1536*
G01*
X383484Y-180010D01*
X383484Y-170510D01*
G74*
D01*
G02X384127Y-169260I1536J0*
G01*
G74*
D01*
G02X383569Y-168514I893J1250*
G01*
G74*
D01*
G02X382230Y-169296I1339J754*
G01*
X382230Y-169296D01*
X372730Y-169296D01*
G75*
D01*
G02X371194Y-167760I0J1536*
G01*
X371194Y-167760D01*
X371194Y-164760D01*
G74*
D01*
G02X371564Y-163760I1536J0*
G01*
G75*
D01*
G02X371194Y-162760I1166J1000*
G01*
X371194Y-162760D01*
X371194Y-159760D01*
G74*
D01*
G02X371564Y-158760I1536J0*
G01*
G75*
D01*
G02X371194Y-157760I1166J1000*
G01*
X371194Y-157760D01*
X371194Y-154760D01*
G74*
D01*
G02X371564Y-153760I1536J0*
G01*
G75*
D01*
G02X371194Y-152760I1166J1000*
G01*
X371194Y-152760D01*
X371194Y-149760D01*
G74*
D01*
G02X371564Y-148760I1536J0*
G01*
G75*
D01*
G02X371194Y-147760I1166J1000*
G01*
X371194Y-147760D01*
X371194Y-144760D01*
G74*
D01*
G02X371564Y-143760I1536J0*
G01*
G75*
D01*
G02X371194Y-142760I1166J1000*
G01*
X371194Y-142760D01*
X371194Y-139760D01*
G74*
D01*
G02X371504Y-138833I1536J0*
G01*
X371504Y-138833D01*
X339088Y-138833D01*
X333833Y-144088D01*
X333833Y-165000D01*
G75*
D01*
G02X332705Y-167716I-3833J0*
G01*
X332705Y-167716D01*
X325216Y-175205D01*
G74*
D01*
G02X322500Y-176333I2716J2705*
G01*
X322500Y-176333D01*
X316119Y-176333D01*
G74*
D01*
G02X318833Y-180000I1119J3667*
G01*
X318833Y-180000D01*
X318833Y-194081D01*
X328485Y-198907D01*
X465832Y-198907D01*
X476167Y-188572D01*
X476167Y-112500D01*
G75*
D01*
G02X480000Y-108667I3833J0*
G01*
X480000Y-108667D01*
X480334Y-108667D01*
G75*
D01*
G02X481340Y-107750I1006J-93*
G01*
X481340Y-107750D01*
X491340Y-107750D01*
G74*
D01*
G02X492350Y-108760I0J1010*
G01*
X492350Y-108760D01*
X492350Y-114760D01*
G75*
D01*
G02X491340Y-115770I-1010J0*
G01*
X491340Y-115770D01*
X488341Y-115770D01*
G74*
D01*
G02X486340Y-116333I2001J3270*
G01*
X486340Y-116333D01*
X483833Y-116333D01*
X483833Y-190160D01*
G75*
D01*
G02X482705Y-192876I-3833J0*
G01*
X482705Y-192876D01*
X470136Y-205445D01*
G74*
D01*
G02X467420Y-206573I2716J2705*
G01*
X467420Y-206573D01*
X327585Y-206573D01*
G75*
D01*
G02X325866Y-206169I-5J3833*
G01*
X325866Y-206169D01*
X313286Y-199879D01*
G75*
D01*
G02X311167Y-196443I1714J3429*
G01*
X311167Y-196443D01*
X311167Y-183833D01*
X267838Y-183833D01*
X266333Y-185338D01*
X266333Y-237905D01*
X270150Y-237905D01*
G74*
D01*
G02X272165Y-239920I0J2015*
G01*
X272165Y-239920D01*
X272165Y-257920D01*
G75*
D01*
G02X270150Y-259935I-2015J0*
G01*
X270150Y-259935D01*
X268233Y-259935D01*
X268233Y-274720D01*
X269650Y-274720D01*
G74*
D01*
G02X270660Y-275730I0J1010*
G01*
X270660Y-275730D01*
X270660Y-293230D01*
G75*
D01*
G02X269650Y-294240I-1010J0*
G01*
X269650Y-294240D01*
X259150Y-294240D01*
G75*
D01*
G02X258140Y-293230I0J1010*
G01*
X258140Y-293230D01*
X258140Y-275730D01*
G75*
D01*
G02X259150Y-274720I1010J0*
G01*
X259150Y-274720D01*
X260567Y-274720D01*
X260567Y-259935D01*
X258650Y-259935D01*
G75*
D01*
G02X256635Y-257920I0J2015*
G01*
X256635Y-257920D01*
X256635Y-252753D01*
X248520Y-252753D01*
X248520Y-253930D01*
G75*
D01*
G02X247510Y-254940I-1010J0*
G01*
X247510Y-254940D01*
X242593Y-254940D01*
X242593Y-257661D01*
G75*
D01*
G02X234927Y-257661I-3833J-6499*
G01*
X234927Y-257661D01*
X234927Y-254940D01*
X230010Y-254940D01*
G75*
D01*
G02X229000Y-253930I0J1010*
G01*
X229000Y-253930D01*
X229000Y-243430D01*
G75*
D01*
G02X230010Y-242420I1010J0*
G01*
X230010Y-242420D01*
X247510Y-242420D01*
G74*
D01*
G02X248520Y-243430I0J1010*
G01*
X248520Y-243430D01*
X248520Y-245087D01*
X256635Y-245087D01*
X256635Y-239920D01*
G75*
D01*
G02X258650Y-237905I2015J0*
G01*
X258650Y-237905D01*
X258667Y-237905D01*
X258667Y-229869D01*
G74*
D01*
G02X257705Y-231466I3667J1119*
G01*
X257705Y-231466D01*
X253966Y-235205D01*
G74*
D01*
G02X251250Y-236333I2716J2705*
G01*
X251250Y-236333D01*
X228757Y-236333D01*
G75*
D01*
G02X226039Y-235211I-7J3833*
G01*
X226039Y-235211D01*
X222289Y-231461D01*
G75*
D01*
G02X221167Y-228741I2711J2711*
G01*
X221167Y-228741D01*
X221167Y188090D01*
G75*
D01*
G02X222289Y190811I3833J10*
G01*
X222289Y190811D01*
X228305Y196827D01*
X217488Y196827D01*
X201953Y181292D01*
X201953Y118971D01*
G75*
D01*
G02X194287Y118971I-3833J-12291*
G01*
X194287Y118971D01*
X194287Y182869D01*
G75*
D01*
G02X195338Y185517I3833J11*
G01*
X195338Y185517D01*
X199718Y190137D01*
G74*
D01*
G02X200707Y190888I2782J2637*
G01*
X200707Y190888D01*
X213189Y203371D01*
G74*
D01*
G02X215302Y204447I2711J2711*
G01*
X215302Y204447D01*
X210411Y204447D01*
G75*
D01*
G02X210411Y212113I-12291J3833*
G01*
X210411Y212113D01*
X320033Y212113D01*
G75*
D01*
G02X321428Y211853I7J-3833*
G01*
G74*
D01*
G02X322756Y210985I1388J3573*
G01*
X322756Y210985D01*
X341015Y192726D01*
G75*
D01*
G02X343162Y177880I1885J-7306*
G01*
X343162Y177880D01*
X347859Y173183D01*
G75*
D01*
G02X358054Y170438I3696J-6578*
G01*
X358054Y170438D01*
X367747Y170438D01*
X400027Y202718D01*
X400027Y280352D01*
X383369Y297009D01*
G75*
D01*
G02X382247Y299729I2711J2711*
G01*
X382247Y299729D01*
X382247Y328363D01*
G75*
D01*
G02X383369Y331081I3833J7*
G01*
X383369Y331081D01*
X400630Y348341D01*
G74*
D01*
G02X398396Y350732I4265J6224*
G01*
X398396Y350732D01*
X366796Y350732D01*
G75*
D01*
G02X364084Y351854I-1J3833*
G01*
X364084Y351854D01*
X350933Y365006D01*
G75*
D01*
G02X351074Y359743I-6998J-2821*
G01*
X351074Y359743D01*
X351358Y359458D01*
G74*
D01*
G02X352336Y357105I2343J2353*
G01*
X352336Y357105D01*
X352336Y343560D01*
G75*
D01*
G02X345694Y343560I-3321J-6775*
G01*
X345694Y343560D01*
X345694Y354848D01*
G75*
D01*
G02X341408Y369294I-1759J7337*
G01*
G75*
D01*
G02X339477Y377706I5067J5591*
G01*
X339477Y377706D01*
X335068Y373297D01*
X335068Y282493D01*
X351720Y265841D01*
G74*
D01*
G02X352848Y263125I2705J2716*
G01*
X352848Y263125D01*
X352848Y252144D01*
G75*
D01*
G02X346095Y239074I-4868J-5764*
G01*
X346095Y239074D01*
X341806Y234785D01*
G74*
D01*
G02X339090Y233657I2716J2705*
G01*
X339090Y233657D01*
X308615Y233657D01*
G75*
D01*
G02X305899Y234779I-5J3833*
G01*
X305899Y234779D01*
X284309Y256369D01*
G75*
D01*
G02X283187Y259087I2711J2711*
G01*
X283187Y259087D01*
X283187Y289768D01*
X279608Y293347D01*
X210426Y293347D01*
G75*
D01*
G02X204430Y300783I-12306J-3787*
G01*
G75*
D01*
G02X205746Y301013I1310J-3603*
G01*
X205746Y301013D01*
X281196Y301013D01*
G74*
D01*
G02X283912Y299885I0J3833*
G01*
X283912Y299885D01*
X289725Y294072D01*
G74*
D01*
G02X290853Y291356I2705J2716*
G01*
X290853Y291356D01*
X290853Y260668D01*
X310198Y241323D01*
X311900Y241323D01*
G74*
D01*
G02X309967Y245951I5600J5057*
G01*
X309967Y245951D01*
X305664Y250254D01*
G75*
D01*
G02X304542Y252972I2711J2711*
G01*
X304542Y252972D01*
X304542Y369797D01*
G75*
D01*
G02X305664Y372516I3833J8*
G01*
X305664Y372516D01*
X329009Y395860D01*
G75*
D01*
G02X334430Y390439I7306J1885*
G01*
X334430Y390439D01*
X312208Y368217D01*
X312208Y254553D01*
X313804Y252958D01*
G75*
D01*
G02X323100Y241323I3696J-6578*
G01*
X323100Y241323D01*
X337502Y241323D01*
X340674Y244495D01*
G75*
D01*
G02X345182Y253387I7306J1885*
G01*
X345182Y253387D01*
X345182Y261537D01*
X328524Y278194D01*
G75*
D01*
G02X327402Y280910I2711J2711*
G01*
X327402Y280910D01*
X327402Y374875D01*
G75*
D01*
G02X328524Y377596I3833J10*
G01*
X328524Y377596D01*
X361544Y410616D01*
G74*
D01*
G02X363171Y411582I2711J2711*
G01*
G75*
D01*
G02X364255Y411738I1084J-3677*
G01*
X364255Y411738D01*
X375367Y411738D01*
X390902Y427273D01*
X390902Y469986D01*
G75*
D01*
G02X398568Y469986I3833J6499*
G01*
X398568Y469986D01*
X398568Y425685D01*
G75*
D01*
G02X397440Y422969I-3833J0*
G01*
X397440Y422969D01*
X382034Y407563D01*
X379671Y405200D01*
G74*
D01*
G02X377306Y404088I2716J2705*
G01*
G75*
D01*
G02X376952Y404072I-351J3817*
G01*
X376952Y404072D01*
X365843Y404072D01*
X364443Y402671D01*
X343654Y381883D01*
G75*
D01*
G02X353781Y373000I2821J-6998*
G01*
X353781Y373000D01*
X364443Y362339D01*
X368383Y358398D01*
X398396Y358398D01*
G75*
D01*
G02X408728Y348066I6499J-3833*
G01*
X408728Y348066D01*
X408728Y347185D01*
G75*
D01*
G02X407600Y344469I-3833J0*
G01*
X407600Y344469D01*
X389913Y326782D01*
X389913Y301308D01*
X406565Y284656D01*
G74*
D01*
G02X407647Y282538I2705J2716*
G01*
X407647Y282538D01*
X407647Y304795D01*
G75*
D01*
G02X408769Y307511I3833J5*
G01*
X408769Y307511D01*
X427967Y326708D01*
X427967Y383532D01*
G75*
D01*
G02X429089Y386251I3833J8*
G01*
X429089Y386251D01*
X453367Y410528D01*
X453367Y439412D01*
G75*
D01*
G02X454489Y442131I3833J8*
G01*
X454489Y442131D01*
X462109Y449751D01*
G75*
D01*
G02X464826Y450873I2711J-2711*
G01*
X464826Y450873D01*
X481215Y450873D01*
X481215Y458032D01*
G75*
D01*
G02X471147Y468779I-6235J4248*
G01*
X471147Y468779D01*
X471147Y470852D01*
X465772Y476227D01*
X447784Y476227D01*
G75*
D01*
G02X446532Y476437I0J3833*
G01*
G74*
D01*
G02X445073Y477349I1252J3623*
G01*
X445073Y477349D01*
X440713Y481709D01*
X440713Y417979D01*
G75*
D01*
G02X433047Y417979I-3833J-6499*
G01*
X433047Y417979D01*
X433047Y503872D01*
X425132Y511787D01*
X354631Y511787D01*
G75*
D01*
G02X344021Y501627I-4111J-6327*
G01*
X344021Y501627D01*
X301308Y501627D01*
X264336Y464655D01*
G74*
D01*
G02X261620Y463527I2716J2705*
G01*
X261620Y463527D01*
X215692Y463527D01*
X201953Y449788D01*
X201953Y403451D01*
G75*
D01*
G02X194287Y403451I-3833J-12291*
G01*
X194287Y403451D01*
X194287Y451366D01*
G75*
D01*
G02X195409Y454087I3833J10*
G01*
X195409Y454087D01*
X211393Y470071D01*
G74*
D01*
G02X213266Y471101I2711J2711*
G01*
G75*
D01*
G02X214104Y471193I838J-3741*
G01*
X214104Y471193D01*
X260032Y471193D01*
X297009Y508171D01*
G75*
D01*
G02X299723Y509293I2711J-2711*
G01*
X299723Y509293D01*
X344021Y509293D01*
G74*
D01*
G02X346409Y511787I6499J3833*
G01*
X346409Y511787D01*
X275908Y511787D01*
X249096Y484975D01*
G74*
D01*
G02X247535Y484025I2716J2705*
G01*
G75*
D01*
G02X246374Y483847I-1155J3655*
G01*
X246374Y483847D01*
X220985Y483847D01*
G75*
D01*
G02X218269Y484969I-5J3833*
G01*
X218269Y484969D01*
X206692Y496547D01*
X175260Y496547D01*
G75*
D01*
G02X174520Y496619I0J3833*
G01*
G74*
D01*
G02X172549Y497669I740J3761*
G01*
X172549Y497669D01*
X153301Y516918D01*
G75*
D01*
G02X158722Y522339I-5981J11402*
G01*
X158722Y522339D01*
X176848Y504213D01*
X208280Y504213D01*
G74*
D01*
G02X210996Y503085I0J3833*
G01*
X210996Y503085D01*
X222568Y491513D01*
X244792Y491513D01*
X271609Y518331D01*
G74*
D01*
G02X273580Y519381I2711J2711*
G01*
G75*
D01*
G02X274320Y519453I740J-3761*
G01*
X274320Y519453D01*
X425085Y519453D01*
X371253Y573286D01*
G75*
D01*
G02X360422Y576964I-6998J-2821*
G01*
X360422Y576964D01*
X360422Y599357D01*
X359004Y600774D01*
G75*
D01*
G02X357882Y603493I2711J2711*
G01*
X357882Y603493D01*
X357882Y624926D01*
G75*
D01*
G02X365548Y624926I3833J6499*
G01*
X365548Y624926D01*
X365548Y605073D01*
X366960Y603661D01*
G74*
D01*
G02X368088Y600945I2705J2716*
G01*
X368088Y600945D01*
X368088Y576964D01*
G74*
D01*
G02X369637Y575753I3833J6499*
G01*
G75*
D01*
G02X369547Y576591I3743J827*
G01*
X369547Y576591D01*
X369547Y635952D01*
X364443Y641056D01*
X361632Y643867D01*
X299720Y643867D01*
G75*
D01*
G02X299563Y643870I0J3833*
G01*
G74*
D01*
G02X297009Y644989I157J3830*
G01*
X297009Y644989D01*
X294436Y647563D01*
X294436Y647563D01*
X234632Y707367D01*
X215491Y707367D01*
G75*
D01*
G02X215491Y715033I-12291J3833*
G01*
X215491Y715033D01*
X236213Y715033D01*
G75*
D01*
G02X237641Y714760I7J-3833*
G01*
G74*
D01*
G02X238936Y713905I1421J3560*
G01*
X238936Y713905D01*
X301308Y651533D01*
X363215Y651533D01*
G75*
D01*
G02X364203Y651405I5J-3833*
G01*
G74*
D01*
G02X365936Y650405I983J3705*
G01*
X365936Y650405D01*
X368779Y647563D01*
X368779Y647563D01*
X376085Y640256D01*
G74*
D01*
G02X377213Y637540I2705J2716*
G01*
X377213Y637540D01*
X377213Y636635D01*
X388141Y647563D01*
X394947Y654368D01*
X394947Y704787D01*
G75*
D01*
G02X384152Y715327I-5292J5378*
G01*
X384152Y715327D01*
X364443Y735036D01*
X364443Y735036D01*
X360509Y738969D01*
G75*
D01*
G02X359387Y741689I2711J2711*
G01*
X359387Y741689D01*
X359387Y750252D01*
X358222Y751417D01*
G75*
D01*
G02X359757Y760396I-5162J5503*
G01*
G74*
D01*
G02X360856Y759625I1617J3476*
G01*
X360856Y759625D01*
X364443Y756039D01*
X364443Y756039D01*
X365925Y754556D01*
G74*
D01*
G02X367006Y752440I2705J2716*
G01*
X367006Y752440D01*
X367006Y842155D01*
G74*
D01*
G02X365760Y842538I104J2555*
G01*
G74*
D01*
G02X364410Y842153I1350J2172*
G01*
X364410Y842153D01*
X354410Y842153D01*
G75*
D01*
G02X353060Y842538I0J2557*
G01*
G74*
D01*
G02X351710Y842153I1350J2172*
G01*
X351710Y842153D01*
X341710Y842153D01*
G75*
D01*
G02X340360Y842538I0J2557*
G01*
G74*
D01*
G02X339010Y842153I1350J2172*
G01*
X339010Y842153D01*
X329010Y842153D01*
G75*
D01*
G02X327660Y842538I0J2557*
G01*
G74*
D01*
G02X326310Y842153I1350J2172*
G01*
X326310Y842153D01*
X316310Y842153D01*
G75*
D01*
G02X314960Y842538I0J2557*
G01*
G74*
D01*
G02X313610Y842153I1350J2172*
G01*
X313610Y842153D01*
X303610Y842153D01*
G75*
D01*
G02X302260Y842538I0J2557*
G01*
G74*
D01*
G02X300910Y842153I1350J2172*
G01*
X300910Y842153D01*
X290910Y842153D01*
G75*
D01*
G02X289560Y842538I0J2557*
G01*
G74*
D01*
G02X288210Y842153I1350J2172*
G01*
X288210Y842153D01*
X278210Y842153D01*
G75*
D01*
G02X275653Y844710I0J2557*
G01*
X275653Y844710D01*
X275653Y864710D01*
G75*
D01*
G02X278210Y867267I2557J0*
G01*
X278210Y867267D01*
X288210Y867267D01*
G74*
D01*
G02X289560Y866882I0J2557*
G01*
G75*
D01*
G02X290910Y867267I1350J-2172*
G01*
X290910Y867267D01*
X300910Y867267D01*
G74*
D01*
G02X302260Y866882I0J2557*
G01*
G75*
D01*
G02X303610Y867267I1350J-2172*
G01*
X303610Y867267D01*
X313610Y867267D01*
G74*
D01*
G02X314960Y866882I0J2557*
G01*
G75*
D01*
G02X316310Y867267I1350J-2172*
G01*
X316310Y867267D01*
X326310Y867267D01*
G74*
D01*
G02X327660Y866882I0J2557*
G01*
G75*
D01*
G02X329010Y867267I1350J-2172*
G01*
X329010Y867267D01*
X339010Y867267D01*
G74*
D01*
G02X340360Y866882I0J2557*
G01*
G75*
D01*
G02X341710Y867267I1350J-2172*
G01*
X341710Y867267D01*
X351710Y867267D01*
G74*
D01*
G02X353060Y866882I0J2557*
G01*
G75*
D01*
G02X354410Y867267I1350J-2172*
G01*
X354410Y867267D01*
X364410Y867267D01*
G74*
D01*
G02X365760Y866882I0J2557*
G01*
G75*
D01*
G02X367110Y867267I1350J-2172*
G01*
X367110Y867267D01*
X377110Y867267D01*
G74*
D01*
G02X378460Y866882I0J2557*
G01*
G75*
D01*
G02X379810Y867267I1350J-2172*
G01*
X379810Y867267D01*
X389810Y867267D01*
G74*
D01*
G02X391160Y866882I0J2557*
G01*
G75*
D01*
G02X392510Y867267I1350J-2172*
G01*
X392510Y867267D01*
X402510Y867267D01*
G74*
D01*
G02X402850Y867245I0J2557*
G01*
X402850Y867245D01*
X397628Y872467D01*
X274320Y872467D01*
G75*
D01*
G02X273546Y872546I0J3833*
G01*
G74*
D01*
G02X271609Y873589I774J3754*
G01*
X271609Y873589D01*
X264017Y881181D01*
X264017Y876380D01*
G75*
D01*
G02X261460Y873823I-2557J0*
G01*
X261460Y873823D01*
X241460Y873823D01*
G75*
D01*
G02X238903Y876380I0J2557*
G01*
X238903Y876380D01*
X238903Y886380D01*
G74*
D01*
G02X239288Y887730I2557J0*
G01*
G75*
D01*
G02X238903Y889080I2172J1350*
G01*
X238903Y889080D01*
X238903Y899080D01*
G74*
D01*
G02X239288Y900430I2557J0*
G01*
G75*
D01*
G02X238903Y901780I2172J1350*
G01*
X238903Y901780D01*
X238903Y911780D01*
G74*
D01*
G02X239288Y913130I2557J0*
G01*
G75*
D01*
G02X238903Y914480I2172J1350*
G01*
X238903Y914480D01*
X238903Y924480D01*
G74*
D01*
G02X239288Y925830I2557J0*
G01*
G75*
D01*
G02X238903Y927180I2172J1350*
G01*
X238903Y927180D01*
X238903Y937180D01*
G74*
D01*
G02X239288Y938530I2557J0*
G01*
G75*
D01*
G02X238903Y939880I2172J1350*
G01*
X238903Y939880D01*
X238903Y949880D01*
G74*
D01*
G02X239288Y951230I2557J0*
G01*
G75*
D01*
G02X238903Y952580I2172J1350*
G01*
X238903Y952580D01*
X238903Y962580D01*
G74*
D01*
G02X239288Y963930I2557J0*
G01*
G75*
D01*
G02X238903Y965280I2172J1350*
G01*
X238903Y965280D01*
X238903Y975280D01*
G74*
D01*
G02X239288Y976630I2557J0*
G01*
G75*
D01*
G02X238903Y977980I2172J1350*
G01*
X238903Y977980D01*
X238903Y987980D01*
G74*
D01*
G02X239288Y989330I2557J0*
G01*
G75*
D01*
G02X238903Y990680I2172J1350*
G01*
X238903Y990680D01*
X238903Y1000680D01*
G74*
D01*
G02X239288Y1002030I2557J0*
G01*
G75*
D01*
G02X238903Y1003380I2172J1350*
G01*
X238903Y1003380D01*
X238903Y1013380D01*
G74*
D01*
G02X239288Y1014730I2557J0*
G01*
G75*
D01*
G02X238903Y1016080I2172J1350*
G01*
X238903Y1016080D01*
X238903Y1017247D01*
X237639Y1017247D01*
G75*
D01*
G02X237639Y1024913I-6499J3833*
G01*
X237639Y1024913D01*
X238903Y1024913D01*
X238903Y1026080D01*
G74*
D01*
G02X239288Y1027430I2557J0*
G01*
G75*
D01*
G02X238903Y1028780I2172J1350*
G01*
X238903Y1028780D01*
X238903Y1038780D01*
G74*
D01*
G02X239288Y1040130I2557J0*
G01*
G75*
D01*
G02X238903Y1041480I2172J1350*
G01*
X238903Y1041480D01*
X238903Y1051480D01*
G75*
D01*
G02X241460Y1054037I2557J0*
G01*
X241460Y1054037D01*
X261460Y1054037D01*
G74*
D01*
G02X263235Y1053321I0J2557*
G01*
X263235Y1053321D01*
X419685Y1053321D01*
D02*
G37*
G36*
X149079Y635008D02*
X149079Y635008D01*
X149079Y647960D01*
G75*
D01*
G02X155721Y647960I3321J12440*
G01*
X155721Y647960D01*
X155721Y636376D01*
X200285Y591812D01*
G74*
D01*
G02X205030Y589984I2165J12692*
G01*
G74*
D01*
G02X205069Y589993I710J3244*
G01*
G75*
D01*
G02X205740Y590061I671J-3253*
G01*
X205740Y590061D01*
X310725Y590061D01*
G75*
D01*
G02X310725Y583419I6775J-3321*
G01*
X310725Y583419D01*
X210256Y583419D01*
G75*
D01*
G02X192167Y590536I-12136J-4299*
G01*
X192167Y590536D01*
X150052Y632652D01*
G75*
D01*
G02X149079Y635008I2348J2348*
G01*
D02*
G37*
G36*
X543668Y647563D02*
G75*
D01*
G02X543668Y647563I10052J-2403*
G01*
D02*
G37*
G36*
X423968Y492846D02*
X423968Y492846D01*
X423968Y329165D01*
G75*
D01*
G02X422840Y326449I-3833J0*
G01*
X422840Y326449D01*
X407121Y310730D01*
G75*
D01*
G02X401700Y316151I-7306J-1885*
G01*
X401700Y316151D01*
X416302Y330753D01*
X416302Y492846D01*
G75*
D01*
G02X423968Y492846I3833J6499*
G01*
D02*
G37*
G36*
X362560Y423926D02*
G75*
D01*
G02X362560Y417284I6775J-3321*
G01*
X362560Y417284D01*
X272861Y417284D01*
G75*
D01*
G02X273890Y423926I-6161J4356*
G01*
X273890Y423926D01*
X362560Y423926D01*
D02*
G37*
G36*
X276136Y273285D02*
X276136Y273285D01*
X276136Y262996D01*
X305941Y233191D01*
X367030Y233191D01*
G74*
D01*
G02X369383Y232213I0J3321*
G01*
X369383Y232213D01*
X371973Y229624D01*
G75*
D01*
G02X367276Y224927I2442J-7139*
G01*
X367276Y224927D01*
X365654Y226549D01*
X355610Y226549D01*
G75*
D01*
G02X354353Y214481I-5090J-5569*
G01*
X354353Y214481D01*
X354353Y207159D01*
G75*
D01*
G02X346687Y207159I-3833J-6499*
G01*
X346687Y207159D01*
X346687Y214481D01*
G75*
D01*
G02X345430Y226549I3833J6499*
G01*
X345430Y226549D01*
X304565Y226549D01*
G75*
D01*
G02X304495Y226550I0J3321*
G01*
G74*
D01*
G02X302217Y227522I70J3320*
G01*
X302217Y227522D01*
X270467Y259272D01*
G75*
D01*
G02X269494Y261631I2348J2348*
G01*
X269494Y261631D01*
X269494Y271909D01*
X269142Y272261D01*
G75*
D01*
G02X273839Y276958I-2442J7139*
G01*
X273839Y276958D01*
X275158Y275638D01*
G74*
D01*
G02X276136Y273285I2343J2353*
G01*
D02*
G37*
G36*
X139313Y167563D02*
G75*
D01*
G02X139313Y167563I8007J-10083*
G01*
D02*
G37*
G36*
X370838Y-281159D02*
G75*
D01*
G02X371060Y-281166I2J-3321*
G01*
G74*
D01*
G02X372878Y-281858I220J3314*
G01*
X372878Y-281858D01*
X372878Y-277265D01*
G75*
D01*
G02X375435Y-274708I2557J0*
G01*
X375435Y-274708D01*
X398435Y-274708D01*
G74*
D01*
G02X400992Y-277265I0J2557*
G01*
X400992Y-277265D01*
X400992Y-283444D01*
X401378Y-283444D01*
X401378Y-277265D01*
G75*
D01*
G02X403935Y-274708I2557J0*
G01*
X403935Y-274708D01*
X421935Y-274708D01*
G74*
D01*
G02X424435Y-276727I0J2557*
G01*
G75*
D01*
G02X426935Y-274708I2500J-538*
G01*
X426935Y-274708D01*
X434114Y-274708D01*
X434114Y-266899D01*
G74*
D01*
G02X432935Y-267280I1179J1634*
G01*
X432935Y-267280D01*
X428935Y-267280D01*
G75*
D01*
G02X427685Y-266845I0J2015*
G01*
G74*
D01*
G02X426435Y-267280I1250J1580*
G01*
X426435Y-267280D01*
X422435Y-267280D01*
G75*
D01*
G02X421185Y-266845I0J2015*
G01*
G74*
D01*
G02X419935Y-267280I1250J1580*
G01*
X419935Y-267280D01*
X415935Y-267280D01*
G75*
D01*
G02X414685Y-266845I0J2015*
G01*
G74*
D01*
G02X413435Y-267280I1250J1580*
G01*
X413435Y-267280D01*
X409435Y-267280D01*
G75*
D01*
G02X407420Y-265265I0J2015*
G01*
X407420Y-265265D01*
X407420Y-251265D01*
G74*
D01*
G02X407591Y-250453I2015J0*
G01*
X407591Y-250453D01*
X401149Y-244011D01*
G75*
D01*
G02X400027Y-241290I2711J2711*
G01*
X400027Y-241290D01*
X400027Y-222568D01*
X397192Y-219733D01*
X295386Y-219733D01*
G75*
D01*
G02X292673Y-218611I-2J3833*
G01*
X292673Y-218611D01*
X286849Y-212787D01*
G75*
D01*
G02X285727Y-210071I2711J2711*
G01*
X285727Y-210071D01*
X285727Y-209570D01*
X273810Y-209570D01*
G75*
D01*
G02X272800Y-208560I0J1010*
G01*
X272800Y-208560D01*
X272800Y-186560D01*
G75*
D01*
G02X273810Y-185550I1010J0*
G01*
X273810Y-185550D01*
X305310Y-185550D01*
G74*
D01*
G02X306320Y-186560I0J1010*
G01*
X306320Y-186560D01*
X306320Y-208560D01*
G75*
D01*
G02X305310Y-209570I-1010J0*
G01*
X305310Y-209570D01*
X294475Y-209570D01*
X296972Y-212067D01*
X398774Y-212067D01*
G75*
D01*
G02X400040Y-212280I6J-3833*
G01*
G74*
D01*
G02X401496Y-213195I1260J3620*
G01*
X401496Y-213195D01*
X406565Y-218264D01*
G74*
D01*
G02X407693Y-220980I2705J2716*
G01*
X407693Y-220980D01*
X407693Y-239712D01*
X414140Y-246159D01*
G74*
D01*
G02X414614Y-246733I2705J2716*
G01*
X414614Y-246733D01*
X414614Y-239747D01*
G75*
D01*
G02X421542Y-226541I4486J6067*
G01*
X421542Y-226541D01*
X426912Y-221172D01*
G75*
D01*
G02X429265Y-220199I2348J-2348*
G01*
X429265Y-220199D01*
X440265Y-220199D01*
G75*
D01*
G02X440265Y-226841I6775J-3321*
G01*
X440265Y-226841D01*
X430636Y-226841D01*
X426239Y-231238D01*
G75*
D01*
G02X424869Y-238543I-7139J-2442*
G01*
G75*
D01*
G02X426722Y-237979I1851J-2757*
G01*
X426722Y-237979D01*
X427565Y-237979D01*
G75*
D01*
G02X427756Y-244985I6775J-3321*
G01*
X427756Y-244985D01*
X427756Y-249631D01*
G75*
D01*
G02X428935Y-249250I1179J-1634*
G01*
X428935Y-249250D01*
X432935Y-249250D01*
G74*
D01*
G02X434185Y-249685I0J2015*
G01*
G75*
D01*
G02X435435Y-249250I1250J-1580*
G01*
X435435Y-249250D01*
X439435Y-249250D01*
G74*
D01*
G02X441450Y-251265I0J2015*
G01*
X441450Y-251265D01*
X441450Y-265265D01*
G75*
D01*
G02X440756Y-266786I-2015J0*
G01*
X440756Y-266786D01*
X440756Y-274708D01*
X444935Y-274708D01*
G74*
D01*
G02X447492Y-277265I0J2557*
G01*
X447492Y-277265D01*
X447492Y-283444D01*
X447878Y-283444D01*
X447878Y-277265D01*
G75*
D01*
G02X450435Y-274708I2557J0*
G01*
X450435Y-274708D01*
X473435Y-274708D01*
G74*
D01*
G02X475992Y-277265I0J2557*
G01*
X475992Y-277265D01*
X475992Y-283444D01*
X476399Y-283444D01*
X477712Y-282132D01*
G75*
D01*
G02X480062Y-281159I2348J-2348*
G01*
X480062Y-281159D01*
X491763Y-281159D01*
X491763Y-275980D01*
G75*
D01*
G02X494320Y-273423I2557J0*
G01*
X494320Y-273423D01*
X494999Y-273423D01*
X494999Y-259935D01*
X492330Y-259935D01*
G75*
D01*
G02X490315Y-257920I0J2015*
G01*
X490315Y-257920D01*
X490315Y-239920D01*
G75*
D01*
G02X492330Y-237905I2015J0*
G01*
X492330Y-237905D01*
X494759Y-237905D01*
X494759Y-219295D01*
X492330Y-219295D01*
G75*
D01*
G02X490315Y-217280I0J2015*
G01*
X490315Y-217280D01*
X490315Y-199280D01*
G75*
D01*
G02X492330Y-197265I2015J0*
G01*
X492330Y-197265D01*
X494759Y-197265D01*
X494759Y-183735D01*
X492330Y-183735D01*
G75*
D01*
G02X490315Y-181720I0J2015*
G01*
X490315Y-181720D01*
X490315Y-163720D01*
G75*
D01*
G02X492330Y-161705I2015J0*
G01*
X492330Y-161705D01*
X503830Y-161705D01*
G74*
D01*
G02X505845Y-163720I0J2015*
G01*
X505845Y-163720D01*
X505845Y-181720D01*
G75*
D01*
G02X503830Y-183735I-2015J0*
G01*
X503830Y-183735D01*
X501401Y-183735D01*
X501401Y-197265D01*
X503830Y-197265D01*
G74*
D01*
G02X505845Y-199280I0J2015*
G01*
X505845Y-199280D01*
X505845Y-217280D01*
G75*
D01*
G02X503830Y-219295I-2015J0*
G01*
X503830Y-219295D01*
X501401Y-219295D01*
X501401Y-237905D01*
X503830Y-237905D01*
G74*
D01*
G02X505845Y-239920I0J2015*
G01*
X505845Y-239920D01*
X505845Y-257920D01*
G75*
D01*
G02X503830Y-259935I-2015J0*
G01*
X503830Y-259935D01*
X501641Y-259935D01*
X501641Y-273423D01*
X502320Y-273423D01*
G74*
D01*
G02X504877Y-275980I0J2557*
G01*
X504877Y-275980D01*
X504877Y-292980D01*
G75*
D01*
G02X502320Y-295537I-2557J0*
G01*
X502320Y-295537D01*
X494320Y-295537D01*
G75*
D01*
G02X491763Y-292980I0J2557*
G01*
X491763Y-292980D01*
X491763Y-287801D01*
X481436Y-287801D01*
X480128Y-289108D01*
G74*
D01*
G02X477775Y-290086I2353J2343*
G01*
X477775Y-290086D01*
X475992Y-290086D01*
X475992Y-296265D01*
G75*
D01*
G02X473435Y-298822I-2557J0*
G01*
X473435Y-298822D01*
X450435Y-298822D01*
G75*
D01*
G02X447878Y-296265I0J2557*
G01*
X447878Y-296265D01*
X447878Y-290086D01*
X447492Y-290086D01*
X447492Y-296265D01*
G75*
D01*
G02X444935Y-298822I-2557J0*
G01*
X444935Y-298822D01*
X426935Y-298822D01*
G75*
D01*
G02X424435Y-296803I0J2557*
G01*
G74*
D01*
G02X421935Y-298822I2500J538*
G01*
X421935Y-298822D01*
X403935Y-298822D01*
G75*
D01*
G02X401378Y-296265I0J2557*
G01*
X401378Y-296265D01*
X401378Y-290086D01*
X400992Y-290086D01*
X400992Y-296265D01*
G75*
D01*
G02X398435Y-298822I-2557J0*
G01*
X398435Y-298822D01*
X375435Y-298822D01*
G75*
D01*
G02X372878Y-296265I0J2557*
G01*
X372878Y-296265D01*
X372878Y-290077D01*
G74*
D01*
G02X371922Y-289860I247J3312*
G01*
G74*
D01*
G02X370777Y-289113I1203J3095*
G01*
X370777Y-289113D01*
X369464Y-287801D01*
X356597Y-287801D01*
X356597Y-292980D01*
G75*
D01*
G02X354040Y-295537I-2557J0*
G01*
X354040Y-295537D01*
X346040Y-295537D01*
G75*
D01*
G02X343483Y-292980I0J2557*
G01*
X343483Y-292980D01*
X343483Y-275980D01*
G75*
D01*
G02X346040Y-273423I2557J0*
G01*
X346040Y-273423D01*
X347199Y-273423D01*
X347199Y-259935D01*
X344530Y-259935D01*
G75*
D01*
G02X342515Y-257920I0J2015*
G01*
X342515Y-257920D01*
X342515Y-239920D01*
G75*
D01*
G02X344530Y-237905I2015J0*
G01*
X344530Y-237905D01*
X344969Y-237905D01*
X344064Y-237001D01*
X301096Y-237001D01*
X300191Y-237906D01*
G74*
D01*
G02X302165Y-239920I41J2014*
G01*
X302165Y-239920D01*
X302165Y-257920D01*
G75*
D01*
G02X300150Y-259935I-2015J0*
G01*
X300150Y-259935D01*
X288650Y-259935D01*
G75*
D01*
G02X286635Y-257920I0J2015*
G01*
X286635Y-257920D01*
X286635Y-239920D01*
G75*
D01*
G02X288650Y-237905I2015J0*
G01*
X288650Y-237905D01*
X291265Y-237905D01*
G74*
D01*
G02X292052Y-236652I3135J1095*
G01*
X292052Y-236652D01*
X297372Y-231332D01*
G75*
D01*
G02X299723Y-230359I2348J-2348*
G01*
X299723Y-230359D01*
X345440Y-230359D01*
G74*
D01*
G02X347793Y-231337I0J3321*
G01*
X347793Y-231337D01*
X352863Y-236407D01*
G74*
D01*
G02X353729Y-237905I2343J2353*
G01*
X353729Y-237905D01*
X356030Y-237905D01*
G74*
D01*
G02X358045Y-239920I0J2015*
G01*
X358045Y-239920D01*
X358045Y-240519D01*
X364219Y-240519D01*
X364219Y-233069D01*
G75*
D01*
G02X364818Y-225088I-6079J4469*
G01*
G75*
D01*
G02X365740Y-224490I922J-412*
G01*
X365740Y-224490D01*
X369340Y-224490D01*
G74*
D01*
G02X370350Y-225500I0J1010*
G01*
X370350Y-225500D01*
X370350Y-226830D01*
G74*
D01*
G02X370562Y-227223I2810J1770*
G01*
G74*
D01*
G02X371330Y-225992I3578J1377*
G01*
X371330Y-225992D01*
X371330Y-225500D01*
G75*
D01*
G02X372340Y-224490I1010J0*
G01*
X372340Y-224490D01*
X375940Y-224490D01*
G74*
D01*
G02X376634Y-224767I0J1010*
G01*
X376634Y-224767D01*
X379581Y-224767D01*
G75*
D01*
G02X379581Y-232433I6499J-3833*
G01*
X379581Y-232433D01*
X376634Y-232433D01*
G74*
D01*
G02X375940Y-232710I694J733*
G01*
X375940Y-232710D01*
X372340Y-232710D01*
G75*
D01*
G02X371330Y-231700I0J1010*
G01*
X371330Y-231700D01*
X371330Y-231208D01*
G74*
D01*
G02X370861Y-230586I2810J2608*
G01*
X370861Y-230586D01*
X370861Y-242060D01*
G75*
D01*
G02X370860Y-242135I-3321J0*
G01*
G75*
D01*
G02X370820Y-245610I-2850J-1705*
G01*
X370820Y-245610D01*
X370820Y-246940D01*
G75*
D01*
G02X369810Y-247950I-1010J0*
G01*
X369810Y-247950D01*
X366210Y-247950D01*
G75*
D01*
G02X365225Y-247161I0J1010*
G01*
X365225Y-247161D01*
X358045Y-247161D01*
X358045Y-257920D01*
G75*
D01*
G02X356030Y-259935I-2015J0*
G01*
X356030Y-259935D01*
X353841Y-259935D01*
X353841Y-273423D01*
X354040Y-273423D01*
G74*
D01*
G02X356597Y-275980I0J2557*
G01*
X356597Y-275980D01*
X356597Y-281159D01*
X370838Y-281159D01*
D02*
G37*
G36*
X379581Y-240007D02*
G75*
D01*
G02X379581Y-247673I6499J-3833*
G01*
X379581Y-247673D01*
X377104Y-247673D01*
G74*
D01*
G02X376410Y-247950I694J733*
G01*
X376410Y-247950D01*
X372810Y-247950D01*
G75*
D01*
G02X371800Y-246940I0J1010*
G01*
X371800Y-246940D01*
X371800Y-240740D01*
G75*
D01*
G02X372810Y-239730I1010J0*
G01*
X372810Y-239730D01*
X376410Y-239730D01*
G74*
D01*
G02X377104Y-240007I0J1010*
G01*
X377104Y-240007D01*
X379581Y-240007D01*
D02*
G37*
G36*
X546335Y127000D02*
G75*
D01*
G02X546335Y127000I17545J0*
G01*
D02*
G37*
G36*
X543385Y695960D02*
G75*
D01*
G02X543385Y695960I10335J0*
G01*
D02*
G37*
G36*
X543385Y670560D02*
G75*
D01*
G02X543385Y670560I10335J0*
G01*
D02*
G37*
G36*
X546335Y581660D02*
G75*
D01*
G02X546335Y581660I17545J0*
G01*
D02*
G37*
G36*
X543385Y518160D02*
G75*
D01*
G02X543385Y518160I10335J0*
G01*
D02*
G37*
G36*
X543385Y431800D02*
G75*
D01*
G02X543385Y431800I10335J0*
G01*
D02*
G37*
G36*
X147555Y1079500D02*
G75*
D01*
G02X147555Y1079500I17545J0*
G01*
D02*
G37*
G36*
X147313Y-204982D02*
X147313Y-204982D01*
X147313Y-250056D01*
G75*
D01*
G02X145761Y-251608I-1552J0*
G01*
X145761Y-251608D01*
X133484Y-251608D01*
G75*
D01*
G02X131932Y-250056I0J1552*
G01*
X131932Y-250056D01*
X131932Y-74898D01*
G75*
D01*
G02X133484Y-73346I1552J0*
G01*
X133484Y-73346D01*
X145761Y-73346D01*
G74*
D01*
G02X147313Y-74898I0J1552*
G01*
X147313Y-74898D01*
X147313Y-98967D01*
G75*
D01*
G02X148724Y-98061I1411J-646*
G01*
X148724Y-98061D01*
X161001Y-98061D01*
G74*
D01*
G02X162553Y-99613I0J1552*
G01*
X162553Y-99613D01*
X162553Y-110556D01*
G75*
D01*
G02X163964Y-109650I1411J-646*
G01*
X163964Y-109650D01*
X176241Y-109650D01*
G74*
D01*
G02X177793Y-111202I0J1552*
G01*
X177793Y-111202D01*
X177793Y-196716D01*
G75*
D01*
G02X176241Y-198268I-1552J0*
G01*
X176241Y-198268D01*
X163964Y-198268D01*
G75*
D01*
G02X162553Y-197362I0J1552*
G01*
X162553Y-197362D01*
X162553Y-204336D01*
G75*
D01*
G02X161001Y-205888I-1552J0*
G01*
X161001Y-205888D01*
X148724Y-205888D01*
G75*
D01*
G02X147313Y-204982I0J1552*
G01*
D02*
G37*
G36*
X314530Y-259935D02*
G75*
D01*
G02X312515Y-257920I0J2015*
G01*
X312515Y-257920D01*
X312515Y-239920D01*
G75*
D01*
G02X314530Y-237905I2015J0*
G01*
X314530Y-237905D01*
X326030Y-237905D01*
G74*
D01*
G02X328045Y-239920I0J2015*
G01*
X328045Y-239920D01*
X328045Y-257920D01*
G75*
D01*
G02X326030Y-259935I-2015J0*
G01*
X326030Y-259935D01*
X324113Y-259935D01*
X324113Y-273424D01*
G74*
D01*
G02X326597Y-275980I73J2556*
G01*
X326597Y-275980D01*
X326597Y-292980D01*
G75*
D01*
G02X324040Y-295537I-2557J0*
G01*
X324040Y-295537D01*
X316040Y-295537D01*
G75*
D01*
G02X313483Y-292980I0J2557*
G01*
X313483Y-292980D01*
X313483Y-288313D01*
X300660Y-288313D01*
X300660Y-293230D01*
G75*
D01*
G02X299650Y-294240I-1010J0*
G01*
X299650Y-294240D01*
X289150Y-294240D01*
G75*
D01*
G02X288140Y-293230I0J1010*
G01*
X288140Y-293230D01*
X288140Y-275730D01*
G75*
D01*
G02X289150Y-274720I1010J0*
G01*
X289150Y-274720D01*
X299650Y-274720D01*
G74*
D01*
G02X300660Y-275730I0J1010*
G01*
X300660Y-275730D01*
X300660Y-280647D01*
X313483Y-280647D01*
X313483Y-275980D01*
G75*
D01*
G02X316040Y-273423I2557J0*
G01*
X316040Y-273423D01*
X316447Y-273423D01*
X316447Y-259935D01*
X314530Y-259935D01*
D02*
G37*
G36*
X157715Y-274320D02*
G75*
D01*
G02X157715Y-274320I17545J0*
G01*
D02*
G37*
G36*
X150235Y749308D02*
G75*
D01*
G02X158353Y750584I2165J12692*
G01*
X158353Y750584D01*
X176636Y732301D01*
X271780Y732301D01*
G74*
D01*
G02X274133Y731323I0J3321*
G01*
X274133Y731323D01*
X274418Y731039D01*
G75*
D01*
G02X269523Y725659I2442J-7139*
G01*
X269523Y725659D01*
X175266Y725659D01*
G75*
D01*
G02X172912Y726632I-6J3321*
G01*
X172912Y726632D01*
X150235Y749308D01*
D02*
G37*
G36*
X257021Y485238D02*
G75*
D01*
G02X261718Y480541I7139J2442*
G01*
X261718Y480541D01*
X256353Y475177D01*
G74*
D01*
G02X254000Y474199I2353J2343*
G01*
X254000Y474199D01*
X210560Y474199D01*
G75*
D01*
G02X210560Y480841I-12440J3321*
G01*
X210560Y480841D01*
X252624Y480841D01*
X257021Y485238D01*
D02*
G37*
G36*
X304714Y576838D02*
X304714Y576838D01*
X326363Y576838D01*
X329570Y580045D01*
X329570Y627669D01*
X328900Y628339D01*
G75*
D01*
G02X329079Y636293I-6320J4121*
G01*
X329079Y636293D01*
X330197Y636293D01*
G75*
D01*
G02X330593Y636273I3J-3833*
G01*
G74*
D01*
G02X332916Y635165I393J3813*
G01*
X332916Y635165D01*
X336109Y631973D01*
G74*
D01*
G02X337237Y629257I2706J2716*
G01*
X337237Y629257D01*
X337237Y578457D01*
G75*
D01*
G02X336109Y575741I-3834J0*
G01*
X336109Y575741D01*
X330667Y570300D01*
G74*
D01*
G02X327951Y569172I2716J2705*
G01*
X327951Y569172D01*
X304714Y569172D01*
G75*
D01*
G02X304714Y576838I-6499J3833*
G01*
D02*
G37*
G36*
X134445Y340360D02*
G75*
D01*
G02X134445Y340360I12875J0*
G01*
D02*
G37*
G36*
X569900Y-105270D02*
G75*
D01*
G02X568890Y-106280I-1010J0*
G01*
X568890Y-106280D01*
X558390Y-106280D01*
G75*
D01*
G02X557380Y-105270I0J1010*
G01*
X557380Y-105270D01*
X557380Y-87770D01*
G75*
D01*
G02X558390Y-86760I1010J0*
G01*
X558390Y-86760D01*
X568890Y-86760D01*
G74*
D01*
G02X569900Y-87770I0J1010*
G01*
X569900Y-87770D01*
X569900Y-93667D01*
X578097Y-93667D01*
G75*
D01*
G02X578514Y-93689I3J-3833*
G01*
G74*
D01*
G02X580816Y-94795I414J3811*
G01*
X580816Y-94795D01*
X584271Y-98250D01*
X587860Y-98250D01*
G74*
D01*
G02X588870Y-99260I0J1010*
G01*
X588870Y-99260D01*
X588870Y-105260D01*
G75*
D01*
G02X587860Y-106270I-1010J0*
G01*
X587860Y-106270D01*
X577860Y-106270D01*
G75*
D01*
G02X576850Y-105260I0J1010*
G01*
X576850Y-105260D01*
X576850Y-101671D01*
X576512Y-101333D01*
X569900Y-101333D01*
X569900Y-105270D01*
D02*
G37*
G36*
X554155Y-131788D02*
X554155Y-131788D01*
X557380Y-128563D01*
X557380Y-118250D01*
G75*
D01*
G02X558390Y-117240I1010J0*
G01*
X558390Y-117240D01*
X568890Y-117240D01*
G74*
D01*
G02X569900Y-118250I0J1010*
G01*
X569900Y-118250D01*
X569900Y-124179D01*
X575244Y-124179D01*
X576850Y-122573D01*
X576850Y-118260D01*
G75*
D01*
G02X577860Y-117250I1010J0*
G01*
X577860Y-117250D01*
X587860Y-117250D01*
G74*
D01*
G02X588870Y-118260I0J1010*
G01*
X588870Y-118260D01*
X588870Y-124260D01*
G75*
D01*
G02X587860Y-125270I-1010J0*
G01*
X587860Y-125270D01*
X583547Y-125270D01*
X580777Y-128040D01*
G74*
D01*
G02X577500Y-130821I3277J540*
G01*
X577500Y-130821D01*
X569900Y-130821D01*
X569900Y-135750D01*
G75*
D01*
G02X568890Y-136760I-1010J0*
G01*
X568890Y-136760D01*
X566961Y-136760D01*
X566961Y-137893D01*
G75*
D01*
G02X560319Y-138128I-3081J-6887*
G01*
X560319Y-138128D01*
X560319Y-136760D01*
X558577Y-136760D01*
X557993Y-137343D01*
G74*
D01*
G02X556562Y-138190I2353J2343*
G01*
G75*
D01*
G02X555635Y-138321I-922J3190*
G01*
X555635Y-138321D01*
X555000Y-138321D01*
G75*
D01*
G02X554155Y-131788I0J3321*
G01*
D02*
G37*
G36*
X527380Y-135750D02*
X527380Y-135750D01*
X527380Y-126161D01*
X526312Y-125093D01*
X514910Y-125093D01*
G74*
D01*
G02X514340Y-125270I570J833*
G01*
X514340Y-125270D01*
X504340Y-125270D01*
G75*
D01*
G02X503330Y-124260I0J1010*
G01*
X503330Y-124260D01*
X503330Y-118260D01*
G75*
D01*
G02X504340Y-117250I1010J0*
G01*
X504340Y-117250D01*
X514340Y-117250D01*
G74*
D01*
G02X514910Y-117427I0J1010*
G01*
X514910Y-117427D01*
X527805Y-117427D01*
G75*
D01*
G02X528390Y-117240I585J-823*
G01*
X528390Y-117240D01*
X538890Y-117240D01*
G74*
D01*
G02X539900Y-118250I0J1010*
G01*
X539900Y-118250D01*
X539900Y-135750D01*
G75*
D01*
G02X538890Y-136760I-1010J0*
G01*
X538890Y-136760D01*
X528390Y-136760D01*
G75*
D01*
G02X527380Y-135750I0J1010*
G01*
D02*
G37*
G36*
X551180Y-252241D02*
G75*
D01*
G02X550169Y-252083I0J3321*
G01*
G74*
D01*
G02X548832Y-251268I1011J3163*
G01*
X548832Y-251268D01*
X525732Y-228168D01*
G75*
D01*
G02X524759Y-225811I2348J2348*
G01*
X524759Y-225811D01*
X524759Y-219295D01*
X522330Y-219295D01*
G75*
D01*
G02X520315Y-217280I0J2015*
G01*
X520315Y-217280D01*
X520315Y-199280D01*
G75*
D01*
G02X522330Y-197265I2015J0*
G01*
X522330Y-197265D01*
X524759Y-197265D01*
X524759Y-183735D01*
X522330Y-183735D01*
G75*
D01*
G02X520315Y-181720I0J2015*
G01*
X520315Y-181720D01*
X520315Y-163720D01*
G75*
D01*
G02X522330Y-161705I2015J0*
G01*
X522330Y-161705D01*
X533830Y-161705D01*
G74*
D01*
G02X535845Y-163720I0J2015*
G01*
X535845Y-163720D01*
X535845Y-167230D01*
G75*
D01*
G02X535845Y-178210I5175J-5490*
G01*
X535845Y-178210D01*
X535845Y-181720D01*
G75*
D01*
G02X533830Y-183735I-2015J0*
G01*
X533830Y-183735D01*
X531401Y-183735D01*
X531401Y-197265D01*
X533830Y-197265D01*
G74*
D01*
G02X535845Y-199280I0J2015*
G01*
X535845Y-199280D01*
X535845Y-217280D01*
G75*
D01*
G02X533830Y-219295I-2015J0*
G01*
X533830Y-219295D01*
X531401Y-219295D01*
X531401Y-224444D01*
X552556Y-245599D01*
X552780Y-245599D01*
X552780Y-240170D01*
G75*
D01*
G02X553790Y-239160I1010J0*
G01*
X553790Y-239160D01*
X564290Y-239160D01*
G74*
D01*
G02X565300Y-240170I0J1010*
G01*
X565300Y-240170D01*
X565300Y-257670D01*
G75*
D01*
G02X564290Y-258680I-1010J0*
G01*
X564290Y-258680D01*
X553790Y-258680D01*
G75*
D01*
G02X552780Y-257670I0J1010*
G01*
X552780Y-257670D01*
X552780Y-252241D01*
X551180Y-252241D01*
D02*
G37*
G36*
X534877Y-292980D02*
G75*
D01*
G02X532320Y-295537I-2557J0*
G01*
X532320Y-295537D01*
X524320Y-295537D01*
G75*
D01*
G02X521763Y-292980I0J2557*
G01*
X521763Y-292980D01*
X521763Y-275980D01*
G74*
D01*
G02X524247Y-273424I2557J0*
G01*
X524247Y-273424D01*
X524247Y-259935D01*
X522330Y-259935D01*
G75*
D01*
G02X520315Y-257920I0J2015*
G01*
X520315Y-257920D01*
X520315Y-239920D01*
G75*
D01*
G02X522330Y-237905I2015J0*
G01*
X522330Y-237905D01*
X533830Y-237905D01*
G74*
D01*
G02X535845Y-239920I0J2015*
G01*
X535845Y-239920D01*
X535845Y-257920D01*
G75*
D01*
G02X533830Y-259935I-2015J0*
G01*
X533830Y-259935D01*
X531913Y-259935D01*
X531913Y-273423D01*
X532320Y-273423D01*
G74*
D01*
G02X534877Y-275980I0J2557*
G01*
X534877Y-275980D01*
X534877Y-280647D01*
X552780Y-280647D01*
X552780Y-275730D01*
G75*
D01*
G02X553790Y-274720I1010J0*
G01*
X553790Y-274720D01*
X564290Y-274720D01*
G74*
D01*
G02X565300Y-275730I0J1010*
G01*
X565300Y-275730D01*
X565300Y-293230D01*
G75*
D01*
G02X564290Y-294240I-1010J0*
G01*
X564290Y-294240D01*
X553790Y-294240D01*
G75*
D01*
G02X552780Y-293230I0J1010*
G01*
X552780Y-293230D01*
X552780Y-288313D01*
X534877Y-288313D01*
X534877Y-292980D01*
D02*
G37*
%LPD*%
G36*
X247510Y-212420D02*
G74*
D01*
G02X248520Y-213430I0J1010*
G01*
X248520Y-213430D01*
X248520Y-223930D01*
G75*
D01*
G02X247510Y-224940I-1010J0*
G01*
X247510Y-224940D01*
X230010Y-224940D01*
G75*
D01*
G02X229000Y-223930I0J1010*
G01*
X229000Y-223930D01*
X229000Y-213430D01*
G75*
D01*
G02X230010Y-212420I1010J0*
G01*
X230010Y-212420D01*
X235439Y-212420D01*
X235439Y-127005D01*
G75*
D01*
G02X236412Y-124652I3321J5*
G01*
X236412Y-124652D01*
X256732Y-104332D01*
G75*
D01*
G02X259081Y-103359I2348J-2348*
G01*
X259081Y-103359D01*
X349179Y-103359D01*
X349179Y-96152D01*
G75*
D01*
G02X349431Y-94877I3321J7*
G01*
X349431Y-94877D01*
X352279Y-87986D01*
X352279Y-14076D01*
X332932Y5272D01*
G74*
D01*
G02X331981Y7235I2348J2348*
G01*
X331981Y7235D01*
X326280Y7235D01*
G75*
D01*
G02X324265Y9250I0J2015*
G01*
X324265Y9250D01*
X324265Y11679D01*
X310735Y11679D01*
X310735Y9250D01*
G75*
D01*
G02X308720Y7235I-2015J0*
G01*
X308720Y7235D01*
X290720Y7235D01*
G75*
D01*
G02X288705Y9250I0J2015*
G01*
X288705Y9250D01*
X288705Y11679D01*
X275175Y11679D01*
X275175Y9250D01*
G75*
D01*
G02X273160Y7235I-2015J0*
G01*
X273160Y7235D01*
X255160Y7235D01*
G75*
D01*
G02X253145Y9250I0J2015*
G01*
X253145Y9250D01*
X253145Y20750D01*
G75*
D01*
G02X255160Y22765I2015J0*
G01*
X255160Y22765D01*
X273160Y22765D01*
G74*
D01*
G02X275175Y20750I0J2015*
G01*
X275175Y20750D01*
X275175Y18321D01*
X288705Y18321D01*
X288705Y20750D01*
G75*
D01*
G02X290720Y22765I2015J0*
G01*
X290720Y22765D01*
X308720Y22765D01*
G74*
D01*
G02X310735Y20750I0J2015*
G01*
X310735Y20750D01*
X310735Y18321D01*
X311679Y18321D01*
X311679Y22492D01*
G75*
D01*
G02X312652Y24848I3321J8*
G01*
X312652Y24848D01*
X320152Y32348D01*
G75*
D01*
G02X322507Y33321I2348J-2348*
G01*
X322507Y33321D01*
X343624Y33321D01*
X349179Y38876D01*
X349179Y52492D01*
G75*
D01*
G02X349840Y54489I3321J8*
G01*
X349840Y54489D01*
X349840Y60452D01*
G75*
D01*
G02X349179Y62440I2660J1988*
G01*
X349179Y62440D01*
X349179Y108680D01*
X339350Y108680D01*
G75*
D01*
G02X338340Y109690I0J1010*
G01*
X338340Y109690D01*
X338340Y117119D01*
X285960Y117119D01*
G75*
D01*
G02X285224Y117202I0J3321*
G01*
G74*
D01*
G02X283612Y118092I736J3238*
G01*
X283612Y118092D01*
X269432Y132272D01*
G75*
D01*
G02X268459Y134630I2348J2348*
G01*
X268459Y134630D01*
X268459Y176105D01*
G75*
D01*
G02X275101Y176105I3321J6775*
G01*
X275101Y176105D01*
X275101Y135996D01*
X287336Y123761D01*
X338340Y123761D01*
X338340Y131190D01*
G75*
D01*
G02X339350Y132200I1010J0*
G01*
X339350Y132200D01*
X371850Y132200D01*
G74*
D01*
G02X372860Y131190I0J1010*
G01*
X372860Y131190D01*
X372860Y109690D01*
G75*
D01*
G02X371850Y108680I-1010J0*
G01*
X371850Y108680D01*
X355821Y108680D01*
X355821Y74200D01*
X360350Y74200D01*
G74*
D01*
G02X361360Y73190I0J1010*
G01*
X361360Y73190D01*
X361360Y51690D01*
G75*
D01*
G02X360350Y50680I-1010J0*
G01*
X360350Y50680D01*
X355821Y50680D01*
X355821Y37500D01*
G75*
D01*
G02X354843Y35147I-3321J0*
G01*
X354843Y35147D01*
X347353Y27657D01*
G74*
D01*
G02X345000Y26679I2353J2343*
G01*
X345000Y26679D01*
X323876Y26679D01*
X318321Y21124D01*
X318321Y18321D01*
X324265Y18321D01*
X324265Y20750D01*
G75*
D01*
G02X326280Y22765I2015J0*
G01*
X326280Y22765D01*
X344280Y22765D01*
G74*
D01*
G02X346295Y20750I0J2015*
G01*
X346295Y20750D01*
X346295Y9250D01*
G75*
D01*
G02X344280Y7235I-2015J0*
G01*
X344280Y7235D01*
X340361Y7235D01*
X357943Y-10347D01*
G74*
D01*
G02X358921Y-12700I2343J2353*
G01*
X358921Y-12700D01*
X358921Y-88645D01*
G75*
D01*
G02X358666Y-89921I-3321J0*
G01*
X358666Y-89921D01*
X355821Y-96804D01*
X355821Y-103359D01*
X370956Y-103359D01*
G75*
D01*
G02X384810Y-100065I7504J-781*
G01*
G75*
D01*
G02X397510Y-100065I6350J-4075*
G01*
G75*
D01*
G02X404801Y-111626I6350J-4075*
G01*
X404801Y-111626D01*
X404801Y-118078D01*
X413239Y-109640D01*
X413239Y-37817D01*
G75*
D01*
G02X407647Y-23981I-1759J7337*
G01*
X407647Y-23981D01*
X407647Y-22765D01*
X402480Y-22765D01*
G75*
D01*
G02X400465Y-20750I0J2015*
G01*
X400465Y-20750D01*
X400465Y-18321D01*
X397095Y-18321D01*
X397095Y-20750D01*
G75*
D01*
G02X395080Y-22765I-2015J0*
G01*
X395080Y-22765D01*
X389401Y-22765D01*
X389401Y-23705D01*
G75*
D01*
G02X382759Y-23705I-3321J-6775*
G01*
X382759Y-23705D01*
X382759Y-22765D01*
X377080Y-22765D01*
G75*
D01*
G02X375065Y-20750I0J2015*
G01*
X375065Y-20750D01*
X375065Y-9250D01*
G75*
D01*
G02X377080Y-7235I2015J0*
G01*
X377080Y-7235D01*
X395080Y-7235D01*
G74*
D01*
G02X397095Y-9250I0J2015*
G01*
X397095Y-9250D01*
X397095Y-11679D01*
X400465Y-11679D01*
X400465Y-9250D01*
G75*
D01*
G02X402480Y-7235I2015J0*
G01*
X402480Y-7235D01*
X420480Y-7235D01*
G74*
D01*
G02X422495Y-9250I0J2015*
G01*
X422495Y-9250D01*
X422495Y-11679D01*
X436025Y-11679D01*
X436025Y-9250D01*
G75*
D01*
G02X438040Y-7235I2015J0*
G01*
X438040Y-7235D01*
X456040Y-7235D01*
G74*
D01*
G02X458055Y-9250I0J2015*
G01*
X458055Y-9250D01*
X458055Y-20750D01*
G75*
D01*
G02X456040Y-22765I-2015J0*
G01*
X456040Y-22765D01*
X450361Y-22765D01*
X450361Y-26771D01*
X454173Y-30583D01*
X467034Y-30583D01*
G74*
D01*
G02X469534Y-32602I0J2557*
G01*
G75*
D01*
G02X472034Y-30583I2500J-538*
G01*
X472034Y-30583D01*
X475701Y-30583D01*
X475701Y-21260D01*
X473850Y-21260D01*
G75*
D01*
G02X472840Y-20250I0J1010*
G01*
X472840Y-20250D01*
X472840Y-9750D01*
G75*
D01*
G02X473850Y-8740I1010J0*
G01*
X473850Y-8740D01*
X491350Y-8740D01*
G74*
D01*
G02X492360Y-9750I0J1010*
G01*
X492360Y-9750D01*
X492360Y-20250D01*
G75*
D01*
G02X491350Y-21260I-1010J0*
G01*
X491350Y-21260D01*
X483367Y-21260D01*
X483367Y-30583D01*
X487034Y-30583D01*
G74*
D01*
G02X489591Y-33140I0J2557*
G01*
X489591Y-33140D01*
X489591Y-48140D01*
G75*
D01*
G02X487034Y-50697I-2557J0*
G01*
X487034Y-50697D01*
X472034Y-50697D01*
G75*
D01*
G02X469534Y-48678I0J2557*
G01*
G74*
D01*
G02X467034Y-50697I2500J538*
G01*
X467034Y-50697D01*
X452034Y-50697D01*
G75*
D01*
G02X449477Y-48140I0J2557*
G01*
X449477Y-48140D01*
X449477Y-35279D01*
X444692Y-30494D01*
G75*
D01*
G02X443719Y-28138I2348J2348*
G01*
X443719Y-28138D01*
X443719Y-22765D01*
X438040Y-22765D01*
G75*
D01*
G02X436025Y-20750I0J2015*
G01*
X436025Y-20750D01*
X436025Y-18321D01*
X422495Y-18321D01*
X422495Y-20750D01*
G75*
D01*
G02X420480Y-22765I-2015J0*
G01*
X420480Y-22765D01*
X415313Y-22765D01*
X415313Y-23981D01*
G75*
D01*
G02X418619Y-32922I-3833J-6499*
G01*
X418619Y-32922D01*
X418903Y-33207D01*
G74*
D01*
G02X419881Y-35560I2343J2353*
G01*
X419881Y-35560D01*
X419881Y-83173D01*
G75*
D01*
G02X432079Y-81049I6839J-3187*
G01*
X432079Y-81049D01*
X432079Y-65618D01*
G75*
D01*
G02X438721Y-64563I2261J7198*
G01*
X438721Y-64563D01*
X438721Y-146260D01*
G75*
D01*
G02X435400Y-149581I-3321J0*
G01*
X435400Y-149581D01*
X431756Y-149581D01*
G74*
D01*
G02X431766Y-149760I1526J179*
G01*
X431766Y-149760D01*
X431766Y-150477D01*
X437696Y-150477D01*
X441177Y-146996D01*
X441177Y-68583D01*
G75*
D01*
G02X441406Y-68026I783J3*
G01*
X441406Y-68026D01*
X451566Y-57866D01*
G75*
D01*
G02X452122Y-57637I554J-554*
G01*
X452122Y-57637D01*
X494976Y-57637D01*
X499597Y-53016D01*
X499597Y30156D01*
X492436Y37317D01*
X431800Y37317D01*
G75*
D01*
G02X431017Y38100I0J783*
G01*
X431017Y38100D01*
X431017Y213356D01*
G75*
D01*
G02X431246Y213913I783J4*
G01*
X431246Y213913D01*
X453877Y236544D01*
X453877Y266376D01*
X443946Y276307D01*
G75*
D01*
G02X443717Y276865I554J553*
G01*
X443717Y276865D01*
X443717Y289557D01*
G75*
D01*
G02X443947Y290114I783J3*
G01*
X443947Y290114D01*
X458957Y305124D01*
X458957Y370837D01*
G75*
D01*
G02X459186Y371393I783J3*
G01*
X459186Y371393D01*
X486897Y399104D01*
X486897Y424180D01*
G75*
D01*
G02X487680Y424963I783J0*
G01*
X487680Y424963D01*
X503032Y424963D01*
X503657Y425588D01*
X503657Y489247D01*
X490767Y502137D01*
X464820Y502137D01*
G75*
D01*
G02X464037Y502920I0J783*
G01*
X464037Y502920D01*
X464037Y520376D01*
X393146Y591267D01*
G75*
D01*
G02X392917Y591825I554J553*
G01*
X392917Y591825D01*
X392917Y622298D01*
G75*
D01*
G02X393147Y622854I783J2*
G01*
X393147Y622854D01*
X413237Y642944D01*
X413237Y731196D01*
X385526Y758907D01*
G75*
D01*
G02X385297Y759465I554J553*
G01*
X385297Y759465D01*
X385297Y817876D01*
G75*
D01*
G02X385526Y818433I783J4*
G01*
X385526Y818433D01*
X390607Y823514D01*
G75*
D01*
G02X391163Y823743I553J-554*
G01*
X391163Y823743D01*
X403536Y823743D01*
X418317Y838524D01*
X418317Y868356D01*
X413466Y873207D01*
G75*
D01*
G02X413237Y873765I554J553*
G01*
X413237Y873765D01*
X413237Y993136D01*
G75*
D01*
G02X413466Y993693I783J4*
G01*
X413466Y993693D01*
X416007Y996234D01*
G75*
D01*
G02X416563Y996463I553J-554*
G01*
X416563Y996463D01*
X418903Y996463D01*
X418903Y1000680D01*
G74*
D01*
G02X419288Y1002030I2557J0*
G01*
G75*
D01*
G02X418903Y1003380I2172J1350*
G01*
X418903Y1003380D01*
X418903Y1013380D01*
G74*
D01*
G02X419288Y1014730I2557J0*
G01*
G75*
D01*
G02X418903Y1016080I2172J1350*
G01*
X418903Y1016080D01*
X418903Y1026080D01*
G74*
D01*
G02X419288Y1027430I2557J0*
G01*
G75*
D01*
G02X418903Y1028780I2172J1350*
G01*
X418903Y1028780D01*
X418903Y1038780D01*
G74*
D01*
G02X419288Y1040130I2557J0*
G01*
G75*
D01*
G02X418903Y1041480I2172J1350*
G01*
X418903Y1041480D01*
X418903Y1046679D01*
X264017Y1046679D01*
X264017Y1041480D01*
G75*
D01*
G02X263632Y1040130I-2557J0*
G01*
G74*
D01*
G02X264017Y1038780I2172J1350*
G01*
X264017Y1038780D01*
X264017Y1037613D01*
X265281Y1037613D01*
G75*
D01*
G02X265281Y1029947I6499J-3833*
G01*
X265281Y1029947D01*
X264017Y1029947D01*
X264017Y1028780D01*
G75*
D01*
G02X263632Y1027430I-2557J0*
G01*
G74*
D01*
G02X264017Y1026080I2172J1350*
G01*
X264017Y1026080D01*
X264017Y1016080D01*
G75*
D01*
G02X263632Y1014730I-2557J0*
G01*
G74*
D01*
G02X264017Y1013380I2172J1350*
G01*
X264017Y1013380D01*
X264017Y1003380D01*
G75*
D01*
G02X263632Y1002030I-2557J0*
G01*
G74*
D01*
G02X264017Y1000680I2172J1350*
G01*
X264017Y1000680D01*
X264017Y990680D01*
G75*
D01*
G02X263632Y989330I-2557J0*
G01*
G74*
D01*
G02X264017Y987980I2172J1350*
G01*
X264017Y987980D01*
X264017Y977980D01*
G75*
D01*
G02X263632Y976630I-2557J0*
G01*
G74*
D01*
G02X264017Y975280I2172J1350*
G01*
X264017Y975280D01*
X264017Y965280D01*
G75*
D01*
G02X263632Y963930I-2557J0*
G01*
G74*
D01*
G02X264017Y962580I2172J1350*
G01*
X264017Y962580D01*
X264017Y952580D01*
G75*
D01*
G02X263632Y951230I-2557J0*
G01*
G74*
D01*
G02X264017Y949880I2172J1350*
G01*
X264017Y949880D01*
X264017Y939880D01*
G75*
D01*
G02X263632Y938530I-2557J0*
G01*
G74*
D01*
G02X264017Y937180I2172J1350*
G01*
X264017Y937180D01*
X264017Y935813D01*
X266700Y935813D01*
G74*
D01*
G02X270533Y931980I0J3833*
G01*
X270533Y931980D01*
X270533Y885508D01*
X275908Y880133D01*
X399208Y880133D01*
G75*
D01*
G02X400667Y879848I8J-3833*
G01*
G74*
D01*
G02X401932Y879005I1451J3548*
G01*
X401932Y879005D01*
X416725Y864212D01*
G74*
D01*
G02X417853Y861496I2705J2716*
G01*
X417853Y861496D01*
X417853Y840740D01*
G75*
D01*
G02X416725Y838024I-3833J0*
G01*
X416725Y838024D01*
X404036Y825335D01*
G74*
D01*
G02X401320Y824207I2716J2705*
G01*
X401320Y824207D01*
X385128Y824207D01*
X384833Y823912D01*
X384833Y758508D01*
X411645Y731696D01*
G74*
D01*
G02X412773Y728980I2705J2716*
G01*
X412773Y728980D01*
X412773Y645160D01*
G75*
D01*
G02X411645Y642444I-3833J0*
G01*
X411645Y642444D01*
X392453Y623252D01*
X392453Y588328D01*
X462445Y518336D01*
G74*
D01*
G02X463573Y515620I2705J2716*
G01*
X463573Y515620D01*
X463573Y501968D01*
X463868Y501673D01*
X487675Y501673D01*
G75*
D01*
G02X488663Y501545I5J-3833*
G01*
G74*
D01*
G02X490396Y500545I983J3705*
G01*
X490396Y500545D01*
X500545Y490396D01*
G74*
D01*
G02X501673Y487680I2705J2716*
G01*
X501673Y487680D01*
X501673Y431800D01*
G75*
D01*
G02X497840Y427967I-3833J0*
G01*
X497840Y427967D01*
X481353Y427967D01*
X481353Y401320D01*
G75*
D01*
G02X480225Y398604I-3833J0*
G01*
X480225Y398604D01*
X453413Y371792D01*
X453413Y312420D01*
G75*
D01*
G02X452285Y309704I-3833J0*
G01*
X452285Y309704D01*
X435633Y293052D01*
X435633Y270828D01*
X444665Y261796D01*
G74*
D01*
G02X445793Y259080I2705J2716*
G01*
X445793Y259080D01*
X445793Y250339D01*
G75*
D01*
G02X438127Y250339I-3833J-6499*
G01*
X438127Y250339D01*
X438127Y257492D01*
X429089Y266529D01*
G74*
D01*
G02X428013Y268642I2711J2711*
G01*
X428013Y268642D01*
X428013Y149860D01*
G75*
D01*
G02X424180Y146027I-3833J0*
G01*
X424180Y146027D01*
X417979Y146027D01*
G75*
D01*
G02X417979Y153693I-6499J3833*
G01*
X417979Y153693D01*
X420347Y153693D01*
X420347Y299715D01*
G75*
D01*
G02X421469Y302431I3833J5*
G01*
X421469Y302431D01*
X438127Y319088D01*
X438127Y378452D01*
G75*
D01*
G02X439249Y381171I3833J8*
G01*
X439249Y381171D01*
X463527Y405448D01*
X463527Y436872D01*
G75*
D01*
G02X464649Y439591I3833J8*
G01*
X464649Y439591D01*
X467189Y442131D01*
G74*
D01*
G02X469302Y443207I2711J2711*
G01*
X469302Y443207D01*
X466408Y443207D01*
X461033Y437832D01*
X461033Y408940D01*
G75*
D01*
G02X459905Y406224I-3833J0*
G01*
X459905Y406224D01*
X435633Y381952D01*
X435633Y325120D01*
G75*
D01*
G02X434505Y322404I-3833J0*
G01*
X434505Y322404D01*
X415313Y303212D01*
X415313Y191919D01*
G75*
D01*
G02X407647Y191919I-3833J-6499*
G01*
X407647Y191919D01*
X407647Y200532D01*
G74*
D01*
G02X406565Y198414I3787J598*
G01*
X406565Y198414D01*
X375714Y167563D01*
X375714Y167563D01*
X372051Y163900D01*
G74*
D01*
G02X369335Y162772I2716J2705*
G01*
X369335Y162772D01*
X358054Y162772D01*
G75*
D01*
G02X344022Y166176I-6499J3833*
G01*
X344022Y166176D01*
X342636Y167563D01*
X342636Y167563D01*
X313372Y196827D01*
X303595Y196827D01*
X310205Y190216D01*
G74*
D01*
G02X311333Y187500I2705J2716*
G01*
X311333Y187500D01*
X311333Y151588D01*
X316588Y146333D01*
X374993Y146333D01*
G75*
D01*
G02X376401Y146068I7J-3833*
G01*
G74*
D01*
G02X377716Y145205I1401J3568*
G01*
X377716Y145205D01*
X385205Y137716D01*
G74*
D01*
G02X386333Y135000I2705J2716*
G01*
X386333Y135000D01*
X386333Y75000D01*
G75*
D01*
G02X385205Y72284I-3833J0*
G01*
X385205Y72284D01*
X384360Y71439D01*
X384360Y51690D01*
G75*
D01*
G02X383350Y50680I-1010J0*
G01*
X383350Y50680D01*
X378833Y50680D01*
X378833Y26325D01*
G74*
D01*
G02X379981Y26068I253J3825*
G01*
G74*
D01*
G02X381296Y25205I1401J3568*
G01*
X381296Y25205D01*
X383737Y22765D01*
X395080Y22765D01*
G74*
D01*
G02X397095Y20750I0J2015*
G01*
X397095Y20750D01*
X397095Y18833D01*
X400465Y18833D01*
X400465Y20750D01*
G75*
D01*
G02X402480Y22765I2015J0*
G01*
X402480Y22765D01*
X420480Y22765D01*
G74*
D01*
G02X422495Y20750I0J2015*
G01*
X422495Y20750D01*
X422495Y18833D01*
X436025Y18833D01*
X436025Y20750D01*
G75*
D01*
G02X438040Y22765I2015J0*
G01*
X438040Y22765D01*
X456040Y22765D01*
G74*
D01*
G02X458055Y20750I0J2015*
G01*
X458055Y20750D01*
X458055Y18833D01*
X472840Y18833D01*
X472840Y20250D01*
G75*
D01*
G02X473850Y21260I1010J0*
G01*
X473850Y21260D01*
X491350Y21260D01*
G74*
D01*
G02X492360Y20250I0J1010*
G01*
X492360Y20250D01*
X492360Y9750D01*
G75*
D01*
G02X491350Y8740I-1010J0*
G01*
X491350Y8740D01*
X473850Y8740D01*
G75*
D01*
G02X472840Y9750I0J1010*
G01*
X472840Y9750D01*
X472840Y11167D01*
X458055Y11167D01*
X458055Y9250D01*
G75*
D01*
G02X456040Y7235I-2015J0*
G01*
X456040Y7235D01*
X438040Y7235D01*
G75*
D01*
G02X436025Y9250I0J2015*
G01*
X436025Y9250D01*
X436025Y11167D01*
X422495Y11167D01*
X422495Y9250D01*
G75*
D01*
G02X420480Y7235I-2015J0*
G01*
X420480Y7235D01*
X402480Y7235D01*
G75*
D01*
G02X400465Y9250I0J2015*
G01*
X400465Y9250D01*
X400465Y11167D01*
X397095Y11167D01*
X397095Y9250D01*
G75*
D01*
G02X395080Y7235I-2015J0*
G01*
X395080Y7235D01*
X377080Y7235D01*
G75*
D01*
G02X375065Y9250I0J2015*
G01*
X375065Y9250D01*
X375065Y18667D01*
X375000Y18667D01*
G75*
D01*
G02X371167Y22500I0J3833*
G01*
X371167Y22500D01*
X371167Y52493D01*
G75*
D01*
G02X372289Y55211I3833J7*
G01*
X372289Y55211D01*
X372840Y55761D01*
X372840Y73190D01*
G75*
D01*
G02X373850Y74200I1010J0*
G01*
X373850Y74200D01*
X376279Y74200D01*
X378667Y76588D01*
X378667Y133412D01*
X373412Y138667D01*
X315000Y138667D01*
G75*
D01*
G02X314781Y138673I0J3833*
G01*
G74*
D01*
G02X312289Y139789I219J3827*
G01*
X312289Y139789D01*
X304789Y147289D01*
G75*
D01*
G02X303667Y150011I2711J2711*
G01*
X303667Y150011D01*
X303667Y185912D01*
X298412Y191167D01*
X233488Y191167D01*
X228833Y186512D01*
X228833Y-227162D01*
X230338Y-228667D01*
X249662Y-228667D01*
X251167Y-227162D01*
X251167Y-176259D01*
G75*
D01*
G02X252289Y-173539I3833J9*
G01*
X252289Y-173539D01*
X256039Y-169789D01*
G75*
D01*
G02X258757Y-168667I2711J-2711*
G01*
X258757Y-168667D01*
X281167Y-168667D01*
X281167Y-139570D01*
X273810Y-139570D01*
G75*
D01*
G02X272800Y-138560I0J1010*
G01*
X272800Y-138560D01*
X272800Y-116560D01*
G75*
D01*
G02X273810Y-115550I1010J0*
G01*
X273810Y-115550D01*
X305310Y-115550D01*
G74*
D01*
G02X306320Y-116560I0J1010*
G01*
X306320Y-116560D01*
X306320Y-138560D01*
G75*
D01*
G02X305310Y-139570I-1010J0*
G01*
X305310Y-139570D01*
X288833Y-139570D01*
X288833Y-168667D01*
X320912Y-168667D01*
X326167Y-163412D01*
X326167Y-142508D01*
G75*
D01*
G02X327289Y-139789I3833J8*
G01*
X327289Y-139789D01*
X334789Y-132289D01*
G75*
D01*
G02X337507Y-131167I2711J-2711*
G01*
X337507Y-131167D01*
X376736Y-131167D01*
G74*
D01*
G02X380133Y-133224I0J3833*
G01*
X380133Y-133224D01*
X382230Y-133224D01*
G74*
D01*
G02X383569Y-134006I0J1536*
G01*
G74*
D01*
G02X384127Y-133260I1451J504*
G01*
G75*
D01*
G02X383484Y-132010I893J1250*
G01*
X383484Y-132010D01*
X383484Y-128920D01*
X381233Y-126669D01*
G74*
D01*
G02X380152Y-125948I1267J3069*
G01*
X380152Y-125948D01*
X373572Y-119368D01*
G75*
D01*
G02X372599Y-117012I2348J2348*
G01*
X372599Y-117012D01*
X372599Y-110001D01*
X260456Y-110001D01*
X242081Y-128376D01*
X242081Y-212420D01*
X247510Y-212420D01*
D02*
G37*
%LPC*%
G36*
X324265Y-9250D02*
G75*
D01*
G02X326280Y-7235I2015J0*
G01*
X326280Y-7235D01*
X344280Y-7235D01*
G74*
D01*
G02X346295Y-9250I0J2015*
G01*
X346295Y-9250D01*
X346295Y-20750D01*
G75*
D01*
G02X344280Y-22765I-2015J0*
G01*
X344280Y-22765D01*
X338601Y-22765D01*
X338601Y-26245D01*
G75*
D01*
G02X331959Y-26245I-3321J-6775*
G01*
X331959Y-26245D01*
X331959Y-22765D01*
X326280Y-22765D01*
G75*
D01*
G02X324265Y-20750I0J2015*
G01*
X324265Y-20750D01*
X324265Y-18321D01*
X310735Y-18321D01*
X310735Y-20750D01*
G75*
D01*
G02X308720Y-22765I-2015J0*
G01*
X308720Y-22765D01*
X290720Y-22765D01*
G75*
D01*
G02X288705Y-20750I0J2015*
G01*
X288705Y-20750D01*
X288705Y-18321D01*
X275175Y-18321D01*
X275175Y-20750D01*
G75*
D01*
G02X273160Y-22765I-2015J0*
G01*
X273160Y-22765D01*
X255160Y-22765D01*
G75*
D01*
G02X253145Y-20750I0J2015*
G01*
X253145Y-20750D01*
X253145Y-9250D01*
G75*
D01*
G02X255160Y-7235I2015J0*
G01*
X255160Y-7235D01*
X273160Y-7235D01*
G74*
D01*
G02X275175Y-9250I0J2015*
G01*
X275175Y-9250D01*
X275175Y-11679D01*
X288705Y-11679D01*
X288705Y-9250D01*
G75*
D01*
G02X290720Y-7235I2015J0*
G01*
X290720Y-7235D01*
X308720Y-7235D01*
G74*
D01*
G02X310735Y-9250I0J2015*
G01*
X310735Y-9250D01*
X310735Y-11679D01*
X324265Y-11679D01*
X324265Y-9250D01*
D02*
G37*
G36*
X316775Y83321D02*
X316775Y83321D01*
X325994Y83321D01*
G75*
D01*
G02X326991Y83170I6J-3321*
G01*
G74*
D01*
G02X328353Y82343I991J3170*
G01*
X328353Y82343D01*
X330343Y80353D01*
G74*
D01*
G02X331321Y78000I2343J2353*
G01*
X331321Y78000D01*
X331321Y75376D01*
X332497Y74200D01*
X337350Y74200D01*
G74*
D01*
G02X338360Y73190I0J1010*
G01*
X338360Y73190D01*
X338360Y51690D01*
G75*
D01*
G02X337350Y50680I-1010J0*
G01*
X337350Y50680D01*
X335921Y50680D01*
X335921Y50022D01*
G75*
D01*
G02X329279Y49884I-3181J-6842*
G01*
X329279Y49884D01*
X329279Y50680D01*
X327850Y50680D01*
G75*
D01*
G02X326840Y51690I0J1010*
G01*
X326840Y51690D01*
X326840Y70463D01*
X325652Y71652D01*
G75*
D01*
G02X324679Y74010I2348J2348*
G01*
X324679Y74010D01*
X324679Y76624D01*
X324624Y76679D01*
X316775Y76679D01*
G75*
D01*
G02X316775Y83321I-6775J3321*
G01*
D02*
G37*
%LPD*%
G36*
X444017Y886380D02*
X444017Y886380D01*
X444017Y876380D01*
G75*
D01*
G02X441460Y873823I-2557J0*
G01*
X441460Y873823D01*
X434642Y873823D01*
G74*
D01*
G02X434165Y873244I3182J2137*
G01*
X434165Y873244D01*
X428013Y867092D01*
X428013Y835660D01*
G75*
D01*
G02X426885Y832944I-3833J0*
G01*
X426885Y832944D01*
X410062Y816121D01*
X420264Y816121D01*
X424661Y820518D01*
G75*
D01*
G02X429358Y815821I7139J2442*
G01*
X429358Y815821D01*
X423993Y810457D01*
G74*
D01*
G02X421640Y809479I2353J2343*
G01*
X421640Y809479D01*
X400156Y809479D01*
X399561Y808884D01*
X399561Y765916D01*
X426523Y738953D01*
G74*
D01*
G02X427501Y736600I2343J2353*
G01*
X427501Y736600D01*
X427501Y706767D01*
G75*
D01*
G02X436782Y710719I6839J-3187*
G01*
X436782Y710719D01*
X449772Y723708D01*
G74*
D01*
G02X450948Y724467I2348J2348*
G01*
G75*
D01*
G02X452120Y724681I1172J-3107*
G01*
X452120Y724681D01*
X543805Y724681D01*
G74*
D01*
G02X550399Y731275I7270J676*
G01*
X550399Y731275D01*
X550399Y927090D01*
G75*
D01*
G02X551372Y929448I3321J10*
G01*
X551372Y929448D01*
X569449Y947526D01*
X569449Y1081934D01*
X563478Y1087906D01*
G74*
D01*
G02X556365Y1082254I7113J1649*
G01*
X556365Y1082254D01*
X551075Y1082254D01*
G75*
D01*
G02X543805Y1088879I0J7301*
G01*
X543805Y1088879D01*
X539856Y1088879D01*
X531641Y1080664D01*
X531641Y1052304D01*
G75*
D01*
G02X530663Y1049951I-3321J0*
G01*
X530663Y1049951D01*
X524849Y1044137D01*
G74*
D01*
G02X522677Y1043164I2353J2343*
G01*
G75*
D01*
G02X522494Y1043159I-181J3316*
G01*
X522494Y1043159D01*
X455307Y1043159D01*
G75*
D01*
G02X445621Y1032487I-3187J-6839*
G01*
X445621Y1032487D01*
X444017Y1032487D01*
X444017Y1028780D01*
G75*
D01*
G02X443632Y1027430I-2557J0*
G01*
G74*
D01*
G02X444017Y1026080I2172J1350*
G01*
X444017Y1026080D01*
X444017Y1024913D01*
X445621Y1024913D01*
G75*
D01*
G02X456195Y1014730I6499J-3833*
G01*
G75*
D01*
G02X445345Y1005059I-4075J-6350*
G01*
X445345Y1005059D01*
X444017Y1005059D01*
X444017Y1003380D01*
G75*
D01*
G02X443632Y1002030I-2557J0*
G01*
G74*
D01*
G02X444017Y1000680I2172J1350*
G01*
X444017Y1000680D01*
X444017Y990680D01*
G75*
D01*
G02X443632Y989330I-2557J0*
G01*
G74*
D01*
G02X444017Y987980I2172J1350*
G01*
X444017Y987980D01*
X444017Y986813D01*
X445621Y986813D01*
G75*
D01*
G02X445621Y979147I6499J-3833*
G01*
X445621Y979147D01*
X444017Y979147D01*
X444017Y977980D01*
G75*
D01*
G02X443632Y976630I-2557J0*
G01*
G74*
D01*
G02X444017Y975280I2172J1350*
G01*
X444017Y975280D01*
X444017Y965280D01*
G75*
D01*
G02X443632Y963930I-2557J0*
G01*
G74*
D01*
G02X443689Y963833I2172J1350*
G01*
X443689Y963833D01*
X500552Y963833D01*
X528667Y991948D01*
X528667Y1037651D01*
G75*
D01*
G02X529789Y1040371I3833J9*
G01*
X529789Y1040371D01*
X534749Y1045331D01*
G74*
D01*
G02X536020Y1046173I2711J2711*
G01*
G75*
D01*
G02X537460Y1046453I1440J-3553*
G01*
X537460Y1046453D01*
X544705Y1046453D01*
G75*
D01*
G02X543721Y1038787I9015J-5053*
G01*
X543721Y1038787D01*
X539048Y1038787D01*
X536333Y1036072D01*
X536333Y990360D01*
G75*
D01*
G02X535205Y987644I-3833J0*
G01*
X535205Y987644D01*
X504856Y957295D01*
G74*
D01*
G02X503454Y956399I2716J2705*
G01*
G75*
D01*
G02X502133Y956167I-1314J3601*
G01*
X502133Y956167D01*
X444017Y956167D01*
X444017Y952580D01*
G75*
D01*
G02X443632Y951230I-2557J0*
G01*
G74*
D01*
G02X444017Y949880I2172J1350*
G01*
X444017Y949880D01*
X444017Y948833D01*
X497892Y948833D01*
X542369Y993311D01*
G74*
D01*
G02X543673Y994166I2711J2711*
G01*
G74*
D01*
G02X544069Y994298I1407J3566*
G01*
G75*
D01*
G02X544982Y985081I9651J-3698*
G01*
X544982Y985081D01*
X502196Y942295D01*
G74*
D01*
G02X499680Y941172I2716J2705*
G01*
G75*
D01*
G02X499478Y941167I-200J3828*
G01*
X499478Y941167D01*
X444017Y941167D01*
X444017Y939880D01*
G75*
D01*
G02X443632Y938530I-2557J0*
G01*
G74*
D01*
G02X444017Y937180I2172J1350*
G01*
X444017Y937180D01*
X444017Y933833D01*
X500312Y933833D01*
X534269Y967791D01*
G74*
D01*
G02X535899Y968758I2711J2711*
G01*
G75*
D01*
G02X536980Y968913I1081J-3678*
G01*
X536980Y968913D01*
X544075Y968913D01*
G75*
D01*
G02X544171Y961247I9645J-3713*
G01*
X544171Y961247D01*
X538568Y961247D01*
X504616Y927295D01*
G74*
D01*
G02X502743Y926260I2716J2705*
G01*
G75*
D01*
G02X501895Y926167I-843J3740*
G01*
X501895Y926167D01*
X443808Y926167D01*
G74*
D01*
G02X443632Y925830I2348J1013*
G01*
G74*
D01*
G02X444017Y924480I2172J1350*
G01*
X444017Y924480D01*
X444017Y914480D01*
G75*
D01*
G02X443632Y913130I-2557J0*
G01*
G74*
D01*
G02X444017Y911780I2172J1350*
G01*
X444017Y911780D01*
X444017Y901780D01*
G75*
D01*
G02X443632Y900430I-2557J0*
G01*
G74*
D01*
G02X444017Y899080I2172J1350*
G01*
X444017Y899080D01*
X444017Y889080D01*
G75*
D01*
G02X443632Y887730I-2557J0*
G01*
G74*
D01*
G02X444017Y886380I2172J1350*
G01*
D02*
G37*
%LPC*%
G36*
X543385Y1066800D02*
G75*
D01*
G02X543385Y1066800I10335J0*
G01*
D02*
G37*
G36*
X543385Y1016000D02*
G75*
D01*
G02X543385Y1016000I10335J0*
G01*
D02*
G37*
G36*
X473285Y798341D02*
G75*
D01*
G02X473285Y791699I6775J-3321*
G01*
X473285Y791699D01*
X425875Y791699D01*
G75*
D01*
G02X425875Y798341I-6775J3321*
G01*
X425875Y798341D01*
X473285Y798341D01*
D02*
G37*
%LPD*%
G36*
X409132Y597092D02*
G75*
D01*
G02X408159Y599450I2348J2348*
G01*
X408159Y599450D01*
X408159Y616822D01*
X407181Y615844D01*
X407181Y598276D01*
X477323Y528133D01*
G74*
D01*
G02X478301Y525780I2343J2353*
G01*
X478301Y525780D01*
X478301Y516401D01*
X495293Y516401D01*
G75*
D01*
G02X496512Y516172I7J-3321*
G01*
G74*
D01*
G02X497653Y515423I1212J3092*
G01*
X497653Y515423D01*
X516943Y496133D01*
G74*
D01*
G02X517379Y495598I2343J2353*
G01*
X517379Y495598D01*
X517379Y496464D01*
X493924Y519919D01*
X482600Y519919D01*
G75*
D01*
G02X479279Y523240I0J3321*
G01*
X479279Y523240D01*
X479279Y526944D01*
X409132Y597092D01*
D02*
G37*
G36*
X446869Y376091D02*
X446869Y376091D01*
X473687Y402908D01*
X473687Y431800D01*
G74*
D01*
G02X476922Y435587I3833J0*
G01*
X476922Y435587D01*
X471488Y435587D01*
X471193Y435292D01*
X471193Y403860D01*
G75*
D01*
G02X470065Y401144I-3833J0*
G01*
X470065Y401144D01*
X445793Y376872D01*
X445793Y373978D01*
G74*
D01*
G02X446869Y376091I3787J598*
G01*
D02*
G37*
G36*
X394947Y715543D02*
G74*
D01*
G03X393131Y716862I5292J5378*
G01*
G74*
D01*
G03X392360Y717961I3476J1617*
G01*
X392360Y717961D01*
X367053Y743268D01*
X367053Y745461D01*
G74*
D01*
G03X368129Y743350I3787J599*
G01*
X368129Y743350D01*
X394947Y716532D01*
X394947Y715543D01*
D02*
G37*
G36*
X399833Y722506D02*
G74*
D01*
G03X399808Y722513I1053J3686*
G01*
X399808Y722513D01*
X374673Y747648D01*
X374673Y747666D01*
X399833Y722506D01*
D02*
G37*
G36*
X405045Y865050D02*
X405045Y865050D01*
X410187Y859908D01*
X410187Y842328D01*
X399732Y831873D01*
X394298Y831873D01*
G74*
D01*
G03X394389Y831889I598J3787*
G01*
G74*
D01*
G03X396416Y832955I689J3771*
G01*
X396416Y832955D01*
X400215Y836754D01*
G75*
D01*
G03X401343Y839470I-2705J2716*
G01*
X401343Y839470D01*
X401343Y842153D01*
X402510Y842153D01*
G75*
D01*
G03X405067Y844710I0J2557*
G01*
X405067Y844710D01*
X405067Y864710D01*
G74*
D01*
G03X405045Y865050I2557J0*
G01*
D02*
G37*
G36*
X419881Y-89547D02*
G74*
D01*
G03X422159Y-92370I6839J3187*
G01*
X422159Y-92370D01*
X422159Y-133224D01*
X420730Y-133224D01*
G75*
D01*
G03X419744Y-133582I0J-1536*
G01*
G74*
D01*
G03X419082Y-133080I1224J928*
G01*
G75*
D01*
G03X419516Y-132010I-1102J1070*
G01*
X419516Y-132010D01*
X419516Y-122510D01*
G74*
D01*
G03X417980Y-120974I1536J0*
G01*
X417980Y-120974D01*
X414980Y-120974D01*
G75*
D01*
G03X413980Y-121344I0J-1536*
G01*
G74*
D01*
G03X412980Y-120974I1000J1166*
G01*
X412980Y-120974D01*
X411299Y-120974D01*
X418903Y-113369D01*
G75*
D01*
G03X419881Y-111016I-2343J2353*
G01*
X419881Y-111016D01*
X419881Y-89547D01*
D02*
G37*
G36*
X444665Y314784D02*
X444665Y314784D01*
X428013Y298132D01*
X428013Y295238D01*
G74*
D01*
G02X429089Y297351I3787J598*
G01*
X429089Y297351D01*
X445747Y314008D01*
X445747Y316902D01*
G74*
D01*
G02X444665Y314784I3787J598*
G01*
D02*
G37*
G36*
X317676Y203365D02*
G74*
D01*
G03X315558Y204447I2716J2705*
G01*
X315558Y204447D01*
X318452Y204447D01*
X335594Y187305D01*
G74*
D01*
G03X335360Y185682I7306J1885*
G01*
X335360Y185682D01*
X317676Y203365D01*
D02*
G37*
G36*
X477685Y475156D02*
G74*
D01*
G02X478813Y472440I2705J2716*
G01*
X478813Y472440D01*
X478813Y468779D01*
G74*
D01*
G02X481215Y466528I3833J6499*
G01*
X481215Y466528D01*
X481215Y481103D01*
X478472Y483847D01*
X467958Y483847D01*
G74*
D01*
G02X468492Y483722I598J3787*
G01*
G74*
D01*
G02X470076Y482765I1132J3662*
G01*
X470076Y482765D01*
X477685Y475156D01*
D02*
G37*
G36*
X427501Y700393D02*
X427501Y700393D01*
X427501Y637938D01*
X431019Y641456D01*
X431019Y696805D01*
G74*
D01*
G02X427501Y700393I3321J6775*
G01*
D02*
G37*
G36*
X379241Y-111644D02*
G74*
D01*
G03X384810Y-108215I781J7504*
G01*
G74*
D01*
G03X387839Y-110915I6350J4075*
G01*
X387839Y-110915D01*
X387839Y-111751D01*
G75*
D01*
G03X388812Y-114108I3321J-9*
G01*
X388812Y-114108D01*
X393159Y-118456D01*
X393159Y-120984D01*
G74*
D01*
G03X392980Y-120974I179J1526*
G01*
X392980Y-120974D01*
X389980Y-120974D01*
G75*
D01*
G03X389000Y-121327I0J-1536*
G01*
G74*
D01*
G03X388020Y-120974I980J1183*
G01*
X388020Y-120974D01*
X385020Y-120974D01*
G75*
D01*
G03X384933Y-120976I0J-1536*
G01*
X384933Y-120976D01*
X383618Y-119661D01*
G74*
D01*
G03X382537Y-118940I2348J2349*
G01*
X382537Y-118940D01*
X379241Y-115644D01*
X379241Y-111644D01*
D02*
G37*
G36*
X428801Y-93612D02*
G74*
D01*
G03X432079Y-91671I2081J7252*
G01*
X432079Y-91671D01*
X432079Y-142939D01*
X431756Y-142939D01*
G75*
D01*
G03X431766Y-142760I-1526J179*
G01*
X431766Y-142760D01*
X431766Y-139760D01*
G74*
D01*
G03X431396Y-138760I1536J0*
G01*
G75*
D01*
G03X431766Y-137760I-1166J1000*
G01*
X431766Y-137760D01*
X431766Y-134760D01*
G74*
D01*
G03X430230Y-133224I1536J0*
G01*
X430230Y-133224D01*
X428801Y-133224D01*
X428801Y-93612D01*
D02*
G37*
G36*
X377110Y842153D02*
G74*
D01*
G03X378460Y842538I0J2557*
G01*
G75*
D01*
G03X379810Y842153I1350J2172*
G01*
X379810Y842153D01*
X389810Y842153D01*
G74*
D01*
G03X391160Y842538I0J2557*
G01*
G75*
D01*
G03X392510Y842153I1350J2172*
G01*
X392510Y842153D01*
X393677Y842153D01*
X393677Y841058D01*
X392112Y839493D01*
X381000Y839493D01*
G75*
D01*
G03X380440Y839452I0J-3833*
G01*
G74*
D01*
G03X378289Y838371I560J3792*
G01*
X378289Y838371D01*
X374673Y834754D01*
X374673Y842153D01*
X377110Y842153D01*
D02*
G37*
G36*
X485647Y443253D02*
X485647Y443253D01*
X488927Y443253D01*
X488927Y481012D01*
X488882Y481057D01*
X488882Y447040D01*
G75*
D01*
G02X485647Y443253I-3833J0*
G01*
D02*
G37*
G36*
X445793Y492162D02*
X445793Y492162D01*
X445793Y487472D01*
X449372Y483893D01*
X454062Y483893D01*
G74*
D01*
G02X451949Y484969I598J3787*
G01*
X451949Y484969D01*
X446869Y490049D01*
G74*
D01*
G02X445793Y492162I2711J2711*
G01*
D02*
G37*
G36*
X265131Y-176333D02*
X265131Y-176333D01*
X260338Y-176333D01*
X258833Y-177838D01*
X258833Y-182631D01*
G74*
D01*
G02X259789Y-181039I3667J1119*
G01*
X259789Y-181039D01*
X263539Y-177289D01*
G74*
D01*
G02X265131Y-176333I2711J2711*
G01*
D02*
G37*
G36*
X445345Y1011701D02*
G74*
D01*
G02X448045Y1014730I6775J3321*
G01*
G74*
D01*
G02X445621Y1017247I4075J6350*
G01*
X445621Y1017247D01*
X444017Y1017247D01*
X444017Y1016080D01*
G75*
D01*
G02X443632Y1014730I-2557J0*
G01*
G74*
D01*
G02X444017Y1013380I2172J1350*
G01*
X444017Y1013380D01*
X444017Y1011701D01*
X445345Y1011701D01*
D02*
G37*
G36*
X394829Y-110733D02*
G74*
D01*
G03X397510Y-108215I3669J6593*
G01*
G74*
D01*
G03X398159Y-109082I6350J4075*
G01*
X398159Y-109082D01*
X398159Y-114062D01*
X394829Y-110733D01*
D02*
G37*
G36*
X445621Y1040153D02*
G74*
D01*
G02X448933Y1043159I6499J3833*
G01*
X448933Y1043159D01*
X444017Y1043159D01*
X444017Y1041480D01*
G75*
D01*
G02X443646Y1040153I-2557J0*
G01*
X443646Y1040153D01*
X445621Y1040153D01*
D02*
G37*
G36*
X423552Y-239772D02*
G74*
D01*
G02X421256Y-240910I4452J6092*
G01*
X421256Y-240910D01*
X421256Y-242624D01*
G74*
D01*
G02X422087Y-241237I3179J961*
G01*
X422087Y-241237D01*
X423552Y-239772D01*
D02*
G37*
G36*
X394993Y813752D02*
X394993Y813752D01*
X394993Y813710D01*
X395330Y814047D01*
X395288Y814047D01*
X394993Y813752D01*
D02*
G37*
G36*
X494007Y435795D02*
G74*
D01*
G02X493358Y435633I1247J3625*
G01*
X493358Y435633D01*
X494007Y435633D01*
X494007Y435795D01*
D02*
G37*
G36*
X445646Y509053D02*
G74*
D01*
G02X445747Y508598I3686J1053*
G01*
X445747Y508598D01*
X445747Y508952D01*
X445646Y509053D01*
D02*
G37*
G36*
X382487Y831726D02*
X382487Y831726D01*
X382588Y831827D01*
X382942Y831827D01*
G74*
D01*
G03X382487Y831726I598J3787*
G01*
D02*
G37*
G36*
X383484Y-158648D02*
X383484Y-158648D01*
X383484Y-158872D01*
G74*
D01*
G03X383396Y-158760I1254J888*
G01*
G74*
D01*
G03X383484Y-158648I1166J1000*
G01*
D02*
G37*
G36*
X383396Y-163760D02*
G74*
D01*
G03X383484Y-163648I1166J1000*
G01*
X383484Y-163648D01*
X383484Y-163872D01*
G74*
D01*
G03X383396Y-163760I1254J888*
G01*
D02*
G37*
G36*
X383396Y-138760D02*
G74*
D01*
G03X383484Y-138648I1166J1000*
G01*
X383484Y-138648D01*
X383484Y-138872D01*
G74*
D01*
G03X383396Y-138760I1254J888*
G01*
D02*
G37*
G36*
X383396Y-148760D02*
G74*
D01*
G03X383484Y-148648I1166J1000*
G01*
X383484Y-148648D01*
X383484Y-148872D01*
G74*
D01*
G03X383396Y-148760I1254J888*
G01*
D02*
G37*
G36*
X383396Y-153760D02*
G74*
D01*
G03X383484Y-153648I1166J1000*
G01*
X383484Y-153648D01*
X383484Y-153872D01*
G74*
D01*
G03X383396Y-153760I1254J888*
G01*
D02*
G37*
G36*
X383396Y-143760D02*
G74*
D01*
G02X383484Y-143872I1166J1000*
G01*
X383484Y-143872D01*
X383484Y-143648D01*
G74*
D01*
G02X383396Y-143760I1254J888*
G01*
D02*
G37*
G54D11*
X419685Y1053321D02*
G75*
D01*
G02X421460Y1054037I1775J-1841*
G01*
X441460Y1054037D01*
G74*
D01*
G02X444017Y1051480I0J2557*
G01*
X444017Y1049801D01*
X521120Y1049801D01*
X524999Y1053680D01*
X524999Y1082030D01*
G75*
D01*
G02X525972Y1084388I3321J10*
G01*
X536132Y1094548D01*
G74*
D01*
G02X537653Y1095416I2348J2348*
G01*
G75*
D01*
G02X538480Y1095521I827J-3216*
G01*
X543805Y1095521D01*
G75*
D01*
G02X551075Y1102146I7270J-676*
G01*
X556365Y1102146D01*
G74*
D01*
G02X563635Y1095521I0J7301*
G01*
X563880Y1095521D01*
G74*
D01*
G02X566233Y1094543I0J3321*
G01*
X575113Y1085663D01*
G74*
D01*
G02X576091Y1083310I2343J2353*
G01*
X576091Y946150D01*
G75*
D01*
G02X575113Y943797I-3321J0*
G01*
X557041Y925724D01*
X557041Y731275D01*
G74*
D01*
G02X563666Y724005I676J7270*
G01*
X563666Y718715D01*
G75*
D01*
G02X556365Y711414I-7301J0*
G01*
X551075Y711414D01*
G75*
D01*
G02X543805Y718039I0J7301*
G01*
X453496Y718039D01*
X441479Y706022D01*
G75*
D01*
G02X437661Y696805I-7139J-2442*
G01*
X437661Y640080D01*
G75*
D01*
G02X436683Y637727I-3321J0*
G01*
X414801Y615844D01*
X414801Y600816D01*
X484943Y530673D01*
G74*
D01*
G02X485921Y528320I2343J2353*
G01*
X485921Y526561D01*
X495294Y526561D01*
G75*
D01*
G02X496409Y526370I6J-3321*
G01*
G74*
D01*
G02X497653Y525583I1109J3130*
G01*
X523043Y500193D01*
G74*
D01*
G02X524021Y497840I2343J2353*
G01*
X524021Y493158D01*
X525972Y495108D01*
G75*
D01*
G02X528326Y496081I2348J-2348*
G01*
X543805Y496081D01*
G75*
D01*
G02X551075Y502706I7270J-676*
G01*
X556365Y502706D01*
G74*
D01*
G02X563666Y495405I0J7301*
G01*
X563666Y490115D01*
G75*
D01*
G02X556365Y482814I-7301J0*
G01*
X551075Y482814D01*
G75*
D01*
G02X543805Y489439I0J7301*
G01*
X529696Y489439D01*
X523053Y482797D01*
G74*
D01*
G02X523043Y482787I2353J2343*
G01*
X523001Y482744D01*
X523001Y421376D01*
X528556Y415821D01*
X547620Y415821D01*
G74*
D01*
G02X548222Y415766I0J3321*
G01*
G75*
D01*
G02X551075Y416346I2853J-6721*
G01*
X556365Y416346D01*
G74*
D01*
G02X563666Y409045I0J7301*
G01*
X563666Y403755D01*
G75*
D01*
G02X556365Y396454I-7301J0*
G01*
X551075Y396454D01*
G75*
D01*
G02X543774Y403755I0J7301*
G01*
X543774Y409045D01*
G74*
D01*
G02X543775Y409179I7301J0*
G01*
X527187Y409179D01*
G75*
D01*
G02X524832Y410152I-7J3321*
G01*
X517332Y417652D01*
G74*
D01*
G02X516884Y418208I2348J2348*
G01*
X510353Y411677D01*
G74*
D01*
G02X508000Y410699I2353J2343*
G01*
X501161Y410699D01*
X501161Y393700D01*
G75*
D01*
G02X500183Y391347I-3321J0*
G01*
X473221Y364384D01*
X473221Y299720D01*
G75*
D01*
G02X472243Y297367I-3321J0*
G01*
X458087Y283210D01*
X467163Y274133D01*
G74*
D01*
G02X468141Y271780I2343J2353*
G01*
X468141Y228600D01*
G75*
D01*
G02X467163Y226247I-3321J0*
G01*
X447821Y206904D01*
X447821Y51581D01*
X497836Y51581D01*
G75*
D01*
G02X498539Y51507I4J-3321*
G01*
G74*
D01*
G02X500193Y50603I699J3247*
G01*
X512883Y37913D01*
G74*
D01*
G02X513861Y35560I2343J2353*
G01*
X513861Y-44344D01*
X515718Y-46201D01*
G75*
D01*
G02X511021Y-50898I2442J-7139*
G01*
X509293Y-49170D01*
X509293Y-59372D01*
X521088Y-71167D01*
X592500Y-71167D01*
G74*
D01*
G02X595216Y-72295I0J3833*
G01*
X595359Y-72437D01*
X595359Y-72437D01*
X602705Y-79784D01*
G74*
D01*
G02X603833Y-82500I2705J2716*
G01*
X603833Y-104312D01*
X604443Y-104921D01*
X607271Y-107750D01*
X610860Y-107750D01*
G74*
D01*
G02X611870Y-108760I0J1010*
G01*
X611870Y-114760D01*
G75*
D01*
G02X610860Y-115770I-1010J0*
G01*
X609693Y-115770D01*
X609693Y-143440D01*
G75*
D01*
G02X608565Y-146156I-3833J0*
G01*
X604487Y-150234D01*
X604443Y-150279D01*
X592873Y-161848D01*
X592873Y-239160D01*
X594290Y-239160D01*
G74*
D01*
G02X595300Y-240170I0J1010*
G01*
X595300Y-257670D01*
G75*
D01*
G02X594290Y-258680I-1010J0*
G01*
X592873Y-258680D01*
X592873Y-274720D01*
X594290Y-274720D01*
G74*
D01*
G02X595300Y-275730I0J1010*
G01*
X595300Y-293230D01*
G75*
D01*
G02X594290Y-294240I-1010J0*
G01*
X583790Y-294240D01*
G75*
D01*
G02X582780Y-293230I0J1010*
G01*
X582780Y-275730D01*
G75*
D01*
G02X583790Y-274720I1010J0*
G01*
X585207Y-274720D01*
X585207Y-258680D01*
X583790Y-258680D01*
G75*
D01*
G02X582780Y-257670I0J1010*
G01*
X582780Y-240170D01*
G75*
D01*
G02X583790Y-239160I1010J0*
G01*
X585207Y-239160D01*
X585207Y-160267D01*
G75*
D01*
G02X586329Y-157549I3833J7*
G01*
X602027Y-141852D01*
X602027Y-115770D01*
X600860Y-115770D01*
G75*
D01*
G02X599850Y-114760I0J1010*
G01*
X599850Y-111171D01*
X597289Y-108611D01*
G75*
D01*
G02X596167Y-105893I2711J2711*
G01*
X596167Y-84088D01*
X590912Y-78833D01*
X519500Y-78833D01*
G75*
D01*
G02X518094Y-78566I0J3833*
G01*
G74*
D01*
G02X516789Y-77711I1406J3566*
G01*
X511516Y-72437D01*
X511516Y-72437D01*
X502749Y-63671D01*
G75*
D01*
G02X501627Y-60947I2711J2711*
G01*
X501627Y31432D01*
X493712Y39347D01*
X439420Y39347D01*
G75*
D01*
G02X435587Y43180I0J3833*
G01*
X435587Y210815D01*
G75*
D01*
G02X436709Y213531I3833J5*
G01*
X455907Y232728D01*
X455907Y267652D01*
X446869Y276689D01*
G75*
D01*
G02X445747Y279410I2711J2711*
G01*
X445747Y287014D01*
G75*
D01*
G02X446869Y289731I3833J6*
G01*
X460987Y303848D01*
X460987Y368292D01*
G75*
D01*
G02X462109Y371011I3833J8*
G01*
X488927Y397828D01*
X488927Y419100D01*
G75*
D01*
G02X492760Y422933I3833J0*
G01*
X503872Y422933D01*
X505687Y424748D01*
X505687Y490088D01*
X491608Y504167D01*
X469900Y504167D01*
G75*
D01*
G02X466067Y508000I0J3833*
G01*
X466067Y521652D01*
X396069Y591649D01*
G75*
D01*
G02X394947Y594370I2711J2711*
G01*
X394947Y619755D01*
G75*
D01*
G02X396069Y622471I3833J5*
G01*
X415267Y641668D01*
X415267Y732472D01*
X388449Y759289D01*
G75*
D01*
G02X387327Y762011I2711J2711*
G01*
X387327Y815332D01*
G75*
D01*
G02X388449Y818051I3833J8*
G01*
X390989Y820591D01*
G75*
D01*
G02X393707Y821713I2711J-2711*
G01*
X404812Y821713D01*
X420347Y837248D01*
X420347Y868674D01*
G75*
D01*
G02X421469Y871391I3833J6*
G01*
X423901Y873823D01*
X421460Y873823D01*
G75*
D01*
G02X418903Y876380I0J2557*
G01*
X418903Y886380D01*
G74*
D01*
G02X419288Y887730I2557J0*
G01*
G75*
D01*
G02X418903Y889080I2172J1350*
G01*
X418903Y899080D01*
G74*
D01*
G02X419288Y900430I2557J0*
G01*
G75*
D01*
G02X418903Y901780I2172J1350*
G01*
X418903Y911780D01*
G74*
D01*
G02X419288Y913130I2557J0*
G01*
G75*
D01*
G02X418903Y914480I2172J1350*
G01*
X418903Y924480D01*
G74*
D01*
G02X419288Y925830I2557J0*
G01*
G75*
D01*
G02X418903Y927180I2172J1350*
G01*
X418903Y937180D01*
G74*
D01*
G02X419288Y938530I2557J0*
G01*
G75*
D01*
G02X418903Y939880I2172J1350*
G01*
X418903Y949880D01*
G74*
D01*
G02X419288Y951230I2557J0*
G01*
G75*
D01*
G02X418903Y952580I2172J1350*
G01*
X418903Y962580D01*
G74*
D01*
G02X419288Y963930I2557J0*
G01*
G75*
D01*
G02X418903Y965280I2172J1350*
G01*
X418903Y975280D01*
G74*
D01*
G02X419288Y976630I2557J0*
G01*
G75*
D01*
G02X418903Y977980I2172J1350*
G01*
X418903Y987980D01*
G74*
D01*
G02X419288Y989330I2557J0*
G01*
G75*
D01*
G02X418903Y990680I2172J1350*
G01*
X418903Y994897D01*
X416884Y994897D01*
X414803Y992816D01*
X414803Y874084D01*
X419651Y869236D01*
G74*
D01*
G02X419883Y868680I551J556*
G01*
X419883Y838200D01*
G75*
D01*
G02X419651Y837644I-783J0*
G01*
X404416Y822409D01*
G74*
D01*
G02X403860Y822177I556J551*
G01*
X391484Y822177D01*
X386863Y817556D01*
X386863Y759784D01*
X414571Y732076D01*
G74*
D01*
G02X414803Y731520I551J556*
G01*
X414803Y642620D01*
G75*
D01*
G02X414571Y642064I-783J0*
G01*
X394483Y621976D01*
X394483Y592144D01*
X465371Y521256D01*
G74*
D01*
G02X465603Y520700I551J556*
G01*
X465603Y503703D01*
X491089Y503703D01*
G75*
D01*
G02X491311Y503671I3J-783*
G01*
G74*
D01*
G02X491647Y503471I219J751*
G01*
X504991Y490127D01*
G74*
D01*
G02X505223Y489572I551J555*
G01*
X505223Y425264D01*
G75*
D01*
G02X504991Y424708I-783J0*
G01*
X503912Y423629D01*
G74*
D01*
G02X503549Y423421I556J551*
G01*
G75*
D01*
G02X503353Y423397I-193J759*
G01*
X488463Y423397D01*
X488463Y398780D01*
G75*
D01*
G02X488231Y398224I-783J0*
G01*
X460523Y370516D01*
X460523Y304800D01*
G75*
D01*
G02X460291Y304244I-783J0*
G01*
X445283Y289236D01*
X445283Y277184D01*
X455211Y267256D01*
G74*
D01*
G02X455443Y266700I551J556*
G01*
X455443Y236220D01*
G75*
D01*
G02X455211Y235664I-783J0*
G01*
X432583Y213036D01*
X432583Y38883D01*
X492757Y38883D01*
G75*
D01*
G02X492991Y38848I3J-783*
G01*
G74*
D01*
G02X493316Y38651I231J748*
G01*
X500931Y31036D01*
G74*
D01*
G02X501163Y30480I551J556*
G01*
X501163Y-53340D01*
G75*
D01*
G02X500931Y-53896I-783J0*
G01*
X495856Y-58971D01*
G74*
D01*
G02X495300Y-59203I556J551*
G01*
X452444Y-59203D01*
X442743Y-68904D01*
X442743Y-147320D01*
G75*
D01*
G02X442511Y-147876I-783J0*
G01*
X438576Y-151811D01*
G74*
D01*
G02X438020Y-152043I556J551*
G01*
X431766Y-152043D01*
X431766Y-152760D01*
G75*
D01*
G02X431756Y-152939I-1536J0*
G01*
X444344Y-152939D01*
X461499Y-135784D01*
X461499Y-96529D01*
G75*
D01*
G02X462472Y-94172I3321J9*
G01*
X477712Y-78932D01*
G74*
D01*
G02X478986Y-78138I2348J2348*
G01*
G75*
D01*
G02X480060Y-77959I1074J-3142*
G01*
X505455Y-77959D01*
G75*
D01*
G02X506376Y-78088I5J-3321*
G01*
G74*
D01*
G02X507813Y-78937I916J3192*
G01*
X511683Y-82807D01*
G74*
D01*
G02X512661Y-85160I2343J2353*
G01*
X512661Y-97322D01*
X515812Y-94172D01*
G75*
D01*
G02X518166Y-93199I2348J-2348*
G01*
X527380Y-93199D01*
X527380Y-87770D01*
G75*
D01*
G02X528390Y-86760I1010J0*
G01*
X538890Y-86760D01*
G74*
D01*
G02X539900Y-87770I0J1010*
G01*
X539900Y-105270D01*
G75*
D01*
G02X538890Y-106280I-1010J0*
G01*
X528390Y-106280D01*
G75*
D01*
G02X527380Y-105270I0J1010*
G01*
X527380Y-99841D01*
X519536Y-99841D01*
X515350Y-104027D01*
X515350Y-105260D01*
G75*
D01*
G02X514340Y-106270I-1010J0*
G01*
X504340Y-106270D01*
G75*
D01*
G02X503330Y-105260I0J1010*
G01*
X503330Y-99260D01*
G75*
D01*
G02X504340Y-98250I1010J0*
G01*
X506019Y-98250D01*
X506019Y-86536D01*
X504084Y-84601D01*
X481436Y-84601D01*
X468141Y-97896D01*
X468141Y-137160D01*
G75*
D01*
G02X467163Y-139513I-3321J0*
G01*
X448073Y-158603D01*
G74*
D01*
G02X445829Y-159579I2353J2343*
G01*
G75*
D01*
G02X445718Y-159581I-109J3319*
G01*
X431756Y-159581D01*
G74*
D01*
G02X431766Y-159760I1526J179*
G01*
X431766Y-162760D01*
G75*
D01*
G02X431396Y-163760I-1536J0*
G01*
G74*
D01*
G02X431766Y-164760I1166J1000*
G01*
X431766Y-167760D01*
G75*
D01*
G02X430230Y-169296I-1536J0*
G01*
X420730Y-169296D01*
G75*
D01*
G02X419744Y-168938I0J1536*
G01*
G74*
D01*
G02X419082Y-169440I1224J928*
G01*
G74*
D01*
G02X419516Y-170510I1102J1070*
G01*
X419516Y-180010D01*
G75*
D01*
G02X417980Y-181546I-1536J0*
G01*
X414980Y-181546D01*
G75*
D01*
G02X413980Y-181176I0J1536*
G01*
G74*
D01*
G02X412980Y-181546I1000J1166*
G01*
X409980Y-181546D01*
G75*
D01*
G02X408980Y-181176I0J1536*
G01*
G74*
D01*
G02X407980Y-181546I1000J1166*
G01*
X404980Y-181546D01*
G75*
D01*
G02X403980Y-181176I0J1536*
G01*
G74*
D01*
G02X402980Y-181546I1000J1166*
G01*
X399980Y-181546D01*
G75*
D01*
G02X398980Y-181176I0J1536*
G01*
G74*
D01*
G02X397980Y-181546I1000J1166*
G01*
X394980Y-181546D01*
G75*
D01*
G02X393980Y-181176I0J1536*
G01*
G74*
D01*
G02X392980Y-181546I1000J1166*
G01*
X389980Y-181546D01*
G75*
D01*
G02X389000Y-181193I0J1536*
G01*
G74*
D01*
G02X388020Y-181546I980J1183*
G01*
X385020Y-181546D01*
G75*
D01*
G02X383484Y-180010I0J1536*
G01*
X383484Y-170510D01*
G74*
D01*
G02X384127Y-169260I1536J0*
G01*
G74*
D01*
G02X383569Y-168514I893J1250*
G01*
G74*
D01*
G02X382230Y-169296I1339J754*
G01*
X372730Y-169296D01*
G75*
D01*
G02X371194Y-167760I0J1536*
G01*
X371194Y-164760D01*
G74*
D01*
G02X371564Y-163760I1536J0*
G01*
G75*
D01*
G02X371194Y-162760I1166J1000*
G01*
X371194Y-159760D01*
G74*
D01*
G02X371564Y-158760I1536J0*
G01*
G75*
D01*
G02X371194Y-157760I1166J1000*
G01*
X371194Y-154760D01*
G74*
D01*
G02X371564Y-153760I1536J0*
G01*
G75*
D01*
G02X371194Y-152760I1166J1000*
G01*
X371194Y-149760D01*
G74*
D01*
G02X371564Y-148760I1536J0*
G01*
G75*
D01*
G02X371194Y-147760I1166J1000*
G01*
X371194Y-144760D01*
G74*
D01*
G02X371564Y-143760I1536J0*
G01*
G75*
D01*
G02X371194Y-142760I1166J1000*
G01*
X371194Y-139760D01*
G74*
D01*
G02X371504Y-138833I1536J0*
G01*
X339088Y-138833D01*
X333833Y-144088D01*
X333833Y-165000D01*
G75*
D01*
G02X332705Y-167716I-3833J0*
G01*
X325216Y-175205D01*
G74*
D01*
G02X322500Y-176333I2716J2705*
G01*
X316119Y-176333D01*
G74*
D01*
G02X318833Y-180000I1119J3667*
G01*
X318833Y-194081D01*
X328485Y-198907D01*
X465832Y-198907D01*
X476167Y-188572D01*
X476167Y-112500D01*
G75*
D01*
G02X480000Y-108667I3833J0*
G01*
X480334Y-108667D01*
G75*
D01*
G02X481340Y-107750I1006J-93*
G01*
X491340Y-107750D01*
G74*
D01*
G02X492350Y-108760I0J1010*
G01*
X492350Y-114760D01*
G75*
D01*
G02X491340Y-115770I-1010J0*
G01*
X488341Y-115770D01*
G74*
D01*
G02X486340Y-116333I2001J3270*
G01*
X483833Y-116333D01*
X483833Y-190160D01*
G75*
D01*
G02X482705Y-192876I-3833J0*
G01*
X470136Y-205445D01*
G74*
D01*
G02X467420Y-206573I2716J2705*
G01*
X327585Y-206573D01*
G75*
D01*
G02X325866Y-206169I-5J3833*
G01*
X313286Y-199879D01*
G75*
D01*
G02X311167Y-196443I1714J3429*
G01*
X311167Y-183833D01*
X267838Y-183833D01*
X266333Y-185338D01*
X266333Y-237905D01*
X270150Y-237905D01*
G74*
D01*
G02X272165Y-239920I0J2015*
G01*
X272165Y-257920D01*
G75*
D01*
G02X270150Y-259935I-2015J0*
G01*
X268233Y-259935D01*
X268233Y-274720D01*
X269650Y-274720D01*
G74*
D01*
G02X270660Y-275730I0J1010*
G01*
X270660Y-293230D01*
G75*
D01*
G02X269650Y-294240I-1010J0*
G01*
X259150Y-294240D01*
G75*
D01*
G02X258140Y-293230I0J1010*
G01*
X258140Y-275730D01*
G75*
D01*
G02X259150Y-274720I1010J0*
G01*
X260567Y-274720D01*
X260567Y-259935D01*
X258650Y-259935D01*
G75*
D01*
G02X256635Y-257920I0J2015*
G01*
X256635Y-252753D01*
X248520Y-252753D01*
X248520Y-253930D01*
G75*
D01*
G02X247510Y-254940I-1010J0*
G01*
X242593Y-254940D01*
X242593Y-257661D01*
G75*
D01*
G02X234927Y-257661I-3833J-6499*
G01*
X234927Y-254940D01*
X230010Y-254940D01*
G75*
D01*
G02X229000Y-253930I0J1010*
G01*
X229000Y-243430D01*
G75*
D01*
G02X230010Y-242420I1010J0*
G01*
X247510Y-242420D01*
G74*
D01*
G02X248520Y-243430I0J1010*
G01*
X248520Y-245087D01*
X256635Y-245087D01*
X256635Y-239920D01*
G75*
D01*
G02X258650Y-237905I2015J0*
G01*
X258667Y-237905D01*
X258667Y-229869D01*
G74*
D01*
G02X257705Y-231466I3667J1119*
G01*
X253966Y-235205D01*
G74*
D01*
G02X251250Y-236333I2716J2705*
G01*
X228757Y-236333D01*
G75*
D01*
G02X226039Y-235211I-7J3833*
G01*
X222289Y-231461D01*
G75*
D01*
G02X221167Y-228741I2711J2711*
G01*
X221167Y188090D01*
G75*
D01*
G02X222289Y190811I3833J10*
G01*
X228305Y196827D01*
X217488Y196827D01*
X201953Y181292D01*
X201953Y118971D01*
G75*
D01*
G02X194287Y118971I-3833J-12291*
G01*
X194287Y182869D01*
G75*
D01*
G02X195338Y185517I3833J11*
G01*
X199718Y190137D01*
G74*
D01*
G02X200707Y190888I2782J2637*
G01*
X213189Y203371D01*
G74*
D01*
G02X215302Y204447I2711J2711*
G01*
X210411Y204447D01*
G75*
D01*
G02X210411Y212113I-12291J3833*
G01*
X320033Y212113D01*
G75*
D01*
G02X321428Y211853I7J-3833*
G01*
G74*
D01*
G02X322756Y210985I1388J3573*
G01*
X341015Y192726D01*
G75*
D01*
G02X343162Y177880I1885J-7306*
G01*
X347859Y173183D01*
G75*
D01*
G02X358054Y170438I3696J-6578*
G01*
X367747Y170438D01*
X400027Y202718D01*
X400027Y280352D01*
X383369Y297009D01*
G75*
D01*
G02X382247Y299729I2711J2711*
G01*
X382247Y328363D01*
G75*
D01*
G02X383369Y331081I3833J7*
G01*
X400630Y348341D01*
G74*
D01*
G02X398396Y350732I4265J6224*
G01*
X366796Y350732D01*
G75*
D01*
G02X364084Y351854I-1J3833*
G01*
X350933Y365006D01*
G75*
D01*
G02X351074Y359743I-6998J-2821*
G01*
X351358Y359458D01*
G74*
D01*
G02X352336Y357105I2343J2353*
G01*
X352336Y343560D01*
G75*
D01*
G02X345694Y343560I-3321J-6775*
G01*
X345694Y354848D01*
G75*
D01*
G02X341408Y369294I-1759J7337*
G01*
G75*
D01*
G02X339477Y377706I5067J5591*
G01*
X335068Y373297D01*
X335068Y282493D01*
X351720Y265841D01*
G74*
D01*
G02X352848Y263125I2705J2716*
G01*
X352848Y252144D01*
G75*
D01*
G02X346095Y239074I-4868J-5764*
G01*
X341806Y234785D01*
G74*
D01*
G02X339090Y233657I2716J2705*
G01*
X308615Y233657D01*
G75*
D01*
G02X305899Y234779I-5J3833*
G01*
X284309Y256369D01*
G75*
D01*
G02X283187Y259087I2711J2711*
G01*
X283187Y289768D01*
X279608Y293347D01*
X210426Y293347D01*
G75*
D01*
G02X204430Y300783I-12306J-3787*
G01*
G75*
D01*
G02X205746Y301013I1310J-3603*
G01*
X281196Y301013D01*
G74*
D01*
G02X283912Y299885I0J3833*
G01*
X289725Y294072D01*
G74*
D01*
G02X290853Y291356I2705J2716*
G01*
X290853Y260668D01*
X310198Y241323D01*
X311900Y241323D01*
G74*
D01*
G02X309967Y245951I5600J5057*
G01*
X305664Y250254D01*
G75*
D01*
G02X304542Y252972I2711J2711*
G01*
X304542Y369797D01*
G75*
D01*
G02X305664Y372516I3833J8*
G01*
X329009Y395860D01*
G75*
D01*
G02X334430Y390439I7306J1885*
G01*
X312208Y368217D01*
X312208Y254553D01*
X313804Y252958D01*
G75*
D01*
G02X323100Y241323I3696J-6578*
G01*
X337502Y241323D01*
X340674Y244495D01*
G75*
D01*
G02X345182Y253387I7306J1885*
G01*
X345182Y261537D01*
X328524Y278194D01*
G75*
D01*
G02X327402Y280910I2711J2711*
G01*
X327402Y374875D01*
G75*
D01*
G02X328524Y377596I3833J10*
G01*
X361544Y410616D01*
G74*
D01*
G02X363171Y411582I2711J2711*
G01*
G75*
D01*
G02X364255Y411738I1084J-3677*
G01*
X375367Y411738D01*
X390902Y427273D01*
X390902Y469986D01*
G75*
D01*
G02X398568Y469986I3833J6499*
G01*
X398568Y425685D01*
G75*
D01*
G02X397440Y422969I-3833J0*
G01*
X382034Y407563D01*
X379671Y405200D01*
G74*
D01*
G02X377306Y404088I2716J2705*
G01*
G75*
D01*
G02X376952Y404072I-351J3817*
G01*
X365843Y404072D01*
X364443Y402671D01*
X343654Y381883D01*
G75*
D01*
G02X353781Y373000I2821J-6998*
G01*
X364443Y362339D01*
X368383Y358398D01*
X398396Y358398D01*
G75*
D01*
G02X408728Y348066I6499J-3833*
G01*
X408728Y347185D01*
G75*
D01*
G02X407600Y344469I-3833J0*
G01*
X389913Y326782D01*
X389913Y301308D01*
X406565Y284656D01*
G74*
D01*
G02X407647Y282538I2705J2716*
G01*
X407647Y304795D01*
G75*
D01*
G02X408769Y307511I3833J5*
G01*
X427967Y326708D01*
X427967Y383532D01*
G75*
D01*
G02X429089Y386251I3833J8*
G01*
X453367Y410528D01*
X453367Y439412D01*
G75*
D01*
G02X454489Y442131I3833J8*
G01*
X462109Y449751D01*
G75*
D01*
G02X464826Y450873I2711J-2711*
G01*
X481215Y450873D01*
X481215Y458032D01*
G75*
D01*
G02X471147Y468779I-6235J4248*
G01*
X471147Y470852D01*
X465772Y476227D01*
X447784Y476227D01*
G75*
D01*
G02X446532Y476437I0J3833*
G01*
G74*
D01*
G02X445073Y477349I1252J3623*
G01*
X440713Y481709D01*
X440713Y417979D01*
G75*
D01*
G02X433047Y417979I-3833J-6499*
G01*
X433047Y503872D01*
X425132Y511787D01*
X354631Y511787D01*
G75*
D01*
G02X344021Y501627I-4111J-6327*
G01*
X301308Y501627D01*
X264336Y464655D01*
G74*
D01*
G02X261620Y463527I2716J2705*
G01*
X215692Y463527D01*
X201953Y449788D01*
X201953Y403451D01*
G75*
D01*
G02X194287Y403451I-3833J-12291*
G01*
X194287Y451366D01*
G75*
D01*
G02X195409Y454087I3833J10*
G01*
X211393Y470071D01*
G74*
D01*
G02X213266Y471101I2711J2711*
G01*
G75*
D01*
G02X214104Y471193I838J-3741*
G01*
X260032Y471193D01*
X297009Y508171D01*
G75*
D01*
G02X299723Y509293I2711J-2711*
G01*
X344021Y509293D01*
G74*
D01*
G02X346409Y511787I6499J3833*
G01*
X275908Y511787D01*
X249096Y484975D01*
G74*
D01*
G02X247535Y484025I2716J2705*
G01*
G75*
D01*
G02X246374Y483847I-1155J3655*
G01*
X220985Y483847D01*
G75*
D01*
G02X218269Y484969I-5J3833*
G01*
X206692Y496547D01*
X175260Y496547D01*
G75*
D01*
G02X174520Y496619I0J3833*
G01*
G74*
D01*
G02X172549Y497669I740J3761*
G01*
X153301Y516918D01*
G75*
D01*
G02X158722Y522339I-5981J11402*
G01*
X176848Y504213D01*
X208280Y504213D01*
G74*
D01*
G02X210996Y503085I0J3833*
G01*
X222568Y491513D01*
X244792Y491513D01*
X271609Y518331D01*
G74*
D01*
G02X273580Y519381I2711J2711*
G01*
G75*
D01*
G02X274320Y519453I740J-3761*
G01*
X425085Y519453D01*
X371253Y573286D01*
G75*
D01*
G02X360422Y576964I-6998J-2821*
G01*
X360422Y599357D01*
X359004Y600774D01*
G75*
D01*
G02X357882Y603493I2711J2711*
G01*
X357882Y624926D01*
G75*
D01*
G02X365548Y624926I3833J6499*
G01*
X365548Y605073D01*
X366960Y603661D01*
G74*
D01*
G02X368088Y600945I2705J2716*
G01*
X368088Y576964D01*
G74*
D01*
G02X369637Y575753I3833J6499*
G01*
G75*
D01*
G02X369547Y576591I3743J827*
G01*
X369547Y635952D01*
X364443Y641056D01*
X361632Y643867D01*
X299720Y643867D01*
G75*
D01*
G02X299563Y643870I0J3833*
G01*
G74*
D01*
G02X297009Y644989I157J3830*
G01*
X294436Y647563D01*
X294436Y647563D01*
X234632Y707367D01*
X215491Y707367D01*
G75*
D01*
G02X215491Y715033I-12291J3833*
G01*
X236213Y715033D01*
G75*
D01*
G02X237641Y714760I7J-3833*
G01*
G74*
D01*
G02X238936Y713905I1421J3560*
G01*
X301308Y651533D01*
X363215Y651533D01*
G75*
D01*
G02X364203Y651405I5J-3833*
G01*
G74*
D01*
G02X365936Y650405I983J3705*
G01*
X368779Y647563D01*
X368779Y647563D01*
X376085Y640256D01*
G74*
D01*
G02X377213Y637540I2705J2716*
G01*
X377213Y636635D01*
X388141Y647563D01*
X394947Y654368D01*
X394947Y704787D01*
G75*
D01*
G02X384152Y715327I-5292J5378*
G01*
X364443Y735036D01*
X364443Y735036D01*
X360509Y738969D01*
G75*
D01*
G02X359387Y741689I2711J2711*
G01*
X359387Y750252D01*
X358222Y751417D01*
G75*
D01*
G02X359757Y760396I-5162J5503*
G01*
G74*
D01*
G02X360856Y759625I1617J3476*
G01*
X364443Y756039D01*
X364443Y756039D01*
X365925Y754556D01*
G74*
D01*
G02X367006Y752440I2705J2716*
G01*
X367006Y842155D01*
G74*
D01*
G02X365760Y842538I104J2555*
G01*
G74*
D01*
G02X364410Y842153I1350J2172*
G01*
X354410Y842153D01*
G75*
D01*
G02X353060Y842538I0J2557*
G01*
G74*
D01*
G02X351710Y842153I1350J2172*
G01*
X341710Y842153D01*
G75*
D01*
G02X340360Y842538I0J2557*
G01*
G74*
D01*
G02X339010Y842153I1350J2172*
G01*
X329010Y842153D01*
G75*
D01*
G02X327660Y842538I0J2557*
G01*
G74*
D01*
G02X326310Y842153I1350J2172*
G01*
X316310Y842153D01*
G75*
D01*
G02X314960Y842538I0J2557*
G01*
G74*
D01*
G02X313610Y842153I1350J2172*
G01*
X303610Y842153D01*
G75*
D01*
G02X302260Y842538I0J2557*
G01*
G74*
D01*
G02X300910Y842153I1350J2172*
G01*
X290910Y842153D01*
G75*
D01*
G02X289560Y842538I0J2557*
G01*
G74*
D01*
G02X288210Y842153I1350J2172*
G01*
X278210Y842153D01*
G75*
D01*
G02X275653Y844710I0J2557*
G01*
X275653Y864710D01*
G75*
D01*
G02X278210Y867267I2557J0*
G01*
X288210Y867267D01*
G74*
D01*
G02X289560Y866882I0J2557*
G01*
G75*
D01*
G02X290910Y867267I1350J-2172*
G01*
X300910Y867267D01*
G74*
D01*
G02X302260Y866882I0J2557*
G01*
G75*
D01*
G02X303610Y867267I1350J-2172*
G01*
X313610Y867267D01*
G74*
D01*
G02X314960Y866882I0J2557*
G01*
G75*
D01*
G02X316310Y867267I1350J-2172*
G01*
X326310Y867267D01*
G74*
D01*
G02X327660Y866882I0J2557*
G01*
G75*
D01*
G02X329010Y867267I1350J-2172*
G01*
X339010Y867267D01*
G74*
D01*
G02X340360Y866882I0J2557*
G01*
G75*
D01*
G02X341710Y867267I1350J-2172*
G01*
X351710Y867267D01*
G74*
D01*
G02X353060Y866882I0J2557*
G01*
G75*
D01*
G02X354410Y867267I1350J-2172*
G01*
X364410Y867267D01*
G74*
D01*
G02X365760Y866882I0J2557*
G01*
G75*
D01*
G02X367110Y867267I1350J-2172*
G01*
X377110Y867267D01*
G74*
D01*
G02X378460Y866882I0J2557*
G01*
G75*
D01*
G02X379810Y867267I1350J-2172*
G01*
X389810Y867267D01*
G74*
D01*
G02X391160Y866882I0J2557*
G01*
G75*
D01*
G02X392510Y867267I1350J-2172*
G01*
X402510Y867267D01*
G74*
D01*
G02X402850Y867245I0J2557*
G01*
X397628Y872467D01*
X274320Y872467D01*
G75*
D01*
G02X273546Y872546I0J3833*
G01*
G74*
D01*
G02X271609Y873589I774J3754*
G01*
X264017Y881181D01*
X264017Y876380D01*
G75*
D01*
G02X261460Y873823I-2557J0*
G01*
X241460Y873823D01*
G75*
D01*
G02X238903Y876380I0J2557*
G01*
X238903Y886380D01*
G74*
D01*
G02X239288Y887730I2557J0*
G01*
G75*
D01*
G02X238903Y889080I2172J1350*
G01*
X238903Y899080D01*
G74*
D01*
G02X239288Y900430I2557J0*
G01*
G75*
D01*
G02X238903Y901780I2172J1350*
G01*
X238903Y911780D01*
G74*
D01*
G02X239288Y913130I2557J0*
G01*
G75*
D01*
G02X238903Y914480I2172J1350*
G01*
X238903Y924480D01*
G74*
D01*
G02X239288Y925830I2557J0*
G01*
G75*
D01*
G02X238903Y927180I2172J1350*
G01*
X238903Y937180D01*
G74*
D01*
G02X239288Y938530I2557J0*
G01*
G75*
D01*
G02X238903Y939880I2172J1350*
G01*
X238903Y949880D01*
G74*
D01*
G02X239288Y951230I2557J0*
G01*
G75*
D01*
G02X238903Y952580I2172J1350*
G01*
X238903Y962580D01*
G74*
D01*
G02X239288Y963930I2557J0*
G01*
G75*
D01*
G02X238903Y965280I2172J1350*
G01*
X238903Y975280D01*
G74*
D01*
G02X239288Y976630I2557J0*
G01*
G75*
D01*
G02X238903Y977980I2172J1350*
G01*
X238903Y987980D01*
G74*
D01*
G02X239288Y989330I2557J0*
G01*
G75*
D01*
G02X238903Y990680I2172J1350*
G01*
X238903Y1000680D01*
G74*
D01*
G02X239288Y1002030I2557J0*
G01*
G75*
D01*
G02X238903Y1003380I2172J1350*
G01*
X238903Y1013380D01*
G74*
D01*
G02X239288Y1014730I2557J0*
G01*
G75*
D01*
G02X238903Y1016080I2172J1350*
G01*
X238903Y1017247D01*
X237639Y1017247D01*
G75*
D01*
G02X237639Y1024913I-6499J3833*
G01*
X238903Y1024913D01*
X238903Y1026080D01*
G74*
D01*
G02X239288Y1027430I2557J0*
G01*
G75*
D01*
G02X238903Y1028780I2172J1350*
G01*
X238903Y1038780D01*
G74*
D01*
G02X239288Y1040130I2557J0*
G01*
G75*
D01*
G02X238903Y1041480I2172J1350*
G01*
X238903Y1051480D01*
G75*
D01*
G02X241460Y1054037I2557J0*
G01*
X261460Y1054037D01*
G74*
D01*
G02X263235Y1053321I0J2557*
G01*
X419685Y1053321D01*
X149079Y635008D02*
X149079Y647960D01*
G75*
D01*
G02X155721Y647960I3321J12440*
G01*
X155721Y636376D01*
X200285Y591812D01*
G74*
D01*
G02X205030Y589984I2165J12692*
G01*
G74*
D01*
G02X205069Y589993I710J3244*
G01*
G75*
D01*
G02X205740Y590061I671J-3253*
G01*
X310725Y590061D01*
G75*
D01*
G02X310725Y583419I6775J-3321*
G01*
X210256Y583419D01*
G75*
D01*
G02X192167Y590536I-12136J-4299*
G01*
X150052Y632652D01*
G75*
D01*
G02X149079Y635008I2348J2348*
G01*
X543668Y647563D02*
G75*
D01*
G02X543668Y647563I10052J-2403*
G01*
X423968Y492846D02*
X423968Y329165D01*
G75*
D01*
G02X422840Y326449I-3833J0*
G01*
X407121Y310730D01*
G75*
D01*
G02X401700Y316151I-7306J-1885*
G01*
X416302Y330753D01*
X416302Y492846D01*
G75*
D01*
G02X423968Y492846I3833J6499*
G01*
X362560Y423926D02*
G75*
D01*
G02X362560Y417284I6775J-3321*
G01*
X272861Y417284D01*
G75*
D01*
G02X273890Y423926I-6161J4356*
G01*
X362560Y423926D01*
X276136Y273285D02*
X276136Y262996D01*
X305941Y233191D01*
X367030Y233191D01*
G74*
D01*
G02X369383Y232213I0J3321*
G01*
X371973Y229624D01*
G75*
D01*
G02X367276Y224927I2442J-7139*
G01*
X365654Y226549D01*
X355610Y226549D01*
G75*
D01*
G02X354353Y214481I-5090J-5569*
G01*
X354353Y207159D01*
G75*
D01*
G02X346687Y207159I-3833J-6499*
G01*
X346687Y214481D01*
G75*
D01*
G02X345430Y226549I3833J6499*
G01*
X304565Y226549D01*
G75*
D01*
G02X304495Y226550I0J3321*
G01*
G74*
D01*
G02X302217Y227522I70J3320*
G01*
X270467Y259272D01*
G75*
D01*
G02X269494Y261631I2348J2348*
G01*
X269494Y271909D01*
X269142Y272261D01*
G75*
D01*
G02X273839Y276958I-2442J7139*
G01*
X275158Y275638D01*
G74*
D01*
G02X276136Y273285I2343J2353*
G01*
X139313Y167563D02*
G75*
D01*
G02X139313Y167563I8007J-10083*
G01*
X370838Y-281159D02*
G75*
D01*
G02X371060Y-281166I2J-3321*
G01*
G74*
D01*
G02X372878Y-281858I220J3314*
G01*
X372878Y-277265D01*
G75*
D01*
G02X375435Y-274708I2557J0*
G01*
X398435Y-274708D01*
G74*
D01*
G02X400992Y-277265I0J2557*
G01*
X400992Y-283444D01*
X401378Y-283444D01*
X401378Y-277265D01*
G75*
D01*
G02X403935Y-274708I2557J0*
G01*
X421935Y-274708D01*
G74*
D01*
G02X424435Y-276727I0J2557*
G01*
G75*
D01*
G02X426935Y-274708I2500J-538*
G01*
X434114Y-274708D01*
X434114Y-266899D01*
G74*
D01*
G02X432935Y-267280I1179J1634*
G01*
X428935Y-267280D01*
G75*
D01*
G02X427685Y-266845I0J2015*
G01*
G74*
D01*
G02X426435Y-267280I1250J1580*
G01*
X422435Y-267280D01*
G75*
D01*
G02X421185Y-266845I0J2015*
G01*
G74*
D01*
G02X419935Y-267280I1250J1580*
G01*
X415935Y-267280D01*
G75*
D01*
G02X414685Y-266845I0J2015*
G01*
G74*
D01*
G02X413435Y-267280I1250J1580*
G01*
X409435Y-267280D01*
G75*
D01*
G02X407420Y-265265I0J2015*
G01*
X407420Y-251265D01*
G74*
D01*
G02X407591Y-250453I2015J0*
G01*
X401149Y-244011D01*
G75*
D01*
G02X400027Y-241290I2711J2711*
G01*
X400027Y-222568D01*
X397192Y-219733D01*
X295386Y-219733D01*
G75*
D01*
G02X292673Y-218611I-2J3833*
G01*
X286849Y-212787D01*
G75*
D01*
G02X285727Y-210071I2711J2711*
G01*
X285727Y-209570D01*
X273810Y-209570D01*
G75*
D01*
G02X272800Y-208560I0J1010*
G01*
X272800Y-186560D01*
G75*
D01*
G02X273810Y-185550I1010J0*
G01*
X305310Y-185550D01*
G74*
D01*
G02X306320Y-186560I0J1010*
G01*
X306320Y-208560D01*
G75*
D01*
G02X305310Y-209570I-1010J0*
G01*
X294475Y-209570D01*
X296972Y-212067D01*
X398774Y-212067D01*
G75*
D01*
G02X400040Y-212280I6J-3833*
G01*
G74*
D01*
G02X401496Y-213195I1260J3620*
G01*
X406565Y-218264D01*
G74*
D01*
G02X407693Y-220980I2705J2716*
G01*
X407693Y-239712D01*
X414140Y-246159D01*
G74*
D01*
G02X414614Y-246733I2705J2716*
G01*
X414614Y-239747D01*
G75*
D01*
G02X421542Y-226541I4486J6067*
G01*
X426912Y-221172D01*
G75*
D01*
G02X429265Y-220199I2348J-2348*
G01*
X440265Y-220199D01*
G75*
D01*
G02X440265Y-226841I6775J-3321*
G01*
X430636Y-226841D01*
X426239Y-231238D01*
G75*
D01*
G02X424869Y-238543I-7139J-2442*
G01*
G75*
D01*
G02X426722Y-237979I1851J-2757*
G01*
X427565Y-237979D01*
G75*
D01*
G02X427756Y-244985I6775J-3321*
G01*
X427756Y-249631D01*
G75*
D01*
G02X428935Y-249250I1179J-1634*
G01*
X432935Y-249250D01*
G74*
D01*
G02X434185Y-249685I0J2015*
G01*
G75*
D01*
G02X435435Y-249250I1250J-1580*
G01*
X439435Y-249250D01*
G74*
D01*
G02X441450Y-251265I0J2015*
G01*
X441450Y-265265D01*
G75*
D01*
G02X440756Y-266786I-2015J0*
G01*
X440756Y-274708D01*
X444935Y-274708D01*
G74*
D01*
G02X447492Y-277265I0J2557*
G01*
X447492Y-283444D01*
X447878Y-283444D01*
X447878Y-277265D01*
G75*
D01*
G02X450435Y-274708I2557J0*
G01*
X473435Y-274708D01*
G74*
D01*
G02X475992Y-277265I0J2557*
G01*
X475992Y-283444D01*
X476399Y-283444D01*
X477712Y-282132D01*
G75*
D01*
G02X480062Y-281159I2348J-2348*
G01*
X491763Y-281159D01*
X491763Y-275980D01*
G75*
D01*
G02X494320Y-273423I2557J0*
G01*
X494999Y-273423D01*
X494999Y-259935D01*
X492330Y-259935D01*
G75*
D01*
G02X490315Y-257920I0J2015*
G01*
X490315Y-239920D01*
G75*
D01*
G02X492330Y-237905I2015J0*
G01*
X494759Y-237905D01*
X494759Y-219295D01*
X492330Y-219295D01*
G75*
D01*
G02X490315Y-217280I0J2015*
G01*
X490315Y-199280D01*
G75*
D01*
G02X492330Y-197265I2015J0*
G01*
X494759Y-197265D01*
X494759Y-183735D01*
X492330Y-183735D01*
G75*
D01*
G02X490315Y-181720I0J2015*
G01*
X490315Y-163720D01*
G75*
D01*
G02X492330Y-161705I2015J0*
G01*
X503830Y-161705D01*
G74*
D01*
G02X505845Y-163720I0J2015*
G01*
X505845Y-181720D01*
G75*
D01*
G02X503830Y-183735I-2015J0*
G01*
X501401Y-183735D01*
X501401Y-197265D01*
X503830Y-197265D01*
G74*
D01*
G02X505845Y-199280I0J2015*
G01*
X505845Y-217280D01*
G75*
D01*
G02X503830Y-219295I-2015J0*
G01*
X501401Y-219295D01*
X501401Y-237905D01*
X503830Y-237905D01*
G74*
D01*
G02X505845Y-239920I0J2015*
G01*
X505845Y-257920D01*
G75*
D01*
G02X503830Y-259935I-2015J0*
G01*
X501641Y-259935D01*
X501641Y-273423D01*
X502320Y-273423D01*
G74*
D01*
G02X504877Y-275980I0J2557*
G01*
X504877Y-292980D01*
G75*
D01*
G02X502320Y-295537I-2557J0*
G01*
X494320Y-295537D01*
G75*
D01*
G02X491763Y-292980I0J2557*
G01*
X491763Y-287801D01*
X481436Y-287801D01*
X480128Y-289108D01*
G74*
D01*
G02X477775Y-290086I2353J2343*
G01*
X475992Y-290086D01*
X475992Y-296265D01*
G75*
D01*
G02X473435Y-298822I-2557J0*
G01*
X450435Y-298822D01*
G75*
D01*
G02X447878Y-296265I0J2557*
G01*
X447878Y-290086D01*
X447492Y-290086D01*
X447492Y-296265D01*
G75*
D01*
G02X444935Y-298822I-2557J0*
G01*
X426935Y-298822D01*
G75*
D01*
G02X424435Y-296803I0J2557*
G01*
G74*
D01*
G02X421935Y-298822I2500J538*
G01*
X403935Y-298822D01*
G75*
D01*
G02X401378Y-296265I0J2557*
G01*
X401378Y-290086D01*
X400992Y-290086D01*
X400992Y-296265D01*
G75*
D01*
G02X398435Y-298822I-2557J0*
G01*
X375435Y-298822D01*
G75*
D01*
G02X372878Y-296265I0J2557*
G01*
X372878Y-290077D01*
G74*
D01*
G02X371922Y-289860I247J3312*
G01*
G74*
D01*
G02X370777Y-289113I1203J3095*
G01*
X369464Y-287801D01*
X356597Y-287801D01*
X356597Y-292980D01*
G75*
D01*
G02X354040Y-295537I-2557J0*
G01*
X346040Y-295537D01*
G75*
D01*
G02X343483Y-292980I0J2557*
G01*
X343483Y-275980D01*
G75*
D01*
G02X346040Y-273423I2557J0*
G01*
X347199Y-273423D01*
X347199Y-259935D01*
X344530Y-259935D01*
G75*
D01*
G02X342515Y-257920I0J2015*
G01*
X342515Y-239920D01*
G75*
D01*
G02X344530Y-237905I2015J0*
G01*
X344969Y-237905D01*
X344064Y-237001D01*
X301096Y-237001D01*
X300191Y-237906D01*
G74*
D01*
G02X302165Y-239920I41J2014*
G01*
X302165Y-257920D01*
G75*
D01*
G02X300150Y-259935I-2015J0*
G01*
X288650Y-259935D01*
G75*
D01*
G02X286635Y-257920I0J2015*
G01*
X286635Y-239920D01*
G75*
D01*
G02X288650Y-237905I2015J0*
G01*
X291265Y-237905D01*
G74*
D01*
G02X292052Y-236652I3135J1095*
G01*
X297372Y-231332D01*
G75*
D01*
G02X299723Y-230359I2348J-2348*
G01*
X345440Y-230359D01*
G74*
D01*
G02X347793Y-231337I0J3321*
G01*
X352863Y-236407D01*
G74*
D01*
G02X353729Y-237905I2343J2353*
G01*
X356030Y-237905D01*
G74*
D01*
G02X358045Y-239920I0J2015*
G01*
X358045Y-240519D01*
X364219Y-240519D01*
X364219Y-233069D01*
G75*
D01*
G02X364818Y-225088I-6079J4469*
G01*
G75*
D01*
G02X365740Y-224490I922J-412*
G01*
X369340Y-224490D01*
G74*
D01*
G02X370350Y-225500I0J1010*
G01*
X370350Y-226830D01*
G74*
D01*
G02X370562Y-227223I2810J1770*
G01*
G74*
D01*
G02X371330Y-225992I3578J1377*
G01*
X371330Y-225500D01*
G75*
D01*
G02X372340Y-224490I1010J0*
G01*
X375940Y-224490D01*
G74*
D01*
G02X376634Y-224767I0J1010*
G01*
X379581Y-224767D01*
G75*
D01*
G02X379581Y-232433I6499J-3833*
G01*
X376634Y-232433D01*
G74*
D01*
G02X375940Y-232710I694J733*
G01*
X372340Y-232710D01*
G75*
D01*
G02X371330Y-231700I0J1010*
G01*
X371330Y-231208D01*
G74*
D01*
G02X370861Y-230586I2810J2608*
G01*
X370861Y-242060D01*
G75*
D01*
G02X370860Y-242135I-3321J0*
G01*
G75*
D01*
G02X370820Y-245610I-2850J-1705*
G01*
X370820Y-246940D01*
G75*
D01*
G02X369810Y-247950I-1010J0*
G01*
X366210Y-247950D01*
G75*
D01*
G02X365225Y-247161I0J1010*
G01*
X358045Y-247161D01*
X358045Y-257920D01*
G75*
D01*
G02X356030Y-259935I-2015J0*
G01*
X353841Y-259935D01*
X353841Y-273423D01*
X354040Y-273423D01*
G74*
D01*
G02X356597Y-275980I0J2557*
G01*
X356597Y-281159D01*
X370838Y-281159D01*
X379581Y-240007D02*
G75*
D01*
G02X379581Y-247673I6499J-3833*
G01*
X377104Y-247673D01*
G74*
D01*
G02X376410Y-247950I694J733*
G01*
X372810Y-247950D01*
G75*
D01*
G02X371800Y-246940I0J1010*
G01*
X371800Y-240740D01*
G75*
D01*
G02X372810Y-239730I1010J0*
G01*
X376410Y-239730D01*
G74*
D01*
G02X377104Y-240007I0J1010*
G01*
X379581Y-240007D01*
X546335Y127000D02*
G75*
D01*
G02X546335Y127000I17545J0*
G01*
X543385Y695960D02*
G75*
D01*
G02X543385Y695960I10335J0*
G01*
X543385Y670560D02*
G75*
D01*
G02X543385Y670560I10335J0*
G01*
X546335Y581660D02*
G75*
D01*
G02X546335Y581660I17545J0*
G01*
X543385Y518160D02*
G75*
D01*
G02X543385Y518160I10335J0*
G01*
X543385Y431800D02*
G75*
D01*
G02X543385Y431800I10335J0*
G01*
X147555Y1079500D02*
G75*
D01*
G02X147555Y1079500I17545J0*
G01*
X147313Y-204982D02*
X147313Y-250056D01*
G75*
D01*
G02X145761Y-251608I-1552J0*
G01*
X133484Y-251608D01*
G75*
D01*
G02X131932Y-250056I0J1552*
G01*
X131932Y-74898D01*
G75*
D01*
G02X133484Y-73346I1552J0*
G01*
X145761Y-73346D01*
G74*
D01*
G02X147313Y-74898I0J1552*
G01*
X147313Y-98967D01*
G75*
D01*
G02X148724Y-98061I1411J-646*
G01*
X161001Y-98061D01*
G74*
D01*
G02X162553Y-99613I0J1552*
G01*
X162553Y-110556D01*
G75*
D01*
G02X163964Y-109650I1411J-646*
G01*
X176241Y-109650D01*
G74*
D01*
G02X177793Y-111202I0J1552*
G01*
X177793Y-196716D01*
G75*
D01*
G02X176241Y-198268I-1552J0*
G01*
X163964Y-198268D01*
G75*
D01*
G02X162553Y-197362I0J1552*
G01*
X162553Y-204336D01*
G75*
D01*
G02X161001Y-205888I-1552J0*
G01*
X148724Y-205888D01*
G75*
D01*
G02X147313Y-204982I0J1552*
G01*
X314530Y-259935D02*
G75*
D01*
G02X312515Y-257920I0J2015*
G01*
X312515Y-239920D01*
G75*
D01*
G02X314530Y-237905I2015J0*
G01*
X326030Y-237905D01*
G74*
D01*
G02X328045Y-239920I0J2015*
G01*
X328045Y-257920D01*
G75*
D01*
G02X326030Y-259935I-2015J0*
G01*
X324113Y-259935D01*
X324113Y-273424D01*
G74*
D01*
G02X326597Y-275980I73J2556*
G01*
X326597Y-292980D01*
G75*
D01*
G02X324040Y-295537I-2557J0*
G01*
X316040Y-295537D01*
G75*
D01*
G02X313483Y-292980I0J2557*
G01*
X313483Y-288313D01*
X300660Y-288313D01*
X300660Y-293230D01*
G75*
D01*
G02X299650Y-294240I-1010J0*
G01*
X289150Y-294240D01*
G75*
D01*
G02X288140Y-293230I0J1010*
G01*
X288140Y-275730D01*
G75*
D01*
G02X289150Y-274720I1010J0*
G01*
X299650Y-274720D01*
G74*
D01*
G02X300660Y-275730I0J1010*
G01*
X300660Y-280647D01*
X313483Y-280647D01*
X313483Y-275980D01*
G75*
D01*
G02X316040Y-273423I2557J0*
G01*
X316447Y-273423D01*
X316447Y-259935D01*
X314530Y-259935D01*
X157715Y-274320D02*
G75*
D01*
G02X157715Y-274320I17545J0*
G01*
X150235Y749308D02*
G75*
D01*
G02X158353Y750584I2165J12692*
G01*
X176636Y732301D01*
X271780Y732301D01*
G74*
D01*
G02X274133Y731323I0J3321*
G01*
X274418Y731039D01*
G75*
D01*
G02X269523Y725659I2442J-7139*
G01*
X175266Y725659D01*
G75*
D01*
G02X172912Y726632I-6J3321*
G01*
X150235Y749308D01*
X257021Y485238D02*
G75*
D01*
G02X261718Y480541I7139J2442*
G01*
X256353Y475177D01*
G74*
D01*
G02X254000Y474199I2353J2343*
G01*
X210560Y474199D01*
G75*
D01*
G02X210560Y480841I-12440J3321*
G01*
X252624Y480841D01*
X257021Y485238D01*
X304714Y576838D02*
X326363Y576838D01*
X329570Y580045D01*
X329570Y627669D01*
X328900Y628339D01*
G75*
D01*
G02X329079Y636293I-6320J4121*
G01*
X330197Y636293D01*
G75*
D01*
G02X330593Y636273I3J-3833*
G01*
G74*
D01*
G02X332916Y635165I393J3813*
G01*
X336109Y631973D01*
G74*
D01*
G02X337237Y629257I2706J2716*
G01*
X337237Y578457D01*
G75*
D01*
G02X336109Y575741I-3834J0*
G01*
X330667Y570300D01*
G74*
D01*
G02X327951Y569172I2716J2705*
G01*
X304714Y569172D01*
G75*
D01*
G02X304714Y576838I-6499J3833*
G01*
X134445Y340360D02*
G75*
D01*
G02X134445Y340360I12875J0*
G01*
X569900Y-105270D02*
G75*
D01*
G02X568890Y-106280I-1010J0*
G01*
X558390Y-106280D01*
G75*
D01*
G02X557380Y-105270I0J1010*
G01*
X557380Y-87770D01*
G75*
D01*
G02X558390Y-86760I1010J0*
G01*
X568890Y-86760D01*
G74*
D01*
G02X569900Y-87770I0J1010*
G01*
X569900Y-93667D01*
X578097Y-93667D01*
G75*
D01*
G02X578514Y-93689I3J-3833*
G01*
G74*
D01*
G02X580816Y-94795I414J3811*
G01*
X584271Y-98250D01*
X587860Y-98250D01*
G74*
D01*
G02X588870Y-99260I0J1010*
G01*
X588870Y-105260D01*
G75*
D01*
G02X587860Y-106270I-1010J0*
G01*
X577860Y-106270D01*
G75*
D01*
G02X576850Y-105260I0J1010*
G01*
X576850Y-101671D01*
X576512Y-101333D01*
X569900Y-101333D01*
X569900Y-105270D01*
X554155Y-131788D02*
X557380Y-128563D01*
X557380Y-118250D01*
G75*
D01*
G02X558390Y-117240I1010J0*
G01*
X568890Y-117240D01*
G74*
D01*
G02X569900Y-118250I0J1010*
G01*
X569900Y-124179D01*
X575244Y-124179D01*
X576850Y-122573D01*
X576850Y-118260D01*
G75*
D01*
G02X577860Y-117250I1010J0*
G01*
X587860Y-117250D01*
G74*
D01*
G02X588870Y-118260I0J1010*
G01*
X588870Y-124260D01*
G75*
D01*
G02X587860Y-125270I-1010J0*
G01*
X583547Y-125270D01*
X580777Y-128040D01*
G74*
D01*
G02X577500Y-130821I3277J540*
G01*
X569900Y-130821D01*
X569900Y-135750D01*
G75*
D01*
G02X568890Y-136760I-1010J0*
G01*
X566961Y-136760D01*
X566961Y-137893D01*
G75*
D01*
G02X560319Y-138128I-3081J-6887*
G01*
X560319Y-136760D01*
X558577Y-136760D01*
X557993Y-137343D01*
G74*
D01*
G02X556562Y-138190I2353J2343*
G01*
G75*
D01*
G02X555635Y-138321I-922J3190*
G01*
X555000Y-138321D01*
G75*
D01*
G02X554155Y-131788I0J3321*
G01*
X527380Y-135750D02*
X527380Y-126161D01*
X526312Y-125093D01*
X514910Y-125093D01*
G74*
D01*
G02X514340Y-125270I570J833*
G01*
X504340Y-125270D01*
G75*
D01*
G02X503330Y-124260I0J1010*
G01*
X503330Y-118260D01*
G75*
D01*
G02X504340Y-117250I1010J0*
G01*
X514340Y-117250D01*
G74*
D01*
G02X514910Y-117427I0J1010*
G01*
X527805Y-117427D01*
G75*
D01*
G02X528390Y-117240I585J-823*
G01*
X538890Y-117240D01*
G74*
D01*
G02X539900Y-118250I0J1010*
G01*
X539900Y-135750D01*
G75*
D01*
G02X538890Y-136760I-1010J0*
G01*
X528390Y-136760D01*
G75*
D01*
G02X527380Y-135750I0J1010*
G01*
X551180Y-252241D02*
G75*
D01*
G02X550169Y-252083I0J3321*
G01*
G74*
D01*
G02X548832Y-251268I1011J3163*
G01*
X525732Y-228168D01*
G75*
D01*
G02X524759Y-225811I2348J2348*
G01*
X524759Y-219295D01*
X522330Y-219295D01*
G75*
D01*
G02X520315Y-217280I0J2015*
G01*
X520315Y-199280D01*
G75*
D01*
G02X522330Y-197265I2015J0*
G01*
X524759Y-197265D01*
X524759Y-183735D01*
X522330Y-183735D01*
G75*
D01*
G02X520315Y-181720I0J2015*
G01*
X520315Y-163720D01*
G75*
D01*
G02X522330Y-161705I2015J0*
G01*
X533830Y-161705D01*
G74*
D01*
G02X535845Y-163720I0J2015*
G01*
X535845Y-167230D01*
G75*
D01*
G02X535845Y-178210I5175J-5490*
G01*
X535845Y-181720D01*
G75*
D01*
G02X533830Y-183735I-2015J0*
G01*
X531401Y-183735D01*
X531401Y-197265D01*
X533830Y-197265D01*
G74*
D01*
G02X535845Y-199280I0J2015*
G01*
X535845Y-217280D01*
G75*
D01*
G02X533830Y-219295I-2015J0*
G01*
X531401Y-219295D01*
X531401Y-224444D01*
X552556Y-245599D01*
X552780Y-245599D01*
X552780Y-240170D01*
G75*
D01*
G02X553790Y-239160I1010J0*
G01*
X564290Y-239160D01*
G74*
D01*
G02X565300Y-240170I0J1010*
G01*
X565300Y-257670D01*
G75*
D01*
G02X564290Y-258680I-1010J0*
G01*
X553790Y-258680D01*
G75*
D01*
G02X552780Y-257670I0J1010*
G01*
X552780Y-252241D01*
X551180Y-252241D01*
X534877Y-292980D02*
G75*
D01*
G02X532320Y-295537I-2557J0*
G01*
X524320Y-295537D01*
G75*
D01*
G02X521763Y-292980I0J2557*
G01*
X521763Y-275980D01*
G74*
D01*
G02X524247Y-273424I2557J0*
G01*
X524247Y-259935D01*
X522330Y-259935D01*
G75*
D01*
G02X520315Y-257920I0J2015*
G01*
X520315Y-239920D01*
G75*
D01*
G02X522330Y-237905I2015J0*
G01*
X533830Y-237905D01*
G74*
D01*
G02X535845Y-239920I0J2015*
G01*
X535845Y-257920D01*
G75*
D01*
G02X533830Y-259935I-2015J0*
G01*
X531913Y-259935D01*
X531913Y-273423D01*
X532320Y-273423D01*
G74*
D01*
G02X534877Y-275980I0J2557*
G01*
X534877Y-280647D01*
X552780Y-280647D01*
X552780Y-275730D01*
G75*
D01*
G02X553790Y-274720I1010J0*
G01*
X564290Y-274720D01*
G74*
D01*
G02X565300Y-275730I0J1010*
G01*
X565300Y-293230D01*
G75*
D01*
G02X564290Y-294240I-1010J0*
G01*
X553790Y-294240D01*
G75*
D01*
G02X552780Y-293230I0J1010*
G01*
X552780Y-288313D01*
X534877Y-288313D01*
X534877Y-292980D01*
X129557Y1120123D02*
X129557Y-307323D01*
X617203Y-307323D01*
X617203Y1120123D01*
X129557Y1120123D01*
X423552Y-239772D02*
G74*
D01*
G02X421256Y-240910I4452J6092*
G01*
X421256Y-242624D01*
G74*
D01*
G02X422087Y-241237I3179J961*
G01*
X423552Y-239772D01*
X324265Y-9250D02*
G75*
D01*
G02X326280Y-7235I2015J0*
G01*
X344280Y-7235D01*
G74*
D01*
G02X346295Y-9250I0J2015*
G01*
X346295Y-20750D01*
G75*
D01*
G02X344280Y-22765I-2015J0*
G01*
X338601Y-22765D01*
X338601Y-26245D01*
G75*
D01*
G02X331959Y-26245I-3321J-6775*
G01*
X331959Y-22765D01*
X326280Y-22765D01*
G75*
D01*
G02X324265Y-20750I0J2015*
G01*
X324265Y-18321D01*
X310735Y-18321D01*
X310735Y-20750D01*
G75*
D01*
G02X308720Y-22765I-2015J0*
G01*
X290720Y-22765D01*
G75*
D01*
G02X288705Y-20750I0J2015*
G01*
X288705Y-18321D01*
X275175Y-18321D01*
X275175Y-20750D01*
G75*
D01*
G02X273160Y-22765I-2015J0*
G01*
X255160Y-22765D01*
G75*
D01*
G02X253145Y-20750I0J2015*
G01*
X253145Y-9250D01*
G75*
D01*
G02X255160Y-7235I2015J0*
G01*
X273160Y-7235D01*
G74*
D01*
G02X275175Y-9250I0J2015*
G01*
X275175Y-11679D01*
X288705Y-11679D01*
X288705Y-9250D01*
G75*
D01*
G02X290720Y-7235I2015J0*
G01*
X308720Y-7235D01*
G74*
D01*
G02X310735Y-9250I0J2015*
G01*
X310735Y-11679D01*
X324265Y-11679D01*
X324265Y-9250D01*
X316775Y83321D02*
X325994Y83321D01*
G75*
D01*
G02X326991Y83170I6J-3321*
G01*
G74*
D01*
G02X328353Y82343I991J3170*
G01*
X330343Y80353D01*
G74*
D01*
G02X331321Y78000I2343J2353*
G01*
X331321Y75376D01*
X332497Y74200D01*
X337350Y74200D01*
G74*
D01*
G02X338360Y73190I0J1010*
G01*
X338360Y51690D01*
G75*
D01*
G02X337350Y50680I-1010J0*
G01*
X335921Y50680D01*
X335921Y50022D01*
G75*
D01*
G02X329279Y49884I-3181J-6842*
G01*
X329279Y50680D01*
X327850Y50680D01*
G75*
D01*
G02X326840Y51690I0J1010*
G01*
X326840Y70463D01*
X325652Y71652D01*
G75*
D01*
G02X324679Y74010I2348J2348*
G01*
X324679Y76624D01*
X324624Y76679D01*
X316775Y76679D01*
G75*
D01*
G02X316775Y83321I-6775J3321*
G01*
X247510Y-212420D02*
G74*
D01*
G02X248520Y-213430I0J1010*
G01*
X248520Y-223930D01*
G75*
D01*
G02X247510Y-224940I-1010J0*
G01*
X230010Y-224940D01*
G75*
D01*
G02X229000Y-223930I0J1010*
G01*
X229000Y-213430D01*
G75*
D01*
G02X230010Y-212420I1010J0*
G01*
X235439Y-212420D01*
X235439Y-127005D01*
G75*
D01*
G02X236412Y-124652I3321J5*
G01*
X256732Y-104332D01*
G75*
D01*
G02X259081Y-103359I2348J-2348*
G01*
X349179Y-103359D01*
X349179Y-96152D01*
G75*
D01*
G02X349431Y-94877I3321J7*
G01*
X352279Y-87986D01*
X352279Y-14076D01*
X332932Y5272D01*
G74*
D01*
G02X331981Y7235I2348J2348*
G01*
X326280Y7235D01*
G75*
D01*
G02X324265Y9250I0J2015*
G01*
X324265Y11679D01*
X310735Y11679D01*
X310735Y9250D01*
G75*
D01*
G02X308720Y7235I-2015J0*
G01*
X290720Y7235D01*
G75*
D01*
G02X288705Y9250I0J2015*
G01*
X288705Y11679D01*
X275175Y11679D01*
X275175Y9250D01*
G75*
D01*
G02X273160Y7235I-2015J0*
G01*
X255160Y7235D01*
G75*
D01*
G02X253145Y9250I0J2015*
G01*
X253145Y20750D01*
G75*
D01*
G02X255160Y22765I2015J0*
G01*
X273160Y22765D01*
G74*
D01*
G02X275175Y20750I0J2015*
G01*
X275175Y18321D01*
X288705Y18321D01*
X288705Y20750D01*
G75*
D01*
G02X290720Y22765I2015J0*
G01*
X308720Y22765D01*
G74*
D01*
G02X310735Y20750I0J2015*
G01*
X310735Y18321D01*
X311679Y18321D01*
X311679Y22492D01*
G75*
D01*
G02X312652Y24848I3321J8*
G01*
X320152Y32348D01*
G75*
D01*
G02X322507Y33321I2348J-2348*
G01*
X343624Y33321D01*
X349179Y38876D01*
X349179Y52492D01*
G75*
D01*
G02X349840Y54489I3321J8*
G01*
X349840Y60452D01*
G75*
D01*
G02X349179Y62440I2660J1988*
G01*
X349179Y108680D01*
X339350Y108680D01*
G75*
D01*
G02X338340Y109690I0J1010*
G01*
X338340Y117119D01*
X285960Y117119D01*
G75*
D01*
G02X285224Y117202I0J3321*
G01*
G74*
D01*
G02X283612Y118092I736J3238*
G01*
X269432Y132272D01*
G75*
D01*
G02X268459Y134630I2348J2348*
G01*
X268459Y176105D01*
G75*
D01*
G02X275101Y176105I3321J6775*
G01*
X275101Y135996D01*
X287336Y123761D01*
X338340Y123761D01*
X338340Y131190D01*
G75*
D01*
G02X339350Y132200I1010J0*
G01*
X371850Y132200D01*
G74*
D01*
G02X372860Y131190I0J1010*
G01*
X372860Y109690D01*
G75*
D01*
G02X371850Y108680I-1010J0*
G01*
X355821Y108680D01*
X355821Y74200D01*
X360350Y74200D01*
G74*
D01*
G02X361360Y73190I0J1010*
G01*
X361360Y51690D01*
G75*
D01*
G02X360350Y50680I-1010J0*
G01*
X355821Y50680D01*
X355821Y37500D01*
G75*
D01*
G02X354843Y35147I-3321J0*
G01*
X347353Y27657D01*
G74*
D01*
G02X345000Y26679I2353J2343*
G01*
X323876Y26679D01*
X318321Y21124D01*
X318321Y18321D01*
X324265Y18321D01*
X324265Y20750D01*
G75*
D01*
G02X326280Y22765I2015J0*
G01*
X344280Y22765D01*
G74*
D01*
G02X346295Y20750I0J2015*
G01*
X346295Y9250D01*
G75*
D01*
G02X344280Y7235I-2015J0*
G01*
X340361Y7235D01*
X357943Y-10347D01*
G74*
D01*
G02X358921Y-12700I2343J2353*
G01*
X358921Y-88645D01*
G75*
D01*
G02X358666Y-89921I-3321J0*
G01*
X355821Y-96804D01*
X355821Y-103359D01*
X370956Y-103359D01*
G75*
D01*
G02X384810Y-100065I7504J-781*
G01*
G75*
D01*
G02X397510Y-100065I6350J-4075*
G01*
G75*
D01*
G02X404801Y-111626I6350J-4075*
G01*
X404801Y-118078D01*
X413239Y-109640D01*
X413239Y-37817D01*
G75*
D01*
G02X407647Y-23981I-1759J7337*
G01*
X407647Y-22765D01*
X402480Y-22765D01*
G75*
D01*
G02X400465Y-20750I0J2015*
G01*
X400465Y-18321D01*
X397095Y-18321D01*
X397095Y-20750D01*
G75*
D01*
G02X395080Y-22765I-2015J0*
G01*
X389401Y-22765D01*
X389401Y-23705D01*
G75*
D01*
G02X382759Y-23705I-3321J-6775*
G01*
X382759Y-22765D01*
X377080Y-22765D01*
G75*
D01*
G02X375065Y-20750I0J2015*
G01*
X375065Y-9250D01*
G75*
D01*
G02X377080Y-7235I2015J0*
G01*
X395080Y-7235D01*
G74*
D01*
G02X397095Y-9250I0J2015*
G01*
X397095Y-11679D01*
X400465Y-11679D01*
X400465Y-9250D01*
G75*
D01*
G02X402480Y-7235I2015J0*
G01*
X420480Y-7235D01*
G74*
D01*
G02X422495Y-9250I0J2015*
G01*
X422495Y-11679D01*
X436025Y-11679D01*
X436025Y-9250D01*
G75*
D01*
G02X438040Y-7235I2015J0*
G01*
X456040Y-7235D01*
G74*
D01*
G02X458055Y-9250I0J2015*
G01*
X458055Y-20750D01*
G75*
D01*
G02X456040Y-22765I-2015J0*
G01*
X450361Y-22765D01*
X450361Y-26771D01*
X454173Y-30583D01*
X467034Y-30583D01*
G74*
D01*
G02X469534Y-32602I0J2557*
G01*
G75*
D01*
G02X472034Y-30583I2500J-538*
G01*
X475701Y-30583D01*
X475701Y-21260D01*
X473850Y-21260D01*
G75*
D01*
G02X472840Y-20250I0J1010*
G01*
X472840Y-9750D01*
G75*
D01*
G02X473850Y-8740I1010J0*
G01*
X491350Y-8740D01*
G74*
D01*
G02X492360Y-9750I0J1010*
G01*
X492360Y-20250D01*
G75*
D01*
G02X491350Y-21260I-1010J0*
G01*
X483367Y-21260D01*
X483367Y-30583D01*
X487034Y-30583D01*
G74*
D01*
G02X489591Y-33140I0J2557*
G01*
X489591Y-48140D01*
G75*
D01*
G02X487034Y-50697I-2557J0*
G01*
X472034Y-50697D01*
G75*
D01*
G02X469534Y-48678I0J2557*
G01*
G74*
D01*
G02X467034Y-50697I2500J538*
G01*
X452034Y-50697D01*
G75*
D01*
G02X449477Y-48140I0J2557*
G01*
X449477Y-35279D01*
X444692Y-30494D01*
G75*
D01*
G02X443719Y-28138I2348J2348*
G01*
X443719Y-22765D01*
X438040Y-22765D01*
G75*
D01*
G02X436025Y-20750I0J2015*
G01*
X436025Y-18321D01*
X422495Y-18321D01*
X422495Y-20750D01*
G75*
D01*
G02X420480Y-22765I-2015J0*
G01*
X415313Y-22765D01*
X415313Y-23981D01*
G75*
D01*
G02X418619Y-32922I-3833J-6499*
G01*
X418903Y-33207D01*
G74*
D01*
G02X419881Y-35560I2343J2353*
G01*
X419881Y-83173D01*
G75*
D01*
G02X432079Y-81049I6839J-3187*
G01*
X432079Y-65618D01*
G75*
D01*
G02X438721Y-64563I2261J7198*
G01*
X438721Y-146260D01*
G75*
D01*
G02X435400Y-149581I-3321J0*
G01*
X431756Y-149581D01*
G74*
D01*
G02X431766Y-149760I1526J179*
G01*
X431766Y-150477D01*
X437696Y-150477D01*
X441177Y-146996D01*
X441177Y-68583D01*
G75*
D01*
G02X441406Y-68026I783J3*
G01*
X451566Y-57866D01*
G75*
D01*
G02X452122Y-57637I554J-554*
G01*
X494976Y-57637D01*
X499597Y-53016D01*
X499597Y30156D01*
X492436Y37317D01*
X431800Y37317D01*
G75*
D01*
G02X431017Y38100I0J783*
G01*
X431017Y213356D01*
G75*
D01*
G02X431246Y213913I783J4*
G01*
X453877Y236544D01*
X453877Y266376D01*
X443946Y276307D01*
G75*
D01*
G02X443717Y276865I554J553*
G01*
X443717Y289557D01*
G75*
D01*
G02X443947Y290114I783J3*
G01*
X458957Y305124D01*
X458957Y370837D01*
G75*
D01*
G02X459186Y371393I783J3*
G01*
X486897Y399104D01*
X486897Y424180D01*
G75*
D01*
G02X487680Y424963I783J0*
G01*
X503032Y424963D01*
X503657Y425588D01*
X503657Y489247D01*
X490767Y502137D01*
X464820Y502137D01*
G75*
D01*
G02X464037Y502920I0J783*
G01*
X464037Y520376D01*
X393146Y591267D01*
G75*
D01*
G02X392917Y591825I554J553*
G01*
X392917Y622298D01*
G75*
D01*
G02X393147Y622854I783J2*
G01*
X413237Y642944D01*
X413237Y731196D01*
X385526Y758907D01*
G75*
D01*
G02X385297Y759465I554J553*
G01*
X385297Y817876D01*
G75*
D01*
G02X385526Y818433I783J4*
G01*
X390607Y823514D01*
G75*
D01*
G02X391163Y823743I553J-554*
G01*
X403536Y823743D01*
X418317Y838524D01*
X418317Y868356D01*
X413466Y873207D01*
G75*
D01*
G02X413237Y873765I554J553*
G01*
X413237Y993136D01*
G75*
D01*
G02X413466Y993693I783J4*
G01*
X416007Y996234D01*
G75*
D01*
G02X416563Y996463I553J-554*
G01*
X418903Y996463D01*
X418903Y1000680D01*
G74*
D01*
G02X419288Y1002030I2557J0*
G01*
G75*
D01*
G02X418903Y1003380I2172J1350*
G01*
X418903Y1013380D01*
G74*
D01*
G02X419288Y1014730I2557J0*
G01*
G75*
D01*
G02X418903Y1016080I2172J1350*
G01*
X418903Y1026080D01*
G74*
D01*
G02X419288Y1027430I2557J0*
G01*
G75*
D01*
G02X418903Y1028780I2172J1350*
G01*
X418903Y1038780D01*
G74*
D01*
G02X419288Y1040130I2557J0*
G01*
G75*
D01*
G02X418903Y1041480I2172J1350*
G01*
X418903Y1046679D01*
X264017Y1046679D01*
X264017Y1041480D01*
G75*
D01*
G02X263632Y1040130I-2557J0*
G01*
G74*
D01*
G02X264017Y1038780I2172J1350*
G01*
X264017Y1037613D01*
X265281Y1037613D01*
G75*
D01*
G02X265281Y1029947I6499J-3833*
G01*
X264017Y1029947D01*
X264017Y1028780D01*
G75*
D01*
G02X263632Y1027430I-2557J0*
G01*
G74*
D01*
G02X264017Y1026080I2172J1350*
G01*
X264017Y1016080D01*
G75*
D01*
G02X263632Y1014730I-2557J0*
G01*
G74*
D01*
G02X264017Y1013380I2172J1350*
G01*
X264017Y1003380D01*
G75*
D01*
G02X263632Y1002030I-2557J0*
G01*
G74*
D01*
G02X264017Y1000680I2172J1350*
G01*
X264017Y990680D01*
G75*
D01*
G02X263632Y989330I-2557J0*
G01*
G74*
D01*
G02X264017Y987980I2172J1350*
G01*
X264017Y977980D01*
G75*
D01*
G02X263632Y976630I-2557J0*
G01*
G74*
D01*
G02X264017Y975280I2172J1350*
G01*
X264017Y965280D01*
G75*
D01*
G02X263632Y963930I-2557J0*
G01*
G74*
D01*
G02X264017Y962580I2172J1350*
G01*
X264017Y952580D01*
G75*
D01*
G02X263632Y951230I-2557J0*
G01*
G74*
D01*
G02X264017Y949880I2172J1350*
G01*
X264017Y939880D01*
G75*
D01*
G02X263632Y938530I-2557J0*
G01*
G74*
D01*
G02X264017Y937180I2172J1350*
G01*
X264017Y935813D01*
X266700Y935813D01*
G74*
D01*
G02X270533Y931980I0J3833*
G01*
X270533Y885508D01*
X275908Y880133D01*
X399208Y880133D01*
G75*
D01*
G02X400667Y879848I8J-3833*
G01*
G74*
D01*
G02X401932Y879005I1451J3548*
G01*
X416725Y864212D01*
G74*
D01*
G02X417853Y861496I2705J2716*
G01*
X417853Y840740D01*
G75*
D01*
G02X416725Y838024I-3833J0*
G01*
X404036Y825335D01*
G74*
D01*
G02X401320Y824207I2716J2705*
G01*
X385128Y824207D01*
X384833Y823912D01*
X384833Y758508D01*
X411645Y731696D01*
G74*
D01*
G02X412773Y728980I2705J2716*
G01*
X412773Y645160D01*
G75*
D01*
G02X411645Y642444I-3833J0*
G01*
X392453Y623252D01*
X392453Y588328D01*
X462445Y518336D01*
G74*
D01*
G02X463573Y515620I2705J2716*
G01*
X463573Y501968D01*
X463868Y501673D01*
X487675Y501673D01*
G75*
D01*
G02X488663Y501545I5J-3833*
G01*
G74*
D01*
G02X490396Y500545I983J3705*
G01*
X500545Y490396D01*
G74*
D01*
G02X501673Y487680I2705J2716*
G01*
X501673Y431800D01*
G75*
D01*
G02X497840Y427967I-3833J0*
G01*
X481353Y427967D01*
X481353Y401320D01*
G75*
D01*
G02X480225Y398604I-3833J0*
G01*
X453413Y371792D01*
X453413Y312420D01*
G75*
D01*
G02X452285Y309704I-3833J0*
G01*
X435633Y293052D01*
X435633Y270828D01*
X444665Y261796D01*
G74*
D01*
G02X445793Y259080I2705J2716*
G01*
X445793Y250339D01*
G75*
D01*
G02X438127Y250339I-3833J-6499*
G01*
X438127Y257492D01*
X429089Y266529D01*
G74*
D01*
G02X428013Y268642I2711J2711*
G01*
X428013Y149860D01*
G75*
D01*
G02X424180Y146027I-3833J0*
G01*
X417979Y146027D01*
G75*
D01*
G02X417979Y153693I-6499J3833*
G01*
X420347Y153693D01*
X420347Y299715D01*
G75*
D01*
G02X421469Y302431I3833J5*
G01*
X438127Y319088D01*
X438127Y378452D01*
G75*
D01*
G02X439249Y381171I3833J8*
G01*
X463527Y405448D01*
X463527Y436872D01*
G75*
D01*
G02X464649Y439591I3833J8*
G01*
X467189Y442131D01*
G74*
D01*
G02X469302Y443207I2711J2711*
G01*
X466408Y443207D01*
X461033Y437832D01*
X461033Y408940D01*
G75*
D01*
G02X459905Y406224I-3833J0*
G01*
X435633Y381952D01*
X435633Y325120D01*
G75*
D01*
G02X434505Y322404I-3833J0*
G01*
X415313Y303212D01*
X415313Y191919D01*
G75*
D01*
G02X407647Y191919I-3833J-6499*
G01*
X407647Y200532D01*
G74*
D01*
G02X406565Y198414I3787J598*
G01*
X375714Y167563D01*
X375714Y167563D01*
X372051Y163900D01*
G74*
D01*
G02X369335Y162772I2716J2705*
G01*
X358054Y162772D01*
G75*
D01*
G02X344022Y166176I-6499J3833*
G01*
X342636Y167563D01*
X342636Y167563D01*
X313372Y196827D01*
X303595Y196827D01*
X310205Y190216D01*
G74*
D01*
G02X311333Y187500I2705J2716*
G01*
X311333Y151588D01*
X316588Y146333D01*
X374993Y146333D01*
G75*
D01*
G02X376401Y146068I7J-3833*
G01*
G74*
D01*
G02X377716Y145205I1401J3568*
G01*
X385205Y137716D01*
G74*
D01*
G02X386333Y135000I2705J2716*
G01*
X386333Y75000D01*
G75*
D01*
G02X385205Y72284I-3833J0*
G01*
X384360Y71439D01*
X384360Y51690D01*
G75*
D01*
G02X383350Y50680I-1010J0*
G01*
X378833Y50680D01*
X378833Y26325D01*
G74*
D01*
G02X379981Y26068I253J3825*
G01*
G74*
D01*
G02X381296Y25205I1401J3568*
G01*
X383737Y22765D01*
X395080Y22765D01*
G74*
D01*
G02X397095Y20750I0J2015*
G01*
X397095Y18833D01*
X400465Y18833D01*
X400465Y20750D01*
G75*
D01*
G02X402480Y22765I2015J0*
G01*
X420480Y22765D01*
G74*
D01*
G02X422495Y20750I0J2015*
G01*
X422495Y18833D01*
X436025Y18833D01*
X436025Y20750D01*
G75*
D01*
G02X438040Y22765I2015J0*
G01*
X456040Y22765D01*
G74*
D01*
G02X458055Y20750I0J2015*
G01*
X458055Y18833D01*
X472840Y18833D01*
X472840Y20250D01*
G75*
D01*
G02X473850Y21260I1010J0*
G01*
X491350Y21260D01*
G74*
D01*
G02X492360Y20250I0J1010*
G01*
X492360Y9750D01*
G75*
D01*
G02X491350Y8740I-1010J0*
G01*
X473850Y8740D01*
G75*
D01*
G02X472840Y9750I0J1010*
G01*
X472840Y11167D01*
X458055Y11167D01*
X458055Y9250D01*
G75*
D01*
G02X456040Y7235I-2015J0*
G01*
X438040Y7235D01*
G75*
D01*
G02X436025Y9250I0J2015*
G01*
X436025Y11167D01*
X422495Y11167D01*
X422495Y9250D01*
G75*
D01*
G02X420480Y7235I-2015J0*
G01*
X402480Y7235D01*
G75*
D01*
G02X400465Y9250I0J2015*
G01*
X400465Y11167D01*
X397095Y11167D01*
X397095Y9250D01*
G75*
D01*
G02X395080Y7235I-2015J0*
G01*
X377080Y7235D01*
G75*
D01*
G02X375065Y9250I0J2015*
G01*
X375065Y18667D01*
X375000Y18667D01*
G75*
D01*
G02X371167Y22500I0J3833*
G01*
X371167Y52493D01*
G75*
D01*
G02X372289Y55211I3833J7*
G01*
X372840Y55761D01*
X372840Y73190D01*
G75*
D01*
G02X373850Y74200I1010J0*
G01*
X376279Y74200D01*
X378667Y76588D01*
X378667Y133412D01*
X373412Y138667D01*
X315000Y138667D01*
G75*
D01*
G02X314781Y138673I0J3833*
G01*
G74*
D01*
G02X312289Y139789I219J3827*
G01*
X304789Y147289D01*
G75*
D01*
G02X303667Y150011I2711J2711*
G01*
X303667Y185912D01*
X298412Y191167D01*
X233488Y191167D01*
X228833Y186512D01*
X228833Y-227162D01*
X230338Y-228667D01*
X249662Y-228667D01*
X251167Y-227162D01*
X251167Y-176259D01*
G75*
D01*
G02X252289Y-173539I3833J9*
G01*
X256039Y-169789D01*
G75*
D01*
G02X258757Y-168667I2711J-2711*
G01*
X281167Y-168667D01*
X281167Y-139570D01*
X273810Y-139570D01*
G75*
D01*
G02X272800Y-138560I0J1010*
G01*
X272800Y-116560D01*
G75*
D01*
G02X273810Y-115550I1010J0*
G01*
X305310Y-115550D01*
G74*
D01*
G02X306320Y-116560I0J1010*
G01*
X306320Y-138560D01*
G75*
D01*
G02X305310Y-139570I-1010J0*
G01*
X288833Y-139570D01*
X288833Y-168667D01*
X320912Y-168667D01*
X326167Y-163412D01*
X326167Y-142508D01*
G75*
D01*
G02X327289Y-139789I3833J8*
G01*
X334789Y-132289D01*
G75*
D01*
G02X337507Y-131167I2711J-2711*
G01*
X376736Y-131167D01*
G74*
D01*
G02X380133Y-133224I0J3833*
G01*
X382230Y-133224D01*
G74*
D01*
G02X383569Y-134006I0J1536*
G01*
G74*
D01*
G02X384127Y-133260I1451J504*
G01*
G75*
D01*
G02X383484Y-132010I893J1250*
G01*
X383484Y-128920D01*
X381233Y-126669D01*
G74*
D01*
G02X380152Y-125948I1267J3069*
G01*
X373572Y-119368D01*
G75*
D01*
G02X372599Y-117012I2348J2348*
G01*
X372599Y-110001D01*
X260456Y-110001D01*
X242081Y-128376D01*
X242081Y-212420D01*
X247510Y-212420D01*
X265131Y-176333D02*
X260338Y-176333D01*
X258833Y-177838D01*
X258833Y-182631D01*
G74*
D01*
G02X259789Y-181039I3667J1119*
G01*
X263539Y-177289D01*
G74*
D01*
G02X265131Y-176333I2711J2711*
G01*
X383484Y-158648D02*
X383484Y-158872D01*
G74*
D01*
G03X383396Y-158760I1254J888*
G01*
G74*
D01*
G03X383484Y-158648I1166J1000*
G01*
X383396Y-163760D02*
G74*
D01*
G03X383484Y-163648I1166J1000*
G01*
X383484Y-163872D01*
G74*
D01*
G03X383396Y-163760I1254J888*
G01*
X383396Y-138760D02*
G74*
D01*
G03X383484Y-138648I1166J1000*
G01*
X383484Y-138872D01*
G74*
D01*
G03X383396Y-138760I1254J888*
G01*
X383396Y-148760D02*
G74*
D01*
G03X383484Y-148648I1166J1000*
G01*
X383484Y-148872D01*
G74*
D01*
G03X383396Y-148760I1254J888*
G01*
X383396Y-153760D02*
G74*
D01*
G03X383484Y-153648I1166J1000*
G01*
X383484Y-153872D01*
G74*
D01*
G03X383396Y-153760I1254J888*
G01*
X383396Y-143760D02*
G74*
D01*
G02X383484Y-143872I1166J1000*
G01*
X383484Y-143648D01*
G74*
D01*
G02X383396Y-143760I1254J888*
G01*
X428801Y-93612D02*
G74*
D01*
G03X432079Y-91671I2081J7252*
G01*
X432079Y-142939D01*
X431756Y-142939D01*
G75*
D01*
G03X431766Y-142760I-1526J179*
G01*
X431766Y-139760D01*
G74*
D01*
G03X431396Y-138760I1536J0*
G01*
G75*
D01*
G03X431766Y-137760I-1166J1000*
G01*
X431766Y-134760D01*
G74*
D01*
G03X430230Y-133224I1536J0*
G01*
X428801Y-133224D01*
X428801Y-93612D01*
X379241Y-111644D02*
G74*
D01*
G03X384810Y-108215I781J7504*
G01*
G74*
D01*
G03X387839Y-110915I6350J4075*
G01*
X387839Y-111751D01*
G75*
D01*
G03X388812Y-114108I3321J-9*
G01*
X393159Y-118456D01*
X393159Y-120984D01*
G74*
D01*
G03X392980Y-120974I179J1526*
G01*
X389980Y-120974D01*
G75*
D01*
G03X389000Y-121327I0J-1536*
G01*
G74*
D01*
G03X388020Y-120974I980J1183*
G01*
X385020Y-120974D01*
G75*
D01*
G03X384933Y-120976I0J-1536*
G01*
X383618Y-119661D01*
G74*
D01*
G03X382537Y-118940I2348J2349*
G01*
X379241Y-115644D01*
X379241Y-111644D01*
X419881Y-89547D02*
G74*
D01*
G03X422159Y-92370I6839J3187*
G01*
X422159Y-133224D01*
X420730Y-133224D01*
G75*
D01*
G03X419744Y-133582I0J-1536*
G01*
G74*
D01*
G03X419082Y-133080I1224J928*
G01*
G75*
D01*
G03X419516Y-132010I-1102J1070*
G01*
X419516Y-122510D01*
G74*
D01*
G03X417980Y-120974I1536J0*
G01*
X414980Y-120974D01*
G75*
D01*
G03X413980Y-121344I0J-1536*
G01*
G74*
D01*
G03X412980Y-120974I1000J1166*
G01*
X411299Y-120974D01*
X418903Y-113369D01*
G75*
D01*
G03X419881Y-111016I-2343J2353*
G01*
X419881Y-89547D01*
X394829Y-110733D02*
G74*
D01*
G03X397510Y-108215I3669J6593*
G01*
G74*
D01*
G03X398159Y-109082I6350J4075*
G01*
X398159Y-114062D01*
X394829Y-110733D01*
X317676Y203365D02*
G74*
D01*
G03X315558Y204447I2716J2705*
G01*
X318452Y204447D01*
X335594Y187305D01*
G74*
D01*
G03X335360Y185682I7306J1885*
G01*
X317676Y203365D01*
X444665Y314784D02*
X428013Y298132D01*
X428013Y295238D01*
G74*
D01*
G02X429089Y297351I3787J598*
G01*
X445747Y314008D01*
X445747Y316902D01*
G74*
D01*
G02X444665Y314784I3787J598*
G01*
X446869Y376091D02*
X473687Y402908D01*
X473687Y431800D01*
G74*
D01*
G02X476922Y435587I3833J0*
G01*
X471488Y435587D01*
X471193Y435292D01*
X471193Y403860D01*
G75*
D01*
G02X470065Y401144I-3833J0*
G01*
X445793Y376872D01*
X445793Y373978D01*
G74*
D01*
G02X446869Y376091I3787J598*
G01*
X494007Y435795D02*
G74*
D01*
G02X493358Y435633I1247J3625*
G01*
X494007Y435633D01*
X494007Y435795D01*
X485647Y443253D02*
X488927Y443253D01*
X488927Y481012D01*
X488882Y481057D01*
X488882Y447040D01*
G75*
D01*
G02X485647Y443253I-3833J0*
G01*
X477685Y475156D02*
G74*
D01*
G02X478813Y472440I2705J2716*
G01*
X478813Y468779D01*
G74*
D01*
G02X481215Y466528I3833J6499*
G01*
X481215Y481103D01*
X478472Y483847D01*
X467958Y483847D01*
G74*
D01*
G02X468492Y483722I598J3787*
G01*
G74*
D01*
G02X470076Y482765I1132J3662*
G01*
X477685Y475156D01*
X409132Y597092D02*
G75*
D01*
G02X408159Y599450I2348J2348*
G01*
X408159Y616822D01*
X407181Y615844D01*
X407181Y598276D01*
X477323Y528133D01*
G74*
D01*
G02X478301Y525780I2343J2353*
G01*
X478301Y516401D01*
X495293Y516401D01*
G75*
D01*
G02X496512Y516172I7J-3321*
G01*
G74*
D01*
G02X497653Y515423I1212J3092*
G01*
X516943Y496133D01*
G74*
D01*
G02X517379Y495598I2343J2353*
G01*
X517379Y496464D01*
X493924Y519919D01*
X482600Y519919D01*
G75*
D01*
G02X479279Y523240I0J3321*
G01*
X479279Y526944D01*
X409132Y597092D01*
X445793Y492162D02*
X445793Y487472D01*
X449372Y483893D01*
X454062Y483893D01*
G74*
D01*
G02X451949Y484969I598J3787*
G01*
X446869Y490049D01*
G74*
D01*
G02X445793Y492162I2711J2711*
G01*
X445646Y509053D02*
G74*
D01*
G02X445747Y508598I3686J1053*
G01*
X445747Y508952D01*
X445646Y509053D01*
X427501Y700393D02*
X427501Y637938D01*
X431019Y641456D01*
X431019Y696805D01*
G74*
D01*
G02X427501Y700393I3321J6775*
G01*
X399833Y722506D02*
G74*
D01*
G03X399808Y722513I1053J3686*
G01*
X374673Y747648D01*
X374673Y747666D01*
X399833Y722506D01*
X394947Y715543D02*
G74*
D01*
G03X393131Y716862I5292J5378*
G01*
G74*
D01*
G03X392360Y717961I3476J1617*
G01*
X367053Y743268D01*
X367053Y745461D01*
G74*
D01*
G03X368129Y743350I3787J599*
G01*
X394947Y716532D01*
X394947Y715543D01*
X543385Y1066800D02*
G75*
D01*
G02X543385Y1066800I10335J0*
G01*
X543385Y1016000D02*
G75*
D01*
G02X543385Y1016000I10335J0*
G01*
X473285Y798341D02*
G75*
D01*
G02X473285Y791699I6775J-3321*
G01*
X425875Y791699D01*
G75*
D01*
G02X425875Y798341I-6775J3321*
G01*
X473285Y798341D01*
X444017Y886380D02*
X444017Y876380D01*
G75*
D01*
G02X441460Y873823I-2557J0*
G01*
X434642Y873823D01*
G74*
D01*
G02X434165Y873244I3182J2137*
G01*
X428013Y867092D01*
X428013Y835660D01*
G75*
D01*
G02X426885Y832944I-3833J0*
G01*
X410062Y816121D01*
X420264Y816121D01*
X424661Y820518D01*
G75*
D01*
G02X429358Y815821I7139J2442*
G01*
X423993Y810457D01*
G74*
D01*
G02X421640Y809479I2353J2343*
G01*
X400156Y809479D01*
X399561Y808884D01*
X399561Y765916D01*
X426523Y738953D01*
G74*
D01*
G02X427501Y736600I2343J2353*
G01*
X427501Y706767D01*
G75*
D01*
G02X436782Y710719I6839J-3187*
G01*
X449772Y723708D01*
G74*
D01*
G02X450948Y724467I2348J2348*
G01*
G75*
D01*
G02X452120Y724681I1172J-3107*
G01*
X543805Y724681D01*
G74*
D01*
G02X550399Y731275I7270J676*
G01*
X550399Y927090D01*
G75*
D01*
G02X551372Y929448I3321J10*
G01*
X569449Y947526D01*
X569449Y1081934D01*
X563478Y1087906D01*
G74*
D01*
G02X556365Y1082254I7113J1649*
G01*
X551075Y1082254D01*
G75*
D01*
G02X543805Y1088879I0J7301*
G01*
X539856Y1088879D01*
X531641Y1080664D01*
X531641Y1052304D01*
G75*
D01*
G02X530663Y1049951I-3321J0*
G01*
X524849Y1044137D01*
G74*
D01*
G02X522677Y1043164I2353J2343*
G01*
G75*
D01*
G02X522494Y1043159I-181J3316*
G01*
X455307Y1043159D01*
G75*
D01*
G02X445621Y1032487I-3187J-6839*
G01*
X444017Y1032487D01*
X444017Y1028780D01*
G75*
D01*
G02X443632Y1027430I-2557J0*
G01*
G74*
D01*
G02X444017Y1026080I2172J1350*
G01*
X444017Y1024913D01*
X445621Y1024913D01*
G75*
D01*
G02X456195Y1014730I6499J-3833*
G01*
G75*
D01*
G02X445345Y1005059I-4075J-6350*
G01*
X444017Y1005059D01*
X444017Y1003380D01*
G75*
D01*
G02X443632Y1002030I-2557J0*
G01*
G74*
D01*
G02X444017Y1000680I2172J1350*
G01*
X444017Y990680D01*
G75*
D01*
G02X443632Y989330I-2557J0*
G01*
G74*
D01*
G02X444017Y987980I2172J1350*
G01*
X444017Y986813D01*
X445621Y986813D01*
G75*
D01*
G02X445621Y979147I6499J-3833*
G01*
X444017Y979147D01*
X444017Y977980D01*
G75*
D01*
G02X443632Y976630I-2557J0*
G01*
G74*
D01*
G02X444017Y975280I2172J1350*
G01*
X444017Y965280D01*
G75*
D01*
G02X443632Y963930I-2557J0*
G01*
G74*
D01*
G02X443689Y963833I2172J1350*
G01*
X500552Y963833D01*
X528667Y991948D01*
X528667Y1037651D01*
G75*
D01*
G02X529789Y1040371I3833J9*
G01*
X534749Y1045331D01*
G74*
D01*
G02X536020Y1046173I2711J2711*
G01*
G75*
D01*
G02X537460Y1046453I1440J-3553*
G01*
X544705Y1046453D01*
G75*
D01*
G02X543721Y1038787I9015J-5053*
G01*
X539048Y1038787D01*
X536333Y1036072D01*
X536333Y990360D01*
G75*
D01*
G02X535205Y987644I-3833J0*
G01*
X504856Y957295D01*
G74*
D01*
G02X503454Y956399I2716J2705*
G01*
G75*
D01*
G02X502133Y956167I-1314J3601*
G01*
X444017Y956167D01*
X444017Y952580D01*
G75*
D01*
G02X443632Y951230I-2557J0*
G01*
G74*
D01*
G02X444017Y949880I2172J1350*
G01*
X444017Y948833D01*
X497892Y948833D01*
X542369Y993311D01*
G74*
D01*
G02X543673Y994166I2711J2711*
G01*
G74*
D01*
G02X544069Y994298I1407J3566*
G01*
G75*
D01*
G02X544982Y985081I9651J-3698*
G01*
X502196Y942295D01*
G74*
D01*
G02X499680Y941172I2716J2705*
G01*
G75*
D01*
G02X499478Y941167I-200J3828*
G01*
X444017Y941167D01*
X444017Y939880D01*
G75*
D01*
G02X443632Y938530I-2557J0*
G01*
G74*
D01*
G02X444017Y937180I2172J1350*
G01*
X444017Y933833D01*
X500312Y933833D01*
X534269Y967791D01*
G74*
D01*
G02X535899Y968758I2711J2711*
G01*
G75*
D01*
G02X536980Y968913I1081J-3678*
G01*
X544075Y968913D01*
G75*
D01*
G02X544171Y961247I9645J-3713*
G01*
X538568Y961247D01*
X504616Y927295D01*
G74*
D01*
G02X502743Y926260I2716J2705*
G01*
G75*
D01*
G02X501895Y926167I-843J3740*
G01*
X443808Y926167D01*
G74*
D01*
G02X443632Y925830I2348J1013*
G01*
G74*
D01*
G02X444017Y924480I2172J1350*
G01*
X444017Y914480D01*
G75*
D01*
G02X443632Y913130I-2557J0*
G01*
G74*
D01*
G02X444017Y911780I2172J1350*
G01*
X444017Y901780D01*
G75*
D01*
G02X443632Y900430I-2557J0*
G01*
G74*
D01*
G02X444017Y899080I2172J1350*
G01*
X444017Y889080D01*
G75*
D01*
G02X443632Y887730I-2557J0*
G01*
G74*
D01*
G02X444017Y886380I2172J1350*
G01*
X394993Y813752D02*
X394993Y813710D01*
X395330Y814047D01*
X395288Y814047D01*
X394993Y813752D01*
X382487Y831726D02*
X382588Y831827D01*
X382942Y831827D01*
G74*
D01*
G03X382487Y831726I598J3787*
G01*
X377110Y842153D02*
G74*
D01*
G03X378460Y842538I0J2557*
G01*
G75*
D01*
G03X379810Y842153I1350J2172*
G01*
X389810Y842153D01*
G74*
D01*
G03X391160Y842538I0J2557*
G01*
G75*
D01*
G03X392510Y842153I1350J2172*
G01*
X393677Y842153D01*
X393677Y841058D01*
X392112Y839493D01*
X381000Y839493D01*
G75*
D01*
G03X380440Y839452I0J-3833*
G01*
G74*
D01*
G03X378289Y838371I560J3792*
G01*
X374673Y834754D01*
X374673Y842153D01*
X377110Y842153D01*
X405045Y865050D02*
X410187Y859908D01*
X410187Y842328D01*
X399732Y831873D01*
X394298Y831873D01*
G74*
D01*
G03X394389Y831889I598J3787*
G01*
G74*
D01*
G03X396416Y832955I689J3771*
G01*
X400215Y836754D01*
G75*
D01*
G03X401343Y839470I-2705J2716*
G01*
X401343Y842153D01*
X402510Y842153D01*
G75*
D01*
G03X405067Y844710I0J2557*
G01*
X405067Y864710D01*
G74*
D01*
G03X405045Y865050I2557J0*
G01*
X445345Y1011701D02*
G74*
D01*
G02X448045Y1014730I6775J3321*
G01*
G74*
D01*
G02X445621Y1017247I4075J6350*
G01*
X444017Y1017247D01*
X444017Y1016080D01*
G75*
D01*
G02X443632Y1014730I-2557J0*
G01*
G74*
D01*
G02X444017Y1013380I2172J1350*
G01*
X444017Y1011701D01*
X445345Y1011701D01*
X445621Y1040153D02*
G74*
D01*
G02X448933Y1043159I6499J3833*
G01*
X444017Y1043159D01*
X444017Y1041480D01*
G75*
D01*
G02X443646Y1040153I-2557J0*
G01*
X445621Y1040153D01*
G54D12*
X264400Y-284480D02*
X264400Y-248920D01*
X320040Y-284480D02*
X294400Y-284480D01*
X320280Y-248920D02*
X320280Y-284240D01*
X528080Y-284240D02*
X528080Y-248920D01*
X528320Y-284480D02*
X559040Y-284480D01*
X528320Y-284480D02*
X528320Y-282180D01*
X589040Y-284480D02*
X589040Y-160260D01*
X264400Y-248920D02*
X239000Y-248920D01*
X411435Y-258265D02*
X411435Y-248875D01*
X403860Y-241300D01*
X386080Y-228600D02*
X374140Y-228600D01*
X386080Y-243840D02*
X375920Y-243840D01*
X403860Y-241300D02*
X403860Y-220980D01*
X398780Y-215900D01*
X589040Y-160260D02*
X605860Y-143440D01*
X289560Y-127560D02*
X291910Y-129910D01*
X527900Y-121260D02*
X533640Y-127000D01*
X605860Y-143440D02*
X605860Y-111760D01*
X509340Y-121260D02*
X527900Y-121260D01*
X479534Y-40640D02*
X479534Y-18066D01*
X482600Y-15000D01*
X386080Y15000D02*
X482600Y15000D01*
X198120Y182880D02*
X198120Y106680D01*
X314960Y200660D02*
X349015Y166605D01*
X369335Y166605D01*
X198120Y182880D02*
X215900Y200660D01*
X342900Y185420D02*
X320040Y208280D01*
X411480Y185420D02*
X411480Y304800D01*
X198120Y208280D02*
X320040Y208280D01*
X349015Y247415D02*
X349015Y263125D01*
X287020Y291356D02*
X287020Y259080D01*
X198120Y289560D02*
X205740Y297180D01*
X281196Y297180D02*
X287020Y291356D01*
X205740Y297180D02*
X281196Y297180D01*
X399815Y308845D02*
X420135Y329165D01*
X411480Y304800D02*
X431800Y325120D01*
X420135Y329165D02*
X420135Y499345D01*
X431800Y325120D02*
X431800Y383540D01*
X346475Y374885D02*
X366795Y354565D01*
X404895Y354565D01*
X198120Y391160D02*
X198120Y451376D01*
X431800Y383540D02*
X457200Y408940D01*
X394735Y425685D02*
X376955Y407905D01*
X364255Y407905D01*
X436880Y411480D02*
X436880Y505460D01*
X457200Y408940D02*
X457200Y439420D01*
X394735Y476485D02*
X394735Y425685D01*
X214104Y467360D02*
X198120Y451376D01*
X457200Y439420D02*
X464820Y447040D01*
X485049Y447040D01*
X485049Y482691D01*
X261620Y467360D02*
X214104Y467360D01*
X261620Y467360D02*
X299720Y505460D01*
X474980Y462280D02*
X474980Y472440D01*
X467360Y480060D01*
X246380Y487680D02*
X220980Y487680D01*
X208280Y500380D02*
X220980Y487680D01*
X274320Y515620D02*
X246380Y487680D01*
X441960Y485884D02*
X441960Y508000D01*
X447784Y480060D02*
X441960Y485884D01*
X467360Y480060D02*
X447784Y480060D01*
X480060Y487680D02*
X454660Y487680D01*
X449580Y492760D01*
X449580Y510540D01*
X485049Y482691D02*
X480060Y487680D01*
X175260Y500380D02*
X147320Y528320D01*
X208280Y500380D02*
X175260Y500380D01*
X299720Y505460D02*
X350520Y505460D01*
X441960Y508000D02*
X373380Y576580D01*
X378460Y581660D02*
X449580Y510540D01*
X436880Y505460D02*
X426720Y515620D01*
X274320Y515620D01*
X327951Y573005D02*
X298215Y573005D01*
X364255Y600945D02*
X364255Y570465D01*
X373380Y576580D02*
X373380Y637540D01*
X378460Y632460D02*
X378460Y581660D01*
X361715Y603485D02*
X361715Y631425D01*
X361715Y603485D02*
X364255Y600945D01*
X398780Y652780D02*
X378460Y632460D01*
X398780Y718120D02*
X398780Y652780D01*
X236220Y711200D02*
X203200Y711200D01*
X398080Y718820D02*
X398780Y718820D01*
X264400Y-248920D02*
X262500Y-248920D01*
X262500Y-183750D01*
X266250Y-180000D01*
X311250Y-180000D01*
X315000Y-180000D01*
X480000Y-112500D02*
X486340Y-112500D01*
X486340Y-111760D01*
X582860Y-102260D02*
X578100Y-97500D01*
X563640Y-97500D01*
X563640Y-96520D01*
X378600Y62440D02*
X378600Y71100D01*
X382500Y75000D01*
X382500Y135000D01*
X375000Y142500D01*
X315000Y142500D01*
X307500Y150000D01*
X307500Y187500D01*
X300000Y195000D01*
X225000Y-228750D02*
X228750Y-232500D01*
X251250Y-232500D01*
X255000Y-228750D01*
X255000Y-176250D01*
X258750Y-172500D01*
X322500Y-172500D01*
X330000Y-165000D01*
X330000Y-142500D01*
X337500Y-135000D01*
X386080Y15000D02*
X378580Y22500D01*
X375000Y22500D01*
X375000Y52500D01*
X378600Y56100D01*
X378600Y62440D01*
X202500Y187500D02*
X198120Y182880D01*
X285000Y-172500D02*
X285000Y-127560D01*
X289560Y-127560D01*
X215900Y200660D02*
X314960Y200660D01*
X231900Y195000D02*
X225000Y188100D01*
X300000Y195000D02*
X231900Y195000D01*
X225000Y188100D02*
X225000Y-228750D01*
X467420Y-202740D02*
X480000Y-190160D01*
X480000Y-112500D01*
X315000Y-196450D02*
X327580Y-202740D01*
X315000Y-180000D02*
X315000Y-196450D01*
X327580Y-202740D02*
X467420Y-202740D01*
X537460Y1042620D02*
X532500Y1037660D01*
X532500Y990360D01*
X552500Y1042620D02*
X537460Y1042620D01*
X492760Y419100D02*
X505460Y419100D01*
X477520Y431800D02*
X497840Y431800D01*
X467360Y403860D02*
X467360Y436880D01*
X497840Y431800D02*
X497840Y487680D01*
X492760Y396240D02*
X492760Y419100D01*
X477520Y401320D02*
X477520Y431800D01*
X449580Y373380D02*
X477520Y401320D01*
X464820Y368300D02*
X492760Y396240D01*
X441960Y378460D02*
X467360Y403860D01*
X431800Y294640D02*
X449580Y312420D01*
X441960Y317500D02*
X441960Y378460D01*
X464820Y302260D02*
X464820Y368300D01*
X424180Y299720D02*
X441960Y317500D01*
X449580Y312420D02*
X449580Y373380D01*
X449580Y279400D02*
X449580Y287020D01*
X441960Y259080D02*
X431800Y269240D01*
X449580Y287020D02*
X464820Y302260D01*
X431800Y269240D02*
X431800Y294640D01*
X459740Y269240D02*
X449580Y279400D01*
X439420Y210820D02*
X459740Y231140D01*
X441960Y243840D02*
X441960Y259080D01*
X459740Y231140D02*
X459740Y269240D01*
X411480Y149860D02*
X424180Y149860D01*
X424180Y299720D01*
X419100Y734060D02*
X391160Y762000D01*
X408940Y728980D02*
X381000Y756920D01*
X403860Y723900D02*
X375920Y751840D01*
X370840Y746060D02*
X398780Y718120D01*
X519500Y-75000D02*
X505460Y-60960D01*
X519500Y-75000D02*
X592500Y-75000D01*
X552500Y1042620D02*
X553720Y1041400D01*
X545080Y990600D02*
X553720Y990600D01*
X600000Y-105900D02*
X605860Y-111760D01*
X600000Y-82500D02*
X600000Y-105900D01*
X592500Y-75000D02*
X600000Y-82500D01*
X388620Y586740D02*
X388620Y624840D01*
X383540Y584200D02*
X383540Y629920D01*
X469900Y523240D02*
X398780Y594360D01*
X469900Y508000D02*
X469900Y523240D01*
X459740Y515620D02*
X388620Y586740D01*
X459740Y500380D02*
X459740Y515620D01*
X454660Y497840D02*
X454660Y513080D01*
X462280Y497840D02*
X459740Y500380D01*
X454660Y513080D02*
X383540Y584200D01*
X493196Y508000D02*
X469900Y508000D01*
X487680Y497840D02*
X462280Y497840D01*
X492760Y482600D02*
X482600Y492760D01*
X459740Y492760D02*
X454660Y497840D01*
X497840Y487680D02*
X487680Y497840D01*
X482600Y492760D02*
X459740Y492760D01*
X509520Y491676D02*
X493196Y508000D01*
X505460Y419100D02*
X509520Y423160D01*
X492760Y439420D02*
X492760Y482600D01*
X469900Y439420D02*
X492760Y439420D01*
X509520Y423160D02*
X509520Y491676D01*
X467360Y436880D02*
X469900Y439420D01*
X403860Y650240D02*
X403860Y723900D01*
X419100Y640080D02*
X419100Y734060D01*
X408940Y645160D02*
X408940Y728980D01*
X388620Y624840D02*
X408940Y645160D01*
X383540Y629920D02*
X403860Y650240D01*
X398780Y619760D02*
X419100Y640080D01*
X398780Y594360D02*
X398780Y619760D01*
X505460Y-60960D02*
X505460Y33020D01*
X553600Y965080D02*
X536980Y965080D01*
X553720Y965200D02*
X553600Y965080D01*
X238760Y-248680D02*
X238760Y-264160D01*
X439420Y43180D02*
X439420Y210820D01*
X505460Y33020D02*
X495300Y43180D01*
X439420Y43180D01*
X370840Y746060D02*
X370840Y853440D01*
X381000Y825500D02*
X381000Y756920D01*
X375920Y830580D02*
X375920Y751840D01*
X391160Y762000D02*
X391160Y815340D01*
X393700Y817880D01*
X393700Y835660D02*
X381000Y835660D01*
X383540Y828040D02*
X401320Y828040D01*
X381000Y825500D02*
X383540Y828040D01*
X381000Y835660D02*
X375920Y830580D01*
X397510Y854710D02*
X397510Y839470D01*
X393700Y835660D01*
X401320Y828040D02*
X414020Y840740D01*
X414020Y861496D01*
X399216Y876300D01*
X274320Y876300D02*
X266700Y883920D01*
X399216Y876300D02*
X274320Y876300D01*
X431460Y875960D02*
X431460Y881380D01*
X424180Y868680D02*
X431460Y875960D01*
X266700Y883920D02*
X266700Y931980D01*
X251660Y931980D01*
X501900Y930000D02*
X431460Y930000D01*
X431460Y932180D01*
X536980Y965080D02*
X501900Y930000D01*
X431460Y960000D02*
X431460Y957580D01*
X502140Y960000D02*
X431460Y960000D01*
X499480Y945000D02*
X431460Y945000D01*
X431460Y944880D01*
X532500Y990360D02*
X502140Y960000D01*
X545080Y990600D02*
X499480Y945000D01*
X431460Y982500D02*
X431460Y982980D01*
X452120Y982980D02*
X434340Y982980D01*
X452120Y1021080D02*
X429260Y1021080D01*
X431460Y1020000D02*
X431460Y1021080D01*
X452120Y1036320D02*
X436880Y1036320D01*
X434340Y1033780D01*
X431460Y1035000D02*
X431460Y1033780D01*
X337500Y-135000D02*
X376736Y-135000D01*
X411480Y-30480D02*
X411480Y-17780D01*
X393700Y817880D02*
X406400Y817880D01*
X424180Y835660D02*
X424180Y868680D01*
X406400Y817880D02*
X424180Y835660D01*
X289560Y-210076D02*
X295384Y-215900D01*
X398780Y-215900D01*
X289560Y-210076D02*
X289560Y-192480D01*
X251460Y1033780D02*
X271780Y1033780D01*
X331235Y280905D02*
X349015Y263125D01*
X364255Y407905D02*
X331235Y374885D01*
X331235Y280905D01*
X308375Y252965D02*
X308375Y369805D01*
X336315Y397745D01*
X308375Y252965D02*
X318535Y242805D01*
X369335Y166605D02*
X403860Y201130D01*
X403860Y281940D01*
X386080Y299720D01*
X386080Y328370D01*
X404895Y347185D01*
X404895Y354565D01*
X308610Y237490D02*
X339090Y237490D01*
X349015Y247415D01*
X287020Y259080D02*
X308610Y237490D01*
X350520Y200660D02*
X350520Y220980D01*
X330200Y632460D02*
X322580Y632460D01*
X333403Y578457D02*
X333403Y629257D01*
X330200Y632460D01*
X327951Y573005D02*
X333403Y578457D01*
X299720Y647700D02*
X363220Y647700D01*
X373380Y637540D02*
X363220Y647700D01*
X299720Y647700D02*
X236220Y711200D01*
X389655Y710165D02*
X389655Y715245D01*
X363220Y741680D01*
X363220Y751840D01*
X358140Y756920D01*
X353060Y756920D01*
X251460Y1021080D02*
X231140Y1021080D01*
G54D13*
X416560Y995680D02*
X431460Y995680D01*
X414020Y993140D02*
X416560Y995680D01*
X414020Y873760D02*
X414020Y993140D01*
X419100Y868680D02*
X414020Y873760D01*
X419100Y838200D02*
X419100Y868680D01*
X403860Y822960D02*
X419100Y838200D01*
X403860Y822960D02*
X391160Y822960D01*
X386080Y817880D02*
X391160Y822960D01*
X386080Y759460D02*
X386080Y817880D01*
X414020Y731520D02*
X386080Y759460D01*
X414020Y642620D02*
X414020Y731520D01*
X393700Y622300D02*
X414020Y642620D01*
X393700Y591820D02*
X393700Y622300D01*
X464820Y520700D02*
X393700Y591820D01*
X464820Y502920D02*
X464820Y520700D01*
X464820Y502920D02*
X491092Y502920D01*
X504440Y489572D02*
X491092Y502920D01*
X504440Y425264D02*
X504440Y489572D01*
X504440Y425264D02*
X503356Y424180D01*
X487680Y424180D02*
X503356Y424180D01*
X487680Y398780D02*
X487680Y424180D01*
X459740Y370840D02*
X487680Y398780D01*
X459740Y304800D02*
X459740Y370840D01*
X444500Y289560D02*
X459740Y304800D01*
X444500Y276860D02*
X444500Y289560D01*
X454660Y266700D02*
X444500Y276860D01*
X454660Y236220D02*
X454660Y266700D01*
X431800Y213360D02*
X454660Y236220D01*
X431800Y38100D02*
X431800Y213360D01*
X492760Y38100D02*
X431800Y38100D01*
X500380Y30480D02*
X492760Y38100D01*
X500380Y-53340D02*
X500380Y30480D01*
X495300Y-58420D02*
X500380Y-53340D01*
X452120Y-58420D02*
X495300Y-58420D01*
X425480Y-151260D02*
X438020Y-151260D01*
X518160Y-53340D02*
X510540Y-45720D01*
X510540Y35560D01*
X497840Y48260D01*
X444500Y48260D01*
X444500Y208280D01*
X464820Y228600D01*
X464820Y271780D01*
X454660Y281940D01*
X454660Y284480D01*
X469900Y299720D01*
X469900Y365760D01*
X497840Y393700D01*
X497840Y414020D01*
X508000Y414020D01*
X514600Y420620D01*
X514600Y493780D01*
X495300Y513080D01*
X474980Y513080D01*
X474980Y525780D01*
X403860Y596900D01*
X403860Y617220D01*
X424180Y637540D01*
X424180Y736600D01*
X396240Y764540D01*
X396240Y810260D01*
X398780Y812800D01*
X452120Y1008380D02*
X431460Y1008380D01*
X582860Y-121260D02*
X577500Y-126620D01*
X577500Y-127500D01*
X563640Y-127500D01*
X563640Y-127000D02*
X555640Y-135000D01*
X563640Y-127000D02*
X563640Y-144540D01*
X555640Y-135000D02*
X555000Y-135000D01*
X417935Y-258265D02*
X417935Y-234845D01*
X419100Y-235055D02*
X417935Y-236220D01*
X419100Y-233680D02*
X429260Y-223520D01*
X447040Y-223520D01*
X152400Y751840D02*
X175260Y728980D01*
X419100Y795020D02*
X480060Y795020D01*
X198120Y477520D02*
X254000Y477520D01*
X271780Y134620D02*
X271780Y182880D01*
X285960Y120440D02*
X271780Y134620D01*
X352500Y62440D02*
X355600Y62440D01*
X352500Y37500D02*
X352500Y52500D01*
X355600Y55600D02*
X355600Y62440D01*
X352500Y52500D02*
X355600Y55600D01*
X345000Y30000D02*
X352500Y37500D01*
X322500Y30000D02*
X345000Y30000D01*
X315000Y22500D02*
X322500Y30000D01*
X315000Y15000D02*
X315000Y22500D01*
X264160Y15000D02*
X335280Y15000D01*
X335280Y7620D02*
X335280Y15000D01*
X355600Y-12700D02*
X335280Y7620D01*
X355600Y-78740D02*
X355600Y-12700D01*
X355600Y-88645D02*
X355600Y-78740D01*
X352500Y-96145D02*
X355600Y-88645D01*
X352500Y-106680D02*
X352500Y-96145D01*
X259080Y-106680D02*
X375920Y-106680D01*
X238760Y-127000D02*
X259080Y-106680D01*
X375920Y-106680D02*
X375920Y-117020D01*
X378460Y-104140D02*
X375920Y-106680D01*
X238760Y-218680D02*
X238760Y-127000D01*
X375920Y-117020D02*
X382500Y-123600D01*
X386520Y-127260D02*
X381270Y-122010D01*
X391480Y-127260D02*
X386520Y-127260D01*
X528080Y-172720D02*
X541020Y-172720D01*
X528080Y-225820D02*
X528080Y-172720D01*
X525830Y-170470D01*
X551180Y-248920D02*
X528080Y-225820D01*
X551180Y-248920D02*
X559040Y-248920D01*
X445720Y-156260D02*
X425480Y-156260D01*
X464820Y-137160D02*
X445720Y-156260D01*
X464820Y-137160D02*
X464820Y-96520D01*
X431460Y1050000D02*
X251460Y1050000D01*
X251460Y1046480D01*
X431460Y1046480D02*
X431460Y1050000D01*
X431460Y1046480D01*
X538480Y1092200D02*
X528320Y1082040D01*
X411480Y599440D02*
X411480Y617220D01*
X482600Y528320D02*
X411480Y599440D01*
X482600Y523240D02*
X482600Y528320D01*
X495300Y523240D02*
X482600Y523240D01*
X520700Y497840D02*
X495300Y523240D01*
X520700Y485140D02*
X520700Y497840D01*
X519680Y420000D02*
X519680Y484120D01*
X528320Y492760D01*
X519680Y420000D02*
X527180Y412500D01*
X528320Y492760D02*
X553720Y492760D01*
X527180Y412500D02*
X547620Y412500D01*
X553720Y406400D01*
X205740Y586740D02*
X317500Y586740D01*
X205740Y586740D02*
X198120Y579120D01*
X198120Y589280D02*
X198120Y579120D01*
X152400Y635000D02*
X198120Y589280D01*
X152400Y660400D02*
X152400Y635000D01*
X348792Y337008D02*
X349015Y336785D01*
X332600Y62440D02*
X332600Y43320D01*
X335280Y-15000D02*
X335280Y-33020D01*
X386080Y-15000D02*
X386080Y-30480D01*
X264160Y-15000D02*
X335280Y-15000D01*
X386080Y-15000D02*
X447040Y-15000D01*
X447040Y-28146D01*
X459534Y-40640D01*
X406480Y-146550D02*
X401770Y-151260D01*
X401770Y-149410D01*
X367540Y-228600D02*
X358140Y-228600D01*
X367540Y-228600D02*
X367540Y-242060D01*
X365760Y-243840D02*
X355360Y-243840D01*
X367540Y-242060D02*
X365760Y-243840D01*
X368010Y-243840D02*
X365760Y-243840D01*
X355360Y-243840D02*
X350280Y-248920D01*
X350520Y-238760D02*
X350520Y-284000D01*
X345440Y-233680D02*
X350520Y-238760D01*
X370840Y-284480D02*
X350040Y-284480D01*
X350520Y-284000D02*
X350280Y-284240D01*
X299720Y-233680D02*
X345440Y-233680D01*
X373125Y-286765D02*
X370840Y-284480D01*
X294400Y-239000D02*
X299720Y-233680D01*
X373125Y-286765D02*
X477775Y-286765D01*
X294400Y-248920D02*
X294400Y-239000D01*
X435935Y-286765D02*
X435935Y-280345D01*
X437435Y-285265D02*
X435935Y-286765D01*
X437435Y-285265D02*
X437435Y-258265D01*
X434340Y-285170D02*
X435935Y-286765D01*
X477775Y-286765D02*
X480060Y-284480D01*
X498320Y-284480D01*
X498320Y-249160D01*
X498080Y-248920D02*
X498080Y-172720D01*
X495830Y-206030D02*
X498080Y-208280D01*
X396480Y-127260D02*
X396480Y-117080D01*
X391160Y-111760D01*
X391160Y-104140D01*
X416560Y-35560D02*
X411480Y-30480D01*
X406480Y-121096D02*
X416560Y-111016D01*
X406480Y-146550D02*
X406480Y-121096D01*
X416560Y-111016D02*
X416560Y-35560D01*
X401480Y-127260D02*
X401480Y-106520D01*
X403860Y-104140D01*
X426720Y-241300D02*
X434340Y-241300D01*
X424435Y-243585D02*
X426720Y-241300D01*
X424435Y-258265D02*
X424435Y-243585D01*
X398780Y812800D02*
X421640Y812800D01*
X431800Y822960D01*
X438020Y-151260D02*
X441960Y-147320D01*
X441960Y-68580D02*
X452120Y-58420D01*
X441960Y-147320D02*
X441960Y-68580D01*
X425480Y-136260D02*
X425480Y-87600D01*
X426720Y-86360D01*
X518160Y-96520D02*
X533640Y-96520D01*
X512420Y-102260D02*
X518160Y-96520D01*
X425480Y-146260D02*
X435400Y-146260D01*
X435400Y-59480D01*
X538480Y1092200D02*
X563880Y1092200D01*
X572770Y1083310D01*
X572770Y946150D01*
X553720Y927100D01*
X553720Y721360D01*
X528320Y1052304D02*
X522496Y1046480D01*
X528320Y1082040D02*
X528320Y1052304D01*
X522496Y1046480D02*
X431460Y1046480D01*
X509340Y-101815D02*
X509785Y-102260D01*
X512420Y-102260D01*
X509340Y-100400D02*
X509340Y-85160D01*
X505460Y-81280D01*
X480060Y-81280D01*
X464820Y-96520D01*
X349015Y357105D02*
X343935Y362185D01*
X349015Y336785D02*
X349015Y357105D01*
X332600Y62440D02*
X332600Y69400D01*
X328000Y74000D01*
X328000Y78000D01*
X326000Y80000D01*
X310000Y80000D01*
X355600Y120440D02*
X352500Y120440D01*
X352500Y62440D01*
X355600Y120440D02*
X285960Y120440D01*
X272815Y261620D02*
X272815Y273285D01*
X266700Y279400D01*
X268205Y420605D02*
X369335Y420605D01*
X268205Y420605D02*
X267170Y421640D01*
X266700Y421640D01*
X367030Y229870D02*
X304565Y229870D01*
X272815Y261620D01*
X367030Y229870D02*
X374415Y222485D01*
X254000Y477520D02*
X264160Y487680D01*
X175260Y728980D02*
X271780Y728980D01*
X276860Y723900D01*
X452120Y721360D02*
X553720Y721360D01*
X452120Y721360D02*
X434340Y703580D01*
X434340Y640080D01*
X411480Y617220D01*
G54D14*
X142481Y-248209D02*
X142481Y-245363D01*
X141052Y-243940D01*
X136764Y-243940D01*
X135335Y-245363D01*
X135335Y-248209D01*
X135335Y-247497D02*
X142481Y-247497D01*
X141052Y-237537D02*
X142481Y-238959D01*
X142481Y-240382D01*
X141052Y-241805D01*
X138908Y-241805D01*
X137479Y-240382D01*
X137479Y-238959D01*
X138908Y-237537D01*
X139623Y-238248D01*
X139623Y-241805D01*
X141052Y-235402D02*
X142481Y-233979D01*
X142481Y-232556D01*
X141052Y-231133D01*
X138908Y-235402D01*
X137479Y-233979D01*
X137479Y-232556D01*
X138908Y-231133D01*
X142481Y-226865D02*
X138193Y-226865D01*
X136764Y-226865D02*
X136049Y-226865D01*
X143196Y-222596D02*
X144625Y-221173D01*
X144625Y-219750D01*
X143196Y-218327D01*
X141052Y-218327D01*
X138908Y-218327D01*
X137479Y-219750D01*
X137479Y-221173D01*
X138908Y-222596D01*
X141052Y-222596D01*
X142481Y-221173D01*
X142481Y-219750D01*
X141052Y-218327D01*
X142481Y-216193D02*
X138193Y-216193D01*
X137479Y-216193D01*
X138193Y-216193D02*
X137479Y-215481D01*
X137479Y-214058D01*
X138193Y-213347D01*
X142481Y-213347D01*
X141052Y-203386D02*
X142481Y-201963D01*
X142481Y-200540D01*
X141052Y-199117D01*
X139623Y-199117D01*
X138193Y-200540D01*
X138193Y-201963D01*
X139623Y-203386D01*
X135335Y-203386D02*
X142481Y-203386D01*
X144625Y-196983D02*
X144625Y-196271D01*
X137479Y-192714D01*
X137479Y-196983D02*
X141766Y-194849D01*
X136049Y-188445D02*
X137479Y-188445D01*
X141766Y-188445D02*
X140337Y-188445D01*
X142481Y-177773D02*
X142481Y-174927D01*
X141052Y-173505D01*
X136764Y-173505D01*
X135335Y-174927D01*
X135335Y-177773D01*
X135335Y-177062D02*
X142481Y-177062D01*
X142481Y-169236D02*
X138193Y-169236D01*
X136764Y-169236D02*
X136049Y-169236D01*
X142481Y-164967D02*
X138193Y-164967D01*
X137479Y-164967D01*
X138193Y-164967D02*
X137479Y-164255D01*
X137479Y-163544D01*
X138193Y-162833D01*
X137479Y-162121D01*
X137479Y-161410D01*
X138193Y-160698D01*
X142481Y-160698D01*
X138193Y-162833D02*
X142481Y-162833D01*
X142481Y-156429D02*
X138193Y-156429D01*
X136764Y-156429D02*
X136049Y-156429D01*
X141766Y-148603D02*
X142481Y-149315D01*
X141766Y-150026D01*
X135335Y-150026D01*
X137479Y-151449D02*
X137479Y-148603D01*
X137479Y-145046D02*
X137479Y-142911D01*
X138193Y-142200D01*
X141766Y-142200D01*
X142481Y-142911D01*
X142481Y-145046D01*
X141766Y-145757D01*
X140337Y-145757D01*
X139623Y-145046D01*
X139623Y-142200D01*
X141766Y-142200D02*
X142481Y-141489D01*
X139623Y-139354D02*
X137479Y-137220D01*
X137479Y-136508D01*
X138908Y-135085D01*
X142481Y-139354D02*
X137479Y-139354D01*
X142481Y-126548D02*
X135335Y-126548D01*
X135335Y-123702D01*
X136764Y-122279D01*
X137479Y-122279D01*
X138908Y-123702D01*
X138908Y-126548D01*
X138908Y-125836D02*
X142481Y-122279D01*
X137479Y-119433D02*
X137479Y-117299D01*
X138193Y-116587D01*
X141766Y-116587D01*
X142481Y-117299D01*
X142481Y-119433D01*
X141766Y-120145D01*
X140337Y-120145D01*
X139623Y-119433D01*
X139623Y-116587D01*
X141766Y-116587D02*
X142481Y-115876D01*
X142481Y-113741D02*
X138193Y-113741D01*
X137479Y-113741D01*
X138193Y-113741D02*
X137479Y-113030D01*
X137479Y-111607D01*
X138193Y-110895D01*
X142481Y-110895D01*
X143196Y-107338D02*
X144625Y-105915D01*
X144625Y-104492D01*
X143196Y-103069D01*
X141052Y-103069D01*
X138908Y-103069D01*
X137479Y-104492D01*
X137479Y-105915D01*
X138908Y-107338D01*
X141052Y-107338D01*
X142481Y-105915D01*
X142481Y-104492D01*
X141052Y-103069D01*
X141052Y-96666D02*
X142481Y-98089D01*
X142481Y-99512D01*
X141052Y-100935D01*
X138908Y-100935D01*
X137479Y-99512D01*
X137479Y-98089D01*
X138908Y-96666D01*
X139623Y-97378D01*
X139623Y-100935D01*
X135335Y-93820D02*
X141052Y-93820D01*
X142481Y-92397D01*
X141052Y-88129D02*
X142481Y-86706D01*
X142481Y-85283D01*
X141052Y-83860D01*
X138908Y-83860D01*
X137479Y-85283D01*
X137479Y-86706D01*
X138908Y-88129D01*
X141052Y-88129D01*
X137479Y-81725D02*
X142481Y-79591D01*
X137479Y-77457D01*
X157721Y-202489D02*
X157721Y-199643D01*
X156292Y-198220D01*
X152004Y-198220D01*
X150575Y-199643D01*
X150575Y-202489D01*
X150575Y-201777D02*
X157721Y-201777D01*
X152719Y-195374D02*
X152719Y-193239D01*
X153433Y-192528D01*
X157006Y-192528D01*
X157721Y-193239D01*
X157721Y-195374D01*
X157006Y-196085D01*
X155577Y-196085D01*
X154863Y-195374D01*
X154863Y-192528D01*
X157006Y-192528D02*
X157721Y-191817D01*
X157006Y-186125D02*
X157721Y-186836D01*
X157006Y-187548D01*
X150575Y-187548D01*
X152719Y-188971D02*
X152719Y-186125D01*
X156292Y-179010D02*
X157721Y-180433D01*
X157721Y-181856D01*
X156292Y-183279D01*
X154148Y-183279D01*
X152719Y-181856D01*
X152719Y-180433D01*
X154148Y-179010D01*
X154863Y-179722D01*
X154863Y-183279D01*
X151289Y-174741D02*
X152719Y-174741D01*
X157006Y-174741D02*
X155577Y-174741D01*
X152004Y-164069D02*
X150575Y-162646D01*
X150575Y-161223D01*
X152004Y-159801D01*
X156292Y-159801D01*
X157721Y-161223D01*
X157721Y-162646D01*
X156292Y-164069D01*
X152004Y-164069D01*
X152004Y-159801D02*
X156292Y-164069D01*
X151289Y-156955D02*
X150575Y-156243D01*
X150575Y-154820D01*
X152004Y-153397D01*
X153433Y-153397D01*
X154148Y-154109D01*
X154863Y-153397D01*
X156292Y-153397D01*
X157721Y-154820D01*
X157721Y-156243D01*
X157006Y-156955D01*
X154148Y-156243D02*
X154148Y-154109D01*
X157721Y-149129D02*
X157006Y-149129D01*
X152004Y-144860D02*
X150575Y-143437D01*
X150575Y-142014D01*
X152004Y-140591D01*
X156292Y-140591D01*
X157721Y-142014D01*
X157721Y-143437D01*
X156292Y-144860D01*
X152004Y-144860D01*
X152004Y-140591D02*
X156292Y-144860D01*
X154863Y-134188D02*
X154863Y-138457D01*
X150575Y-134899D01*
X157721Y-134899D01*
X157721Y-135611D02*
X157721Y-134188D01*
X157721Y-129919D02*
X157006Y-129919D01*
X152004Y-125650D02*
X150575Y-124227D01*
X150575Y-122804D01*
X152004Y-121381D01*
X152719Y-121381D01*
X157721Y-125650D01*
X157721Y-121381D01*
X157006Y-121381D01*
X152004Y-119247D02*
X150575Y-117824D01*
X150575Y-116401D01*
X152004Y-114978D01*
X156292Y-114978D01*
X157721Y-116401D01*
X157721Y-117824D01*
X156292Y-119247D01*
X152004Y-119247D01*
X152004Y-114978D02*
X156292Y-119247D01*
X152004Y-112132D02*
X150575Y-110709D01*
X157721Y-110709D01*
X157721Y-112844D02*
X157721Y-108575D01*
X156292Y-106441D02*
X157721Y-105018D01*
X157721Y-103595D01*
X156292Y-102172D01*
X153433Y-102172D01*
X152004Y-102172D01*
X150575Y-103595D01*
X150575Y-105018D01*
X152004Y-106441D01*
X153433Y-106441D01*
X154863Y-105018D01*
X154863Y-103595D01*
X153433Y-102172D01*
X165815Y-194869D02*
X172961Y-192734D01*
X165815Y-190600D01*
X171532Y-184197D02*
X172961Y-185619D01*
X172961Y-187042D01*
X171532Y-188465D01*
X169388Y-188465D01*
X167959Y-187042D01*
X167959Y-185619D01*
X169388Y-184197D01*
X170103Y-184908D01*
X170103Y-188465D01*
X171532Y-182062D02*
X172961Y-180639D01*
X172961Y-179216D01*
X171532Y-177793D01*
X169388Y-182062D01*
X167959Y-180639D01*
X167959Y-179216D01*
X169388Y-177793D01*
X170103Y-175659D02*
X167959Y-173525D01*
X167959Y-172813D01*
X169388Y-171390D01*
X172961Y-175659D02*
X167959Y-175659D01*
X172961Y-167121D02*
X168673Y-167121D01*
X167244Y-167121D02*
X166529Y-167121D01*
X171532Y-162853D02*
X172961Y-161430D01*
X172961Y-160007D01*
X171532Y-158584D01*
X169388Y-158584D01*
X167959Y-160007D01*
X167959Y-161430D01*
X169388Y-162853D01*
X171532Y-162853D01*
X172961Y-156449D02*
X168673Y-156449D01*
X167959Y-156449D01*
X168673Y-156449D02*
X167959Y-155738D01*
X167959Y-154315D01*
X168673Y-153603D01*
X172961Y-153603D01*
X167244Y-143643D02*
X165815Y-142220D01*
X165815Y-140797D01*
X167244Y-139374D01*
X171532Y-139374D01*
X172961Y-140797D01*
X172961Y-142220D01*
X171532Y-143643D01*
X167244Y-143643D01*
X167244Y-139374D02*
X171532Y-143643D01*
X172961Y-135105D02*
X172246Y-135105D01*
X167244Y-130837D02*
X165815Y-129414D01*
X165815Y-127991D01*
X167244Y-126568D01*
X171532Y-126568D01*
X172961Y-127991D01*
X172961Y-129414D01*
X171532Y-130837D01*
X167244Y-130837D01*
X167244Y-126568D02*
X171532Y-130837D01*
X172961Y-122299D02*
X172246Y-122299D01*
X167244Y-118030D02*
X165815Y-116607D01*
X165815Y-115184D01*
X167244Y-113761D01*
X167959Y-113761D01*
X172961Y-118030D01*
X172961Y-113761D01*
X172246Y-113761D01*
G54D15*
X124460Y-312420D02*
X124460Y-168656D01*
X124460Y-312420D02*
X174244Y-312420D01*
X622300Y-312420D02*
X572516Y-312420D01*
X622300Y-312420D02*
X622300Y-168656D01*
X622300Y1125220D02*
X622300Y981456D01*
X622300Y1125220D02*
X572516Y1125220D01*
X124460Y1125220D02*
X174244Y1125220D01*
X124460Y1125220D02*
X124460Y981456D01*
X74460Y-312420D02*
X-25540Y-312420D01*
X24460Y-362420D02*
X24460Y-262420D01*
X-13040Y-312420D02*
G75*
D01*
G02X-13040Y-312420I37500J0*
G01*
X672300Y-312420D02*
X772300Y-312420D01*
X722300Y-362420D02*
X722300Y-262420D01*
X684800Y-312420D02*
G75*
D01*
G02X684800Y-312420I37500J0*
G01*
X709800Y-312420D02*
G75*
D01*
G02X709800Y-312420I12500J0*
G01*
X74460Y1125220D02*
X-25540Y1125220D01*
X24460Y1075220D02*
X24460Y1175220D01*
X-13040Y1125220D02*
G75*
D01*
G02X-13040Y1125220I37500J0*
G01*
X-540Y1125220D02*
G75*
D01*
G02X-540Y1125220I25000J0*
G01*
X11960Y1125220D02*
G75*
D01*
G02X11960Y1125220I12500J0*
G01*
G54D16*
X264400Y-284480D03*
X294400Y-284480D03*
X559040Y-284480D03*
X589040Y-284480D03*
X559040Y-248920D03*
X589040Y-248920D03*
X533640Y-127000D03*
X563640Y-127000D03*
X533640Y-96520D03*
X563640Y-96520D03*
G54D17*
X320040Y-284480D03*
X350040Y-284480D03*
X528320Y-284480D03*
X498320Y-284480D03*
G54D18*
X386935Y-286765D03*
X461935Y-286765D03*
G54D19*
X412935Y-286765D03*
X435935Y-286765D03*
G54D20*
X424435Y-258265D03*
X411435Y-258265D03*
X417935Y-258265D03*
X430935Y-258265D03*
X437435Y-258265D03*
G54D21*
X238760Y-248680D03*
X238760Y-218680D03*
X482600Y-15000D03*
X482600Y15000D03*
G54D22*
X264400Y-248920D03*
X294400Y-248920D03*
X320280Y-248920D03*
X350280Y-248920D03*
X498080Y-248920D03*
X528080Y-248920D03*
X498080Y-208280D03*
X528080Y-208280D03*
X498080Y-172720D03*
X528080Y-172720D03*
G54D23*
X374610Y-243840D03*
X368010Y-243840D03*
X367540Y-228600D03*
X374140Y-228600D03*
G54D24*
X386080Y-243840D03*
X386080Y-228600D03*
X419100Y-233680D03*
X434340Y-241300D03*
X518160Y-53340D03*
X335280Y-33020D03*
X386080Y-30480D03*
X332740Y43180D03*
X351555Y166605D03*
X271780Y182880D03*
X342900Y185420D03*
X374415Y222485D03*
X399815Y308845D03*
X349015Y336785D03*
X404895Y354565D03*
X346475Y374885D03*
X336315Y397745D03*
X436880Y411480D03*
X369335Y420605D03*
X394735Y476485D03*
X474980Y462280D03*
X350520Y505460D03*
X420135Y499345D03*
X298215Y573005D03*
X364255Y570465D03*
X317500Y586740D03*
X361715Y631425D03*
X389655Y710165D03*
X441960Y243840D03*
X411480Y149860D03*
X411480Y185420D03*
X419100Y795020D03*
X480060Y795020D03*
X238760Y-264160D03*
X563880Y-144780D03*
X452120Y982980D03*
X231140Y1021080D03*
X452120Y1021080D03*
X452120Y1008380D03*
X271780Y1033780D03*
X452120Y1036320D03*
X411480Y-30480D03*
X358140Y-228600D03*
X447040Y-223520D03*
X541020Y-172720D03*
X378460Y-104140D03*
X391160Y-104140D03*
X403860Y-104140D03*
X431800Y822960D03*
X426720Y-86360D03*
X434340Y-58420D03*
X343935Y362185D03*
X310000Y80000D03*
X266700Y279400D03*
X347980Y246380D03*
X266700Y421640D03*
X317500Y246380D03*
X350520Y220980D03*
X350520Y200660D03*
X264160Y487680D03*
X322580Y632460D03*
X353060Y756920D03*
X276860Y723900D03*
X434340Y703580D03*
G54D25*
X289560Y-197560D03*
X289560Y-127560D03*
G54D26*
X391480Y-175260D03*
X386520Y-175260D03*
X396480Y-175260D03*
X401480Y-175260D03*
X411480Y-175260D03*
X406480Y-175260D03*
X416480Y-175260D03*
X396480Y-127260D03*
X401480Y-127260D03*
X386520Y-127260D03*
X391480Y-127260D03*
X416480Y-127260D03*
X411480Y-127260D03*
X406480Y-127260D03*
G54D27*
X377480Y-166260D03*
X377480Y-161260D03*
X377480Y-156260D03*
X425480Y-166260D03*
X425480Y-161260D03*
X425480Y-156260D03*
X377480Y-146260D03*
X377480Y-151260D03*
X377480Y-141260D03*
X377480Y-136260D03*
X425480Y-151260D03*
X425480Y-146260D03*
X425480Y-141260D03*
X425480Y-136260D03*
G54D28*
X401770Y-151260D03*
G54D29*
X486340Y-111760D03*
X509340Y-121260D03*
X509340Y-102260D03*
X582860Y-121260D03*
X605860Y-111760D03*
X582860Y-102260D03*
G54D30*
X459534Y-40640D03*
X479534Y-40640D03*
G54D31*
X264160Y-15000D03*
X264160Y15000D03*
X299720Y-15000D03*
X299720Y15000D03*
X335280Y-15000D03*
X335280Y15000D03*
X386080Y-15000D03*
X386080Y15000D03*
X411480Y-15000D03*
X411480Y15000D03*
X447040Y-15000D03*
X447040Y15000D03*
G54D32*
X332600Y62440D03*
X355600Y62440D03*
X378600Y62440D03*
G54D33*
X355600Y120440D03*
G54D34*
X553720Y406400D03*
X553720Y721360D03*
X553720Y1092200D03*
X553720Y492760D03*
G54D35*
X551075Y403755D02*
X556365Y403755D01*
X556365Y409045D01*
X551075Y409045D01*
X551075Y403755D01*D02*
X551075Y718715D02*
X556365Y718715D01*
X556365Y724005D01*
X551075Y724005D01*
X551075Y718715D01*D02*
X551075Y1089555D02*
X556365Y1089555D01*
X556365Y1094845D01*
X551075Y1094845D01*
X551075Y1089555D01*D02*
X551075Y490115D02*
X556365Y490115D01*
X556365Y495405D01*
X551075Y495405D01*
X551075Y490115D01*D02*
G54D36*
X553720Y431800D03*
X553720Y670560D03*
X553720Y695960D03*
X553720Y645160D03*
X553720Y1066800D03*
X553720Y1041400D03*
X553720Y990600D03*
X553720Y1016000D03*
X553720Y965200D03*
X553720Y518160D03*
G54D37*
X203200Y711200D03*
X152400Y762000D03*
X152400Y660400D03*
X147320Y528320D03*
X198120Y477520D03*
X198120Y579120D03*
X147320Y340360D03*
X198120Y289560D03*
X198120Y391160D03*
X147320Y157480D03*
X198120Y106680D03*
X198120Y208280D03*
G54D38*
X283210Y854710D03*
X295910Y854710D03*
X308610Y854710D03*
X321310Y854710D03*
X334010Y854710D03*
X346710Y854710D03*
X359410Y854710D03*
X372110Y854710D03*
X384810Y854710D03*
X397510Y854710D03*
G54D39*
X251460Y894080D03*
X251460Y881380D03*
X431460Y894080D03*
X431460Y881380D03*
X251460Y906780D03*
X431460Y906780D03*
X251460Y932180D03*
X251460Y919480D03*
X431460Y932180D03*
X431460Y919480D03*
X251460Y957580D03*
X251460Y944880D03*
X431460Y957580D03*
X431460Y944880D03*
X251460Y970280D03*
X431460Y970280D03*
X251460Y995680D03*
X251460Y982980D03*
X431460Y995680D03*
X431460Y982980D03*
X251460Y1008380D03*
X431460Y1008380D03*
X251460Y1033780D03*
X251460Y1021080D03*
X431460Y1033780D03*
X431460Y1021080D03*
X251460Y1046480D03*
X431460Y1046480D03*

M02*
