999
DXF created by UltiBoard 14.1.0.0
0
SECTION
2
HEADER
9
$ACADVER
1
AC1014
9
$EXTMIN
10
34.829055
20
-3.672087
30
0.0
9
$EXTMAX
10
80.398031
20
48.926575
30
0.0
9
$LUNITS
70
2
9
$HANDSEED
5
12F
0
ENDSEC
0
SECTION
2
TABLES
0
TABLE
2
VPORT
5
1F
100
AcDbSymbolTable
70
1
0
VPORT
5
20
100
AcDbSymbolTableRecord
100
AcDbViewportTableRecord
2
*ACTIVE
70
0
0
ENDTAB
0
TABLE
2
LTYPE
5
21
100
AcDbSymbolTable
70
1
0
LTYPE
5
22
100
AcDbSymbolTableRecord
100
AcDbLinetypeTableRecord
2
BYBLOCK
70
0
3

72
65
73
0
40
0.0
0
LTYPE
5
23
100
AcDbSymbolTableRecord
100
AcDbLinetypeTableRecord
2
BYLAYER
70
0
3

72
65
73
0
40
0.0
0
LTYPE
5
24
100
AcDbSymbolTableRecord
100
AcDbLinetypeTableRecord
2
CONTINUOUS
70
0
3
Solid line
72
65
73
0
40
0.0
0
ENDTAB
0
TABLE
2
LAYER
5
25
100
AcDbSymbolTable
70
2
0
LAYER
5
26
100
AcDbSymbolTableRecord
100
AcDbLayerTableRecord
2
0
70
0
62
7
6
CONTINUOUS
0
LAYER
5
27
100
AcDbSymbolTableRecord
100
AcDbLayerTableRecord
2
KEEPOUTLAYER
70
0
62
6
6
CONTINUOUS
0
ENDTAB
0
TABLE
2
STYLE
5
28
100
AcDbSymbolTable
70
2
0
STYLE
5
29
100
AcDbSymbolTableRecord
100
AcDbTextStyleTableRecord
2
MONOTxtStyle
70
0
40
0.0
41
1.0
50
0.0
71
0
42
0.2
3
monotxt
4

0
ENDTAB
0
TABLE
2
VIEW
5
2A
100
AcDbSymbolTable
70
0
0
ENDTAB
0
TABLE
2
UCS
5
2B
100
AcDbSymbolTable
70
0
0
ENDTAB
0
TABLE
2
APPID
5
2C
100
AcDbSymbolTable
70
1
0
APPID
5
2D
100
AcDbSymbolTableRecord
100
AcDbRegAppTableRecord
2
ACAD
70
0
0
ENDTAB
0
TABLE
2
DIMSTYLE
5
2E
100
AcDbSymbolTable
70
1
0
DIMSTYLE
105
2F
100
AcDbSymbolTableRecord
100
AcDbDimStyleTableRecord
2
STANDARD
70
0
0
ENDTAB
0
TABLE
2
BLOCK_RECORD
5
30
100
AcDbSymbolTable
70
0
0
BLOCK_RECORD
5
31
100
AcDbSymbolTableRecord
100
AcDbBlockTableRecord
2
*MODEL_SPACE
0
BLOCK_RECORD
5
32
100
AcDbSymbolTableRecord
100
AcDbBlockTableRecord
2
*PAPER_SPACE
0
ENDTAB
0
ENDSEC
0
SECTION
2
BLOCKS
0
BLOCK
5
33
100
AcDbEntity
8
0
100
AcDbBlockBegin
2
*MODEL_SPACE
70
0
0
ENDBLK
5
34
100
AcDbEntity
8
0
100
AcDbBlockEnd
0
BLOCK
5
35
100
AcDbEntity
8
0
100
AcDbBlockBegin
2
*PAPER_SPACE
70
0
0
ENDBLK
5
36
100
AcDbEntity
8
0
100
AcDbBlockEnd
0
ENDSEC
0
SECTION
2
ENTITIES
0
LWPOLYLINE
5
37
100
AcDbEntity
8
KEEPOUTLAYER
62
6
100
AcDbPolyline
90
2
70
0
43
0.000039
39
0.000039
10
45.978622
20
43.124016
10
69.028307
20
43.124016
0
LWPOLYLINE
5
38
100
AcDbEntity
8
KEEPOUTLAYER
62
6
100
AcDbPolyline
90
2
70
0
43
0.000039
39
0.000039
10
45.978780
20
40.124016
10
69.028465
20
40.124016
0
LWPOLYLINE
5
39
100
AcDbEntity
8
KEEPOUTLAYER
62
6
100
AcDbPolyline
90
2
70
0
43
0.000039
39
0.000039
10
45.978622
20
43.124016
10
45.847953
20
43.120512
0
LWPOLYLINE
5
3A
100
AcDbEntity
8
KEEPOUTLAYER
62
6
100
AcDbPolyline
90
2
70
0
43
0.000039
39
0.000039
10
45.847953
20
43.120512
10
45.718071
20
43.105669
0
LWPOLYLINE
5
3B
100
AcDbEntity
8
KEEPOUTLAYER
62
6
100
AcDbPolyline
90
2
70
0
43
0.000039
39
0.000039
10
45.718071
20
43.105669
10
45.589961
20
43.079528
0
LWPOLYLINE
5
3C
100
AcDbEntity
8
KEEPOUTLAYER
62
6
100
AcDbPolyline
90
2
70
0
43
0.000039
39
0.000039
10
45.589961
20
43.079528
10
45.464646
20
43.042323
0
LWPOLYLINE
5
3D
100
AcDbEntity
8
KEEPOUTLAYER
62
6
100
AcDbPolyline
90
2
70
0
43
0.000039
39
0.000039
10
45.464646
20
43.042323
10
45.343031
20
42.994331
0
LWPOLYLINE
5
3E
100
AcDbEntity
8
KEEPOUTLAYER
62
6
100
AcDbPolyline
90
2
70
0
43
0.000039
39
0.000039
10
45.343031
20
42.994331
10
45.226063
20
42.935945
0
LWPOLYLINE
5
3F
100
AcDbEntity
8
KEEPOUTLAYER
62
6
100
AcDbPolyline
90
2
70
0
43
0.000039
39
0.000039
10
45.226063
20
42.935945
10
45.114606
20
42.867559
0
LWPOLYLINE
5
40
100
AcDbEntity
8
KEEPOUTLAYER
62
6
100
AcDbPolyline
90
2
70
0
43
0.000039
39
0.000039
10
45.114606
20
42.867559
10
45.009567
20
42.789724
0
LWPOLYLINE
5
41
100
AcDbEntity
8
KEEPOUTLAYER
62
6
100
AcDbPolyline
90
2
70
0
43
0.000039
39
0.000039
10
45.009567
20
42.789724
10
44.911693
20
42.703031
0
LWPOLYLINE
5
42
100
AcDbEntity
8
KEEPOUTLAYER
62
6
100
AcDbPolyline
90
2
70
0
43
0.000039
39
0.000039
10
44.911693
20
42.703031
10
44.821732
20
42.608150
0
LWPOLYLINE
5
43
100
AcDbEntity
8
KEEPOUTLAYER
62
6
100
AcDbPolyline
90
2
70
0
43
0.000039
39
0.000039
10
44.821732
20
42.608150
10
44.740433
20
42.505787
0
LWPOLYLINE
5
44
100
AcDbEntity
8
KEEPOUTLAYER
62
6
100
AcDbPolyline
90
2
70
0
43
0.000039
39
0.000039
10
44.740433
20
42.505787
10
44.668307
20
42.396732
0
LWPOLYLINE
5
45
100
AcDbEntity
8
KEEPOUTLAYER
62
6
100
AcDbPolyline
90
2
70
0
43
0.000039
39
0.000039
10
44.668307
20
42.396732
10
44.606024
20
42.281811
0
LWPOLYLINE
5
46
100
AcDbEntity
8
KEEPOUTLAYER
62
6
100
AcDbPolyline
90
2
70
0
43
0.000039
39
0.000039
10
44.606024
20
42.281811
10
44.553937
20
42.161890
0
LWPOLYLINE
5
47
100
AcDbEntity
8
KEEPOUTLAYER
62
6
100
AcDbPolyline
90
2
70
0
43
0.000039
39
0.000039
10
44.553937
20
42.161890
10
44.512520
20
42.037874
0
LWPOLYLINE
5
48
100
AcDbEntity
8
KEEPOUTLAYER
62
6
100
AcDbPolyline
90
2
70
0
43
0.000039
39
0.000039
10
44.512520
20
42.037874
10
44.482087
20
41.910748
0
LWPOLYLINE
5
49
100
AcDbEntity
8
KEEPOUTLAYER
62
6
100
AcDbPolyline
90
2
70
0
43
0.000039
39
0.000039
10
44.482087
20
41.910748
10
44.462835
20
41.781417
0
LWPOLYLINE
5
4A
100
AcDbEntity
8
KEEPOUTLAYER
62
6
100
AcDbPolyline
90
2
70
0
43
0.000039
39
0.000039
10
44.462835
20
41.781417
10
44.454921
20
41.650906
0
LWPOLYLINE
5
4B
100
AcDbEntity
8
KEEPOUTLAYER
62
6
100
AcDbPolyline
90
2
70
0
43
0.000039
39
0.000039
10
44.454921
20
41.650906
10
44.458425
20
41.520236
0
LWPOLYLINE
5
4C
100
AcDbEntity
8
KEEPOUTLAYER
62
6
100
AcDbPolyline
90
2
70
0
43
0.000039
39
0.000039
10
44.458425
20
41.520236
10
44.473268
20
41.390354
0
LWPOLYLINE
5
4D
100
AcDbEntity
8
KEEPOUTLAYER
62
6
100
AcDbPolyline
90
2
70
0
43
0.000039
39
0.000039
10
44.473268
20
41.390354
10
44.499409
20
41.262244
0
LWPOLYLINE
5
4E
100
AcDbEntity
8
KEEPOUTLAYER
62
6
100
AcDbPolyline
90
2
70
0
43
0.000039
39
0.000039
10
44.499409
20
41.262244
10
44.536614
20
41.136929
0
LWPOLYLINE
5
4F
100
AcDbEntity
8
KEEPOUTLAYER
62
6
100
AcDbPolyline
90
2
70
0
43
0.000039
39
0.000039
10
44.536614
20
41.136929
10
44.584606
20
41.015315
0
LWPOLYLINE
5
50
100
AcDbEntity
8
KEEPOUTLAYER
62
6
100
AcDbPolyline
90
2
70
0
43
0.000039
39
0.000039
10
44.584606
20
41.015315
10
44.642992
20
40.898346
0
LWPOLYLINE
5
51
100
AcDbEntity
8
KEEPOUTLAYER
62
6
100
AcDbPolyline
90
2
70
0
43
0.000039
39
0.000039
10
44.642992
20
40.898346
10
44.711378
20
40.786890
0
LWPOLYLINE
5
52
100
AcDbEntity
8
KEEPOUTLAYER
62
6
100
AcDbPolyline
90
2
70
0
43
0.000039
39
0.000039
10
44.711378
20
40.786890
10
44.789213
20
40.681850
0
LWPOLYLINE
5
53
100
AcDbEntity
8
KEEPOUTLAYER
62
6
100
AcDbPolyline
90
2
70
0
43
0.000039
39
0.000039
10
44.789213
20
40.681850
10
44.875906
20
40.583976
0
LWPOLYLINE
5
54
100
AcDbEntity
8
KEEPOUTLAYER
62
6
100
AcDbPolyline
90
2
70
0
43
0.000039
39
0.000039
10
44.875906
20
40.583976
10
44.970787
20
40.494016
0
LWPOLYLINE
5
55
100
AcDbEntity
8
KEEPOUTLAYER
62
6
100
AcDbPolyline
90
2
70
0
43
0.000039
39
0.000039
10
44.970787
20
40.494016
10
45.073150
20
40.412717
0
LWPOLYLINE
5
56
100
AcDbEntity
8
KEEPOUTLAYER
62
6
100
AcDbPolyline
90
2
70
0
43
0.000039
39
0.000039
10
45.073150
20
40.412717
10
45.182205
20
40.340591
0
LWPOLYLINE
5
57
100
AcDbEntity
8
KEEPOUTLAYER
62
6
100
AcDbPolyline
90
2
70
0
43
0.000039
39
0.000039
10
45.182205
20
40.340591
10
45.297126
20
40.278307
0
LWPOLYLINE
5
58
100
AcDbEntity
8
KEEPOUTLAYER
62
6
100
AcDbPolyline
90
2
70
0
43
0.000039
39
0.000039
10
45.297126
20
40.278307
10
45.417047
20
40.226220
0
LWPOLYLINE
5
59
100
AcDbEntity
8
KEEPOUTLAYER
62
6
100
AcDbPolyline
90
2
70
0
43
0.000039
39
0.000039
10
45.417047
20
40.226220
10
45.541063
20
40.184803
0
LWPOLYLINE
5
5A
100
AcDbEntity
8
KEEPOUTLAYER
62
6
100
AcDbPolyline
90
2
70
0
43
0.000039
39
0.000039
10
45.541063
20
40.184803
10
45.668189
20
40.154370
0
LWPOLYLINE
5
5B
100
AcDbEntity
8
KEEPOUTLAYER
62
6
100
AcDbPolyline
90
2
70
0
43
0.000039
39
0.000039
10
45.668189
20
40.154370
10
45.797520
20
40.135118
0
LWPOLYLINE
5
5C
100
AcDbEntity
8
KEEPOUTLAYER
62
6
100
AcDbPolyline
90
2
70
0
43
0.000039
39
0.000039
10
45.797520
20
40.135118
10
45.928031
20
40.127205
0
LWPOLYLINE
5
5D
100
AcDbEntity
8
KEEPOUTLAYER
62
6
100
AcDbPolyline
90
2
70
0
43
0.000039
39
0.000039
10
45.928031
20
40.127205
10
45.978740
20
40.127205
0
LWPOLYLINE
5
5E
100
AcDbEntity
8
KEEPOUTLAYER
62
6
100
AcDbPolyline
90
2
70
0
43
0.000039
39
0.000039
10
69.028465
20
40.123976
10
69.159134
20
40.127480
0
LWPOLYLINE
5
5F
100
AcDbEntity
8
KEEPOUTLAYER
62
6
100
AcDbPolyline
90
2
70
0
43
0.000039
39
0.000039
10
69.159134
20
40.127480
10
69.289016
20
40.142323
0
LWPOLYLINE
5
60
100
AcDbEntity
8
KEEPOUTLAYER
62
6
100
AcDbPolyline
90
2
70
0
43
0.000039
39
0.000039
10
69.289016
20
40.142323
10
69.417126
20
40.168465
0
LWPOLYLINE
5
61
100
AcDbEntity
8
KEEPOUTLAYER
62
6
100
AcDbPolyline
90
2
70
0
43
0.000039
39
0.000039
10
69.417126
20
40.168465
10
69.542441
20
40.205669
0
LWPOLYLINE
5
62
100
AcDbEntity
8
KEEPOUTLAYER
62
6
100
AcDbPolyline
90
2
70
0
43
0.000039
39
0.000039
10
69.542441
20
40.205669
10
69.664055
20
40.253661
0
LWPOLYLINE
5
63
100
AcDbEntity
8
KEEPOUTLAYER
62
6
100
AcDbPolyline
90
2
70
0
43
0.000039
39
0.000039
10
69.664055
20
40.253661
10
69.781024
20
40.312047
0
LWPOLYLINE
5
64
100
AcDbEntity
8
KEEPOUTLAYER
62
6
100
AcDbPolyline
90
2
70
0
43
0.000039
39
0.000039
10
69.781024
20
40.312047
10
69.892480
20
40.380433
0
LWPOLYLINE
5
65
100
AcDbEntity
8
KEEPOUTLAYER
62
6
100
AcDbPolyline
90
2
70
0
43
0.000039
39
0.000039
10
69.892480
20
40.380433
10
69.997520
20
40.458268
0
LWPOLYLINE
5
66
100
AcDbEntity
8
KEEPOUTLAYER
62
6
100
AcDbPolyline
90
2
70
0
43
0.000039
39
0.000039
10
69.997520
20
40.458268
10
70.095394
20
40.544961
0
LWPOLYLINE
5
67
100
AcDbEntity
8
KEEPOUTLAYER
62
6
100
AcDbPolyline
90
2
70
0
43
0.000039
39
0.000039
10
70.095394
20
40.544961
10
70.185354
20
40.639843
0
LWPOLYLINE
5
68
100
AcDbEntity
8
KEEPOUTLAYER
62
6
100
AcDbPolyline
90
2
70
0
43
0.000039
39
0.000039
10
70.185354
20
40.639843
10
70.266654
20
40.742205
0
LWPOLYLINE
5
69
100
AcDbEntity
8
KEEPOUTLAYER
62
6
100
AcDbPolyline
90
2
70
0
43
0.000039
39
0.000039
10
70.266654
20
40.742205
10
70.338780
20
40.851260
0
LWPOLYLINE
5
6A
100
AcDbEntity
8
KEEPOUTLAYER
62
6
100
AcDbPolyline
90
2
70
0
43
0.000039
39
0.000039
10
70.338780
20
40.851260
10
70.401063
20
40.966181
0
LWPOLYLINE
5
6B
100
AcDbEntity
8
KEEPOUTLAYER
62
6
100
AcDbPolyline
90
2
70
0
43
0.000039
39
0.000039
10
70.401063
20
40.966181
10
70.453150
20
41.086102
0
LWPOLYLINE
5
6C
100
AcDbEntity
8
KEEPOUTLAYER
62
6
100
AcDbPolyline
90
2
70
0
43
0.000039
39
0.000039
10
70.453150
20
41.086102
10
70.494567
20
41.210118
0
LWPOLYLINE
5
6D
100
AcDbEntity
8
KEEPOUTLAYER
62
6
100
AcDbPolyline
90
2
70
0
43
0.000039
39
0.000039
10
70.494567
20
41.210118
10
70.525000
20
41.337244
0
LWPOLYLINE
5
6E
100
AcDbEntity
8
KEEPOUTLAYER
62
6
100
AcDbPolyline
90
2
70
0
43
0.000039
39
0.000039
10
70.525000
20
41.337244
10
70.544252
20
41.466575
0
LWPOLYLINE
5
6F
100
AcDbEntity
8
KEEPOUTLAYER
62
6
100
AcDbPolyline
90
2
70
0
43
0.000039
39
0.000039
10
70.544252
20
41.466575
10
70.552165
20
41.597087
0
LWPOLYLINE
5
70
100
AcDbEntity
8
KEEPOUTLAYER
62
6
100
AcDbPolyline
90
2
70
0
43
0.000039
39
0.000039
10
70.552165
20
41.597087
10
70.548661
20
41.727756
0
LWPOLYLINE
5
71
100
AcDbEntity
8
KEEPOUTLAYER
62
6
100
AcDbPolyline
90
2
70
0
43
0.000039
39
0.000039
10
70.548661
20
41.727756
10
70.533819
20
41.857638
0
LWPOLYLINE
5
72
100
AcDbEntity
8
KEEPOUTLAYER
62
6
100
AcDbPolyline
90
2
70
0
43
0.000039
39
0.000039
10
70.533819
20
41.857638
10
70.507677
20
41.985748
0
LWPOLYLINE
5
73
100
AcDbEntity
8
KEEPOUTLAYER
62
6
100
AcDbPolyline
90
2
70
0
43
0.000039
39
0.000039
10
70.507677
20
41.985748
10
70.470472
20
42.111063
0
LWPOLYLINE
5
74
100
AcDbEntity
8
KEEPOUTLAYER
62
6
100
AcDbPolyline
90
2
70
0
43
0.000039
39
0.000039
10
70.470472
20
42.111063
10
70.422480
20
42.232677
0
LWPOLYLINE
5
75
100
AcDbEntity
8
KEEPOUTLAYER
62
6
100
AcDbPolyline
90
2
70
0
43
0.000039
39
0.000039
10
70.422480
20
42.232677
10
70.364094
20
42.349646
0
LWPOLYLINE
5
76
100
AcDbEntity
8
KEEPOUTLAYER
62
6
100
AcDbPolyline
90
2
70
0
43
0.000039
39
0.000039
10
70.364094
20
42.349646
10
70.295709
20
42.461102
0
LWPOLYLINE
5
77
100
AcDbEntity
8
KEEPOUTLAYER
62
6
100
AcDbPolyline
90
2
70
0
43
0.000039
39
0.000039
10
70.295709
20
42.461102
10
70.217874
20
42.566142
0
LWPOLYLINE
5
78
100
AcDbEntity
8
KEEPOUTLAYER
62
6
100
AcDbPolyline
90
2
70
0
43
0.000039
39
0.000039
10
70.217874
20
42.566142
10
70.131181
20
42.664016
0
LWPOLYLINE
5
79
100
AcDbEntity
8
KEEPOUTLAYER
62
6
100
AcDbPolyline
90
2
70
0
43
0.000039
39
0.000039
10
70.131181
20
42.664016
10
70.036299
20
42.753976
0
LWPOLYLINE
5
7A
100
AcDbEntity
8
KEEPOUTLAYER
62
6
100
AcDbPolyline
90
2
70
0
43
0.000039
39
0.000039
10
70.036299
20
42.753976
10
69.933937
20
42.835276
0
LWPOLYLINE
5
7B
100
AcDbEntity
8
KEEPOUTLAYER
62
6
100
AcDbPolyline
90
2
70
0
43
0.000039
39
0.000039
10
69.933937
20
42.835276
10
69.824882
20
42.907402
0
LWPOLYLINE
5
7C
100
AcDbEntity
8
KEEPOUTLAYER
62
6
100
AcDbPolyline
90
2
70
0
43
0.000039
39
0.000039
10
69.824882
20
42.907402
10
69.709961
20
42.969685
0
LWPOLYLINE
5
7D
100
AcDbEntity
8
KEEPOUTLAYER
62
6
100
AcDbPolyline
90
2
70
0
43
0.000039
39
0.000039
10
69.709961
20
42.969685
10
69.590039
20
43.021772
0
LWPOLYLINE
5
7E
100
AcDbEntity
8
KEEPOUTLAYER
62
6
100
AcDbPolyline
90
2
70
0
43
0.000039
39
0.000039
10
69.590039
20
43.021772
10
69.466024
20
43.063189
0
LWPOLYLINE
5
7F
100
AcDbEntity
8
KEEPOUTLAYER
62
6
100
AcDbPolyline
90
2
70
0
43
0.000039
39
0.000039
10
69.466024
20
43.063189
10
69.338898
20
43.093622
0
LWPOLYLINE
5
80
100
AcDbEntity
8
KEEPOUTLAYER
62
6
100
AcDbPolyline
90
2
70
0
43
0.000039
39
0.000039
10
69.338898
20
43.093622
10
69.209567
20
43.112874
0
LWPOLYLINE
5
81
100
AcDbEntity
8
KEEPOUTLAYER
62
6
100
AcDbPolyline
90
2
70
0
43
0.000039
39
0.000039
10
69.209567
20
43.112874
10
69.079055
20
43.120787
0
LWPOLYLINE
5
82
100
AcDbEntity
8
KEEPOUTLAYER
62
6
100
AcDbPolyline
90
2
70
0
43
0.000039
39
0.000039
10
69.079055
20
43.120787
10
69.028346
20
43.120787
0
CIRCLE
5
83
100
AcDbEntity
8
KEEPOUTLAYER
62
6
100
AcDbCircle
39
0.000039
10
41.625630
20
41.625630
30
0
40
1.625630
0
CIRCLE
5
84
100
AcDbEntity
8
KEEPOUTLAYER
62
6
100
AcDbCircle
39
0.000039
10
73.248622
20
41.625630
30
0
40
1.625630
0
LWPOLYLINE
5
85
100
AcDbEntity
8
KEEPOUTLAYER
62
6
100
AcDbPolyline
90
2
70
0
43
0.000039
39
0.000039
10
45.978780
20
2.127244
10
69.028465
20
2.127244
0
LWPOLYLINE
5
86
100
AcDbEntity
8
KEEPOUTLAYER
62
6
100
AcDbPolyline
90
2
70
0
43
0.000039
39
0.000039
10
45.978622
20
5.125472
10
69.028307
20
5.125472
0
LWPOLYLINE
5
87
100
AcDbEntity
8
KEEPOUTLAYER
62
6
100
AcDbPolyline
90
2
70
0
43
0.000039
39
0.000039
10
45.978622
20
5.124016
10
45.847953
20
5.120512
0
LWPOLYLINE
5
88
100
AcDbEntity
8
KEEPOUTLAYER
62
6
100
AcDbPolyline
90
2
70
0
43
0.000039
39
0.000039
10
45.847953
20
5.120512
10
45.718071
20
5.105669
0
LWPOLYLINE
5
89
100
AcDbEntity
8
KEEPOUTLAYER
62
6
100
AcDbPolyline
90
2
70
0
43
0.000039
39
0.000039
10
45.718071
20
5.105669
10
45.589961
20
5.079528
0
LWPOLYLINE
5
8A
100
AcDbEntity
8
KEEPOUTLAYER
62
6
100
AcDbPolyline
90
2
70
0
43
0.000039
39
0.000039
10
45.589961
20
5.079528
10
45.464646
20
5.042323
0
LWPOLYLINE
5
8B
100
AcDbEntity
8
KEEPOUTLAYER
62
6
100
AcDbPolyline
90
2
70
0
43
0.000039
39
0.000039
10
45.464646
20
5.042323
10
45.343031
20
4.994331
0
LWPOLYLINE
5
8C
100
AcDbEntity
8
KEEPOUTLAYER
62
6
100
AcDbPolyline
90
2
70
0
43
0.000039
39
0.000039
10
45.343031
20
4.994331
10
45.226063
20
4.935945
0
LWPOLYLINE
5
8D
100
AcDbEntity
8
KEEPOUTLAYER
62
6
100
AcDbPolyline
90
2
70
0
43
0.000039
39
0.000039
10
45.226063
20
4.935945
10
45.114606
20
4.867559
0
LWPOLYLINE
5
8E
100
AcDbEntity
8
KEEPOUTLAYER
62
6
100
AcDbPolyline
90
2
70
0
43
0.000039
39
0.000039
10
45.114606
20
4.867559
10
45.009567
20
4.789724
0
LWPOLYLINE
5
8F
100
AcDbEntity
8
KEEPOUTLAYER
62
6
100
AcDbPolyline
90
2
70
0
43
0.000039
39
0.000039
10
45.009567
20
4.789724
10
44.911693
20
4.703031
0
LWPOLYLINE
5
90
100
AcDbEntity
8
KEEPOUTLAYER
62
6
100
AcDbPolyline
90
2
70
0
43
0.000039
39
0.000039
10
44.911693
20
4.703031
10
44.821732
20
4.608150
0
LWPOLYLINE
5
91
100
AcDbEntity
8
KEEPOUTLAYER
62
6
100
AcDbPolyline
90
2
70
0
43
0.000039
39
0.000039
10
44.821732
20
4.608150
10
44.740433
20
4.505787
0
LWPOLYLINE
5
92
100
AcDbEntity
8
KEEPOUTLAYER
62
6
100
AcDbPolyline
90
2
70
0
43
0.000039
39
0.000039
10
44.740433
20
4.505787
10
44.668307
20
4.396732
0
LWPOLYLINE
5
93
100
AcDbEntity
8
KEEPOUTLAYER
62
6
100
AcDbPolyline
90
2
70
0
43
0.000039
39
0.000039
10
44.668307
20
4.396732
10
44.606024
20
4.281811
0
LWPOLYLINE
5
94
100
AcDbEntity
8
KEEPOUTLAYER
62
6
100
AcDbPolyline
90
2
70
0
43
0.000039
39
0.000039
10
44.606024
20
4.281811
10
44.553937
20
4.161890
0
LWPOLYLINE
5
95
100
AcDbEntity
8
KEEPOUTLAYER
62
6
100
AcDbPolyline
90
2
70
0
43
0.000039
39
0.000039
10
44.553937
20
4.161890
10
44.512520
20
4.037874
0
LWPOLYLINE
5
96
100
AcDbEntity
8
KEEPOUTLAYER
62
6
100
AcDbPolyline
90
2
70
0
43
0.000039
39
0.000039
10
44.512520
20
4.037874
10
44.482087
20
3.910748
0
LWPOLYLINE
5
97
100
AcDbEntity
8
KEEPOUTLAYER
62
6
100
AcDbPolyline
90
2
70
0
43
0.000039
39
0.000039
10
44.482087
20
3.910748
10
44.462835
20
3.781417
0
LWPOLYLINE
5
98
100
AcDbEntity
8
KEEPOUTLAYER
62
6
100
AcDbPolyline
90
2
70
0
43
0.000039
39
0.000039
10
44.462835
20
3.781417
10
44.454921
20
3.650906
0
LWPOLYLINE
5
99
100
AcDbEntity
8
KEEPOUTLAYER
62
6
100
AcDbPolyline
90
2
70
0
43
0.000039
39
0.000039
10
44.454921
20
3.650906
10
44.458425
20
3.520236
0
LWPOLYLINE
5
9A
100
AcDbEntity
8
KEEPOUTLAYER
62
6
100
AcDbPolyline
90
2
70
0
43
0.000039
39
0.000039
10
44.458425
20
3.520236
10
44.473268
20
3.390354
0
LWPOLYLINE
5
9B
100
AcDbEntity
8
KEEPOUTLAYER
62
6
100
AcDbPolyline
90
2
70
0
43
0.000039
39
0.000039
10
44.473268
20
3.390354
10
44.499409
20
3.262244
0
LWPOLYLINE
5
9C
100
AcDbEntity
8
KEEPOUTLAYER
62
6
100
AcDbPolyline
90
2
70
0
43
0.000039
39
0.000039
10
44.499409
20
3.262244
10
44.536614
20
3.136929
0
LWPOLYLINE
5
9D
100
AcDbEntity
8
KEEPOUTLAYER
62
6
100
AcDbPolyline
90
2
70
0
43
0.000039
39
0.000039
10
44.536614
20
3.136929
10
44.584606
20
3.015315
0
LWPOLYLINE
5
9E
100
AcDbEntity
8
KEEPOUTLAYER
62
6
100
AcDbPolyline
90
2
70
0
43
0.000039
39
0.000039
10
44.584606
20
3.015315
10
44.642992
20
2.898346
0
LWPOLYLINE
5
9F
100
AcDbEntity
8
KEEPOUTLAYER
62
6
100
AcDbPolyline
90
2
70
0
43
0.000039
39
0.000039
10
44.642992
20
2.898346
10
44.711378
20
2.786890
0
LWPOLYLINE
5
A0
100
AcDbEntity
8
KEEPOUTLAYER
62
6
100
AcDbPolyline
90
2
70
0
43
0.000039
39
0.000039
10
44.711378
20
2.786890
10
44.789213
20
2.681850
0
LWPOLYLINE
5
A1
100
AcDbEntity
8
KEEPOUTLAYER
62
6
100
AcDbPolyline
90
2
70
0
43
0.000039
39
0.000039
10
44.789213
20
2.681850
10
44.875906
20
2.583976
0
LWPOLYLINE
5
A2
100
AcDbEntity
8
KEEPOUTLAYER
62
6
100
AcDbPolyline
90
2
70
0
43
0.000039
39
0.000039
10
44.875906
20
2.583976
10
44.970787
20
2.494016
0
LWPOLYLINE
5
A3
100
AcDbEntity
8
KEEPOUTLAYER
62
6
100
AcDbPolyline
90
2
70
0
43
0.000039
39
0.000039
10
44.970787
20
2.494016
10
45.073150
20
2.412717
0
LWPOLYLINE
5
A4
100
AcDbEntity
8
KEEPOUTLAYER
62
6
100
AcDbPolyline
90
2
70
0
43
0.000039
39
0.000039
10
45.073150
20
2.412717
10
45.182205
20
2.340591
0
LWPOLYLINE
5
A5
100
AcDbEntity
8
KEEPOUTLAYER
62
6
100
AcDbPolyline
90
2
70
0
43
0.000039
39
0.000039
10
45.182205
20
2.340591
10
45.297126
20
2.278307
0
LWPOLYLINE
5
A6
100
AcDbEntity
8
KEEPOUTLAYER
62
6
100
AcDbPolyline
90
2
70
0
43
0.000039
39
0.000039
10
45.297126
20
2.278307
10
45.417047
20
2.226220
0
LWPOLYLINE
5
A7
100
AcDbEntity
8
KEEPOUTLAYER
62
6
100
AcDbPolyline
90
2
70
0
43
0.000039
39
0.000039
10
45.417047
20
2.226220
10
45.541063
20
2.184803
0
LWPOLYLINE
5
A8
100
AcDbEntity
8
KEEPOUTLAYER
62
6
100
AcDbPolyline
90
2
70
0
43
0.000039
39
0.000039
10
45.541063
20
2.184803
10
45.668189
20
2.154370
0
LWPOLYLINE
5
A9
100
AcDbEntity
8
KEEPOUTLAYER
62
6
100
AcDbPolyline
90
2
70
0
43
0.000039
39
0.000039
10
45.668189
20
2.154370
10
45.797520
20
2.135118
0
LWPOLYLINE
5
AA
100
AcDbEntity
8
KEEPOUTLAYER
62
6
100
AcDbPolyline
90
2
70
0
43
0.000039
39
0.000039
10
45.797520
20
2.135118
10
45.928031
20
2.127205
0
LWPOLYLINE
5
AB
100
AcDbEntity
8
KEEPOUTLAYER
62
6
100
AcDbPolyline
90
2
70
0
43
0.000039
39
0.000039
10
45.928031
20
2.127205
10
45.978740
20
2.127205
0
LWPOLYLINE
5
AC
100
AcDbEntity
8
KEEPOUTLAYER
62
6
100
AcDbPolyline
90
2
70
0
43
0.000039
39
0.000039
10
69.028465
20
2.128622
10
69.159134
20
2.132126
0
LWPOLYLINE
5
AD
100
AcDbEntity
8
KEEPOUTLAYER
62
6
100
AcDbPolyline
90
2
70
0
43
0.000039
39
0.000039
10
69.159134
20
2.132126
10
69.289016
20
2.146969
0
LWPOLYLINE
5
AE
100
AcDbEntity
8
KEEPOUTLAYER
62
6
100
AcDbPolyline
90
2
70
0
43
0.000039
39
0.000039
10
69.289016
20
2.146969
10
69.417126
20
2.173110
0
LWPOLYLINE
5
AF
100
AcDbEntity
8
KEEPOUTLAYER
62
6
100
AcDbPolyline
90
2
70
0
43
0.000039
39
0.000039
10
69.417126
20
2.173110
10
69.542441
20
2.210315
0
LWPOLYLINE
5
B0
100
AcDbEntity
8
KEEPOUTLAYER
62
6
100
AcDbPolyline
90
2
70
0
43
0.000039
39
0.000039
10
69.542441
20
2.210315
10
69.664055
20
2.258307
0
LWPOLYLINE
5
B1
100
AcDbEntity
8
KEEPOUTLAYER
62
6
100
AcDbPolyline
90
2
70
0
43
0.000039
39
0.000039
10
69.664055
20
2.258307
10
69.781024
20
2.316693
0
LWPOLYLINE
5
B2
100
AcDbEntity
8
KEEPOUTLAYER
62
6
100
AcDbPolyline
90
2
70
0
43
0.000039
39
0.000039
10
69.781024
20
2.316693
10
69.892480
20
2.385079
0
LWPOLYLINE
5
B3
100
AcDbEntity
8
KEEPOUTLAYER
62
6
100
AcDbPolyline
90
2
70
0
43
0.000039
39
0.000039
10
69.892480
20
2.385079
10
69.997520
20
2.462913
0
LWPOLYLINE
5
B4
100
AcDbEntity
8
KEEPOUTLAYER
62
6
100
AcDbPolyline
90
2
70
0
43
0.000039
39
0.000039
10
69.997520
20
2.462913
10
70.095394
20
2.549606
0
LWPOLYLINE
5
B5
100
AcDbEntity
8
KEEPOUTLAYER
62
6
100
AcDbPolyline
90
2
70
0
43
0.000039
39
0.000039
10
70.095394
20
2.549606
10
70.185354
20
2.644488
0
LWPOLYLINE
5
B6
100
AcDbEntity
8
KEEPOUTLAYER
62
6
100
AcDbPolyline
90
2
70
0
43
0.000039
39
0.000039
10
70.185354
20
2.644488
10
70.266654
20
2.746850
0
LWPOLYLINE
5
B7
100
AcDbEntity
8
KEEPOUTLAYER
62
6
100
AcDbPolyline
90
2
70
0
43
0.000039
39
0.000039
10
70.266654
20
2.746850
10
70.338780
20
2.855906
0
LWPOLYLINE
5
B8
100
AcDbEntity
8
KEEPOUTLAYER
62
6
100
AcDbPolyline
90
2
70
0
43
0.000039
39
0.000039
10
70.338780
20
2.855906
10
70.401063
20
2.970827
0
LWPOLYLINE
5
B9
100
AcDbEntity
8
KEEPOUTLAYER
62
6
100
AcDbPolyline
90
2
70
0
43
0.000039
39
0.000039
10
70.401063
20
2.970827
10
70.453150
20
3.090748
0
LWPOLYLINE
5
BA
100
AcDbEntity
8
KEEPOUTLAYER
62
6
100
AcDbPolyline
90
2
70
0
43
0.000039
39
0.000039
10
70.453150
20
3.090748
10
70.494567
20
3.214764
0
LWPOLYLINE
5
BB
100
AcDbEntity
8
KEEPOUTLAYER
62
6
100
AcDbPolyline
90
2
70
0
43
0.000039
39
0.000039
10
70.494567
20
3.214764
10
70.525000
20
3.341890
0
LWPOLYLINE
5
BC
100
AcDbEntity
8
KEEPOUTLAYER
62
6
100
AcDbPolyline
90
2
70
0
43
0.000039
39
0.000039
10
70.525000
20
3.341890
10
70.544252
20
3.471220
0
LWPOLYLINE
5
BD
100
AcDbEntity
8
KEEPOUTLAYER
62
6
100
AcDbPolyline
90
2
70
0
43
0.000039
39
0.000039
10
70.544252
20
3.471220
10
70.552165
20
3.601732
0
LWPOLYLINE
5
BE
100
AcDbEntity
8
KEEPOUTLAYER
62
6
100
AcDbPolyline
90
2
70
0
43
0.000039
39
0.000039
10
70.552165
20
3.601732
10
70.548661
20
3.732402
0
LWPOLYLINE
5
BF
100
AcDbEntity
8
KEEPOUTLAYER
62
6
100
AcDbPolyline
90
2
70
0
43
0.000039
39
0.000039
10
70.548661
20
3.732402
10
70.533819
20
3.862283
0
LWPOLYLINE
5
C0
100
AcDbEntity
8
KEEPOUTLAYER
62
6
100
AcDbPolyline
90
2
70
0
43
0.000039
39
0.000039
10
70.533819
20
3.862283
10
70.507677
20
3.990394
0
LWPOLYLINE
5
C1
100
AcDbEntity
8
KEEPOUTLAYER
62
6
100
AcDbPolyline
90
2
70
0
43
0.000039
39
0.000039
10
70.507677
20
3.990394
10
70.470472
20
4.115709
0
LWPOLYLINE
5
C2
100
AcDbEntity
8
KEEPOUTLAYER
62
6
100
AcDbPolyline
90
2
70
0
43
0.000039
39
0.000039
10
70.470472
20
4.115709
10
70.422480
20
4.237323
0
LWPOLYLINE
5
C3
100
AcDbEntity
8
KEEPOUTLAYER
62
6
100
AcDbPolyline
90
2
70
0
43
0.000039
39
0.000039
10
70.422480
20
4.237323
10
70.364094
20
4.354291
0
LWPOLYLINE
5
C4
100
AcDbEntity
8
KEEPOUTLAYER
62
6
100
AcDbPolyline
90
2
70
0
43
0.000039
39
0.000039
10
70.364094
20
4.354291
10
70.295709
20
4.465748
0
LWPOLYLINE
5
C5
100
AcDbEntity
8
KEEPOUTLAYER
62
6
100
AcDbPolyline
90
2
70
0
43
0.000039
39
0.000039
10
70.295709
20
4.465748
10
70.217874
20
4.570787
0
LWPOLYLINE
5
C6
100
AcDbEntity
8
KEEPOUTLAYER
62
6
100
AcDbPolyline
90
2
70
0
43
0.000039
39
0.000039
10
70.217874
20
4.570787
10
70.131181
20
4.668661
0
LWPOLYLINE
5
C7
100
AcDbEntity
8
KEEPOUTLAYER
62
6
100
AcDbPolyline
90
2
70
0
43
0.000039
39
0.000039
10
70.131181
20
4.668661
10
70.036299
20
4.758622
0
LWPOLYLINE
5
C8
100
AcDbEntity
8
KEEPOUTLAYER
62
6
100
AcDbPolyline
90
2
70
0
43
0.000039
39
0.000039
10
70.036299
20
4.758622
10
69.933937
20
4.839921
0
LWPOLYLINE
5
C9
100
AcDbEntity
8
KEEPOUTLAYER
62
6
100
AcDbPolyline
90
2
70
0
43
0.000039
39
0.000039
10
69.933937
20
4.839921
10
69.824882
20
4.912047
0
LWPOLYLINE
5
CA
100
AcDbEntity
8
KEEPOUTLAYER
62
6
100
AcDbPolyline
90
2
70
0
43
0.000039
39
0.000039
10
69.824882
20
4.912047
10
69.709961
20
4.974331
0
LWPOLYLINE
5
CB
100
AcDbEntity
8
KEEPOUTLAYER
62
6
100
AcDbPolyline
90
2
70
0
43
0.000039
39
0.000039
10
69.709961
20
4.974331
10
69.590039
20
5.026417
0
LWPOLYLINE
5
CC
100
AcDbEntity
8
KEEPOUTLAYER
62
6
100
AcDbPolyline
90
2
70
0
43
0.000039
39
0.000039
10
69.590039
20
5.026417
10
69.466024
20
5.067835
0
LWPOLYLINE
5
CD
100
AcDbEntity
8
KEEPOUTLAYER
62
6
100
AcDbPolyline
90
2
70
0
43
0.000039
39
0.000039
10
69.466024
20
5.067835
10
69.338898
20
5.098268
0
LWPOLYLINE
5
CE
100
AcDbEntity
8
KEEPOUTLAYER
62
6
100
AcDbPolyline
90
2
70
0
43
0.000039
39
0.000039
10
69.338898
20
5.098268
10
69.209567
20
5.117520
0
LWPOLYLINE
5
CF
100
AcDbEntity
8
KEEPOUTLAYER
62
6
100
AcDbPolyline
90
2
70
0
43
0.000039
39
0.000039
10
69.209567
20
5.117520
10
69.079055
20
5.125433
0
LWPOLYLINE
5
D0
100
AcDbEntity
8
KEEPOUTLAYER
62
6
100
AcDbPolyline
90
2
70
0
43
0.000039
39
0.000039
10
69.079055
20
5.125433
10
69.028346
20
5.125433
0
CIRCLE
5
D1
100
AcDbEntity
8
KEEPOUTLAYER
62
6
100
AcDbCircle
39
0.000039
10
73.248622
20
3.625630
30
0
40
1.625630
0
CIRCLE
5
D2
100
AcDbEntity
8
KEEPOUTLAYER
62
6
100
AcDbCircle
39
0.000039
10
41.752638
20
3.625630
30
0
40
1.625630
0
LWPOLYLINE
5
D3
100
AcDbEntity
8
KEEPOUTLAYER
62
6
100
AcDbPolyline
90
2
70
0
43
0.000039
39
0.000039
10
76.474449
20
19.066850
10
76.474449
20
40.680315
0
LWPOLYLINE
5
D4
100
AcDbEntity
8
KEEPOUTLAYER
62
6
100
AcDbPolyline
90
2
70
0
43
0.000039
39
0.000039
10
76.474370
20
40.680354
10
76.469016
20
41.057165
0
LWPOLYLINE
5
D5
100
AcDbEntity
8
KEEPOUTLAYER
62
6
100
AcDbPolyline
90
2
70
0
43
0.000039
39
0.000039
10
76.469016
20
41.057165
10
76.430827
20
41.432087
0
LWPOLYLINE
5
D6
100
AcDbEntity
8
KEEPOUTLAYER
62
6
100
AcDbPolyline
90
2
70
0
43
0.000039
39
0.000039
10
76.430827
20
41.432087
10
76.360118
20
41.802244
0
LWPOLYLINE
5
D7
100
AcDbEntity
8
KEEPOUTLAYER
62
6
100
AcDbPolyline
90
2
70
0
43
0.000039
39
0.000039
10
76.360118
20
41.802244
10
76.257402
20
42.164843
0
LWPOLYLINE
5
D8
100
AcDbEntity
8
KEEPOUTLAYER
62
6
100
AcDbPolyline
90
2
70
0
43
0.000039
39
0.000039
10
76.257402
20
42.164843
10
76.123465
20
42.517126
0
LWPOLYLINE
5
D9
100
AcDbEntity
8
KEEPOUTLAYER
62
6
100
AcDbPolyline
90
2
70
0
43
0.000039
39
0.000039
10
76.123465
20
42.517126
10
75.959370
20
42.856339
0
LWPOLYLINE
5
DA
100
AcDbEntity
8
KEEPOUTLAYER
62
6
100
AcDbPolyline
90
2
70
0
43
0.000039
39
0.000039
10
75.959370
20
42.856339
10
75.766299
20
43.180000
0
LWPOLYLINE
5
DB
100
AcDbEntity
8
KEEPOUTLAYER
62
6
100
AcDbPolyline
90
2
70
0
43
0.000039
39
0.000039
10
75.766299
20
43.180000
10
75.545787
20
43.485630
0
LWPOLYLINE
5
DC
100
AcDbEntity
8
KEEPOUTLAYER
62
6
100
AcDbPolyline
90
2
70
0
43
0.000039
39
0.000039
10
75.545787
20
43.485630
10
75.299449
20
43.770827
0
LWPOLYLINE
5
DD
100
AcDbEntity
8
KEEPOUTLAYER
62
6
100
AcDbPolyline
90
2
70
0
43
0.000039
39
0.000039
10
75.299449
20
43.770827
10
75.029213
20
44.033504
0
LWPOLYLINE
5
DE
100
AcDbEntity
8
KEEPOUTLAYER
62
6
100
AcDbPolyline
90
2
70
0
43
0.000039
39
0.000039
10
75.029213
20
44.033504
10
74.737126
20
44.271614
0
LWPOLYLINE
5
DF
100
AcDbEntity
8
KEEPOUTLAYER
62
6
100
AcDbPolyline
90
2
70
0
43
0.000039
39
0.000039
10
74.737126
20
44.271614
10
74.425354
20
44.483346
0
LWPOLYLINE
5
E0
100
AcDbEntity
8
KEEPOUTLAYER
62
6
100
AcDbPolyline
90
2
70
0
43
0.000039
39
0.000039
10
74.425354
20
44.483346
10
74.096339
20
44.667126
0
LWPOLYLINE
5
E1
100
AcDbEntity
8
KEEPOUTLAYER
62
6
100
AcDbPolyline
90
2
70
0
43
0.000039
39
0.000039
10
74.096339
20
44.667126
10
73.752559
20
44.821496
0
LWPOLYLINE
5
E2
100
AcDbEntity
8
KEEPOUTLAYER
62
6
100
AcDbPolyline
90
2
70
0
43
0.000039
39
0.000039
10
73.752559
20
44.821496
10
73.396614
20
44.945354
0
LWPOLYLINE
5
E3
100
AcDbEntity
8
KEEPOUTLAYER
62
6
100
AcDbPolyline
90
2
70
0
43
0.000039
39
0.000039
10
73.396614
20
44.945354
10
73.031260
20
45.037717
0
LWPOLYLINE
5
E4
100
AcDbEntity
8
KEEPOUTLAYER
62
6
100
AcDbPolyline
90
2
70
0
43
0.000039
39
0.000039
10
73.031260
20
45.037717
10
72.659213
20
45.097874
0
LWPOLYLINE
5
E5
100
AcDbEntity
8
KEEPOUTLAYER
62
6
100
AcDbPolyline
90
2
70
0
43
0.000039
39
0.000039
10
72.659213
20
45.097874
10
72.283346
20
45.125354
0
LWPOLYLINE
5
E6
100
AcDbEntity
8
KEEPOUTLAYER
62
6
100
AcDbPolyline
90
2
70
0
43
0.000039
39
0.000039
10
72.283346
20
45.125354
10
72.156378
20
45.127244
0
LWPOLYLINE
5
E7
100
AcDbEntity
8
KEEPOUTLAYER
62
6
100
AcDbPolyline
90
2
70
0
43
0.000039
39
0.000039
10
43.073386
20
45.127244
10
72.156378
20
45.127244
0
LWPOLYLINE
5
E8
100
AcDbEntity
8
KEEPOUTLAYER
62
6
100
AcDbPolyline
90
2
70
0
43
0.000039
39
0.000039
10
43.073346
20
45.127244
10
42.696535
20
45.121890
0
LWPOLYLINE
5
E9
100
AcDbEntity
8
KEEPOUTLAYER
62
6
100
AcDbPolyline
90
2
70
0
43
0.000039
39
0.000039
10
42.696535
20
45.121890
10
42.321614
20
45.083701
0
LWPOLYLINE
5
EA
100
AcDbEntity
8
KEEPOUTLAYER
62
6
100
AcDbPolyline
90
2
70
0
43
0.000039
39
0.000039
10
42.321614
20
45.083701
10
41.951457
20
45.012992
0
LWPOLYLINE
5
EB
100
AcDbEntity
8
KEEPOUTLAYER
62
6
100
AcDbPolyline
90
2
70
0
43
0.000039
39
0.000039
10
41.951457
20
45.012992
10
41.588858
20
44.910276
0
LWPOLYLINE
5
EC
100
AcDbEntity
8
KEEPOUTLAYER
62
6
100
AcDbPolyline
90
2
70
0
43
0.000039
39
0.000039
10
41.588858
20
44.910276
10
41.236575
20
44.776339
0
LWPOLYLINE
5
ED
100
AcDbEntity
8
KEEPOUTLAYER
62
6
100
AcDbPolyline
90
2
70
0
43
0.000039
39
0.000039
10
41.236575
20
44.776339
10
40.897362
20
44.612244
0
LWPOLYLINE
5
EE
100
AcDbEntity
8
KEEPOUTLAYER
62
6
100
AcDbPolyline
90
2
70
0
43
0.000039
39
0.000039
10
40.897362
20
44.612244
10
40.573701
20
44.419173
0
LWPOLYLINE
5
EF
100
AcDbEntity
8
KEEPOUTLAYER
62
6
100
AcDbPolyline
90
2
70
0
43
0.000039
39
0.000039
10
40.573701
20
44.419173
10
40.268071
20
44.198661
0
LWPOLYLINE
5
F0
100
AcDbEntity
8
KEEPOUTLAYER
62
6
100
AcDbPolyline
90
2
70
0
43
0.000039
39
0.000039
10
40.268071
20
44.198661
10
39.982874
20
43.952323
0
LWPOLYLINE
5
F1
100
AcDbEntity
8
KEEPOUTLAYER
62
6
100
AcDbPolyline
90
2
70
0
43
0.000039
39
0.000039
10
39.982874
20
43.952323
10
39.720197
20
43.682087
0
LWPOLYLINE
5
F2
100
AcDbEntity
8
KEEPOUTLAYER
62
6
100
AcDbPolyline
90
2
70
0
43
0.000039
39
0.000039
10
39.720197
20
43.682087
10
39.482087
20
43.390000
0
LWPOLYLINE
5
F3
100
AcDbEntity
8
KEEPOUTLAYER
62
6
100
AcDbPolyline
90
2
70
0
43
0.000039
39
0.000039
10
39.482087
20
43.390000
10
39.270354
20
43.078228
0
LWPOLYLINE
5
F4
100
AcDbEntity
8
KEEPOUTLAYER
62
6
100
AcDbPolyline
90
2
70
0
43
0.000039
39
0.000039
10
39.270354
20
43.078228
10
39.086575
20
42.749213
0
LWPOLYLINE
5
F5
100
AcDbEntity
8
KEEPOUTLAYER
62
6
100
AcDbPolyline
90
2
70
0
43
0.000039
39
0.000039
10
39.086575
20
42.749213
10
38.932205
20
42.405433
0
LWPOLYLINE
5
F6
100
AcDbEntity
8
KEEPOUTLAYER
62
6
100
AcDbPolyline
90
2
70
0
43
0.000039
39
0.000039
10
38.932205
20
42.405433
10
38.808346
20
42.049488
0
LWPOLYLINE
5
F7
100
AcDbEntity
8
KEEPOUTLAYER
62
6
100
AcDbPolyline
90
2
70
0
43
0.000039
39
0.000039
10
38.808346
20
42.049488
10
38.715984
20
41.684134
0
LWPOLYLINE
5
F8
100
AcDbEntity
8
KEEPOUTLAYER
62
6
100
AcDbPolyline
90
2
70
0
43
0.000039
39
0.000039
10
38.715984
20
41.684134
10
38.655827
20
41.312087
0
LWPOLYLINE
5
F9
100
AcDbEntity
8
KEEPOUTLAYER
62
6
100
AcDbPolyline
90
2
70
0
43
0.000039
39
0.000039
10
38.655827
20
41.312087
10
38.628346
20
40.936220
0
LWPOLYLINE
5
FA
100
AcDbEntity
8
KEEPOUTLAYER
62
6
100
AcDbPolyline
90
2
70
0
43
0.000039
39
0.000039
10
38.628346
20
40.936220
10
38.626496
20
40.809252
0
LWPOLYLINE
5
FB
100
AcDbEntity
8
KEEPOUTLAYER
62
6
100
AcDbPolyline
90
2
70
0
43
0.000039
39
0.000039
10
38.626535
20
23.080039
10
38.626535
20
40.809252
0
LWPOLYLINE
5
FC
100
AcDbEntity
8
KEEPOUTLAYER
62
6
100
AcDbPolyline
90
2
70
0
43
0.000039
39
0.000039
10
38.626535
20
23.080039
10
43.175039
20
23.080039
0
LWPOLYLINE
5
FD
100
AcDbEntity
8
KEEPOUTLAYER
62
6
100
AcDbPolyline
90
2
70
0
43
0.000039
39
0.000039
10
43.175039
20
7.078031
10
43.175039
20
23.080039
0
LWPOLYLINE
5
FE
100
AcDbEntity
8
KEEPOUTLAYER
62
6
100
AcDbPolyline
90
2
70
0
43
0.000039
39
0.000039
10
38.628386
20
7.078031
10
43.175039
20
7.078031
0
LWPOLYLINE
5
FF
100
AcDbEntity
8
KEEPOUTLAYER
62
6
100
AcDbPolyline
90
2
70
0
43
0.000039
39
0.000039
10
38.628386
20
4.572244
10
38.628386
20
7.078031
0
LWPOLYLINE
5
100
100
AcDbEntity
8
KEEPOUTLAYER
62
6
100
AcDbPolyline
90
2
70
0
43
0.000039
39
0.000039
10
38.628346
20
4.572205
10
38.633701
20
4.195394
0
LWPOLYLINE
5
101
100
AcDbEntity
8
KEEPOUTLAYER
62
6
100
AcDbPolyline
90
2
70
0
43
0.000039
39
0.000039
10
38.633701
20
4.195394
10
38.671890
20
3.820472
0
LWPOLYLINE
5
102
100
AcDbEntity
8
KEEPOUTLAYER
62
6
100
AcDbPolyline
90
2
70
0
43
0.000039
39
0.000039
10
38.671890
20
3.820472
10
38.742598
20
3.450315
0
LWPOLYLINE
5
103
100
AcDbEntity
8
KEEPOUTLAYER
62
6
100
AcDbPolyline
90
2
70
0
43
0.000039
39
0.000039
10
38.742598
20
3.450315
10
38.845315
20
3.087717
0
LWPOLYLINE
5
104
100
AcDbEntity
8
KEEPOUTLAYER
62
6
100
AcDbPolyline
90
2
70
0
43
0.000039
39
0.000039
10
38.845315
20
3.087717
10
38.979252
20
2.735433
0
LWPOLYLINE
5
105
100
AcDbEntity
8
KEEPOUTLAYER
62
6
100
AcDbPolyline
90
2
70
0
43
0.000039
39
0.000039
10
38.979252
20
2.735433
10
39.143346
20
2.396220
0
LWPOLYLINE
5
106
100
AcDbEntity
8
KEEPOUTLAYER
62
6
100
AcDbPolyline
90
2
70
0
43
0.000039
39
0.000039
10
39.143346
20
2.396220
10
39.336417
20
2.072559
0
LWPOLYLINE
5
107
100
AcDbEntity
8
KEEPOUTLAYER
62
6
100
AcDbPolyline
90
2
70
0
43
0.000039
39
0.000039
10
39.336417
20
2.072559
10
39.556929
20
1.766929
0
LWPOLYLINE
5
108
100
AcDbEntity
8
KEEPOUTLAYER
62
6
100
AcDbPolyline
90
2
70
0
43
0.000039
39
0.000039
10
39.556929
20
1.766929
10
39.803268
20
1.481732
0
LWPOLYLINE
5
109
100
AcDbEntity
8
KEEPOUTLAYER
62
6
100
AcDbPolyline
90
2
70
0
43
0.000039
39
0.000039
10
39.803268
20
1.481732
10
40.073504
20
1.219055
0
LWPOLYLINE
5
10A
100
AcDbEntity
8
KEEPOUTLAYER
62
6
100
AcDbPolyline
90
2
70
0
43
0.000039
39
0.000039
10
40.073504
20
1.219055
10
40.365591
20
0.980945
0
LWPOLYLINE
5
10B
100
AcDbEntity
8
KEEPOUTLAYER
62
6
100
AcDbPolyline
90
2
70
0
43
0.000039
39
0.000039
10
40.365591
20
0.980945
10
40.677362
20
0.769213
0
LWPOLYLINE
5
10C
100
AcDbEntity
8
KEEPOUTLAYER
62
6
100
AcDbPolyline
90
2
70
0
43
0.000039
39
0.000039
10
40.677362
20
0.769213
10
41.006378
20
0.585433
0
LWPOLYLINE
5
10D
100
AcDbEntity
8
KEEPOUTLAYER
62
6
100
AcDbPolyline
90
2
70
0
43
0.000039
39
0.000039
10
41.006378
20
0.585433
10
41.350157
20
0.431063
0
LWPOLYLINE
5
10E
100
AcDbEntity
8
KEEPOUTLAYER
62
6
100
AcDbPolyline
90
2
70
0
43
0.000039
39
0.000039
10
41.350157
20
0.431063
10
41.706102
20
0.307205
0
LWPOLYLINE
5
10F
100
AcDbEntity
8
KEEPOUTLAYER
62
6
100
AcDbPolyline
90
2
70
0
43
0.000039
39
0.000039
10
41.706102
20
0.307205
10
42.071457
20
0.214843
0
LWPOLYLINE
5
110
100
AcDbEntity
8
KEEPOUTLAYER
62
6
100
AcDbPolyline
90
2
70
0
43
0.000039
39
0.000039
10
42.071457
20
0.214843
10
42.443504
20
0.154685
0
LWPOLYLINE
5
111
100
AcDbEntity
8
KEEPOUTLAYER
62
6
100
AcDbPolyline
90
2
70
0
43
0.000039
39
0.000039
10
42.443504
20
0.154685
10
42.819370
20
0.127205
0
LWPOLYLINE
5
112
100
AcDbEntity
8
KEEPOUTLAYER
62
6
100
AcDbPolyline
90
2
70
0
43
0.000039
39
0.000039
10
42.819370
20
0.127205
10
42.946378
20
0.125354
0
LWPOLYLINE
5
113
100
AcDbEntity
8
KEEPOUTLAYER
62
6
100
AcDbPolyline
90
2
70
0
43
0.000039
39
0.000039
10
42.946378
20
0.127244
10
72.029409
20
0.127244
0
LWPOLYLINE
5
114
100
AcDbEntity
8
KEEPOUTLAYER
62
6
100
AcDbPolyline
90
2
70
0
43
0.000039
39
0.000039
10
72.029370
20
0.127205
10
72.406181
20
0.132559
0
LWPOLYLINE
5
115
100
AcDbEntity
8
KEEPOUTLAYER
62
6
100
AcDbPolyline
90
2
70
0
43
0.000039
39
0.000039
10
72.406181
20
0.132559
10
72.781102
20
0.170748
0
LWPOLYLINE
5
116
100
AcDbEntity
8
KEEPOUTLAYER
62
6
100
AcDbPolyline
90
2
70
0
43
0.000039
39
0.000039
10
72.781102
20
0.170748
10
73.151260
20
0.241457
0
LWPOLYLINE
5
117
100
AcDbEntity
8
KEEPOUTLAYER
62
6
100
AcDbPolyline
90
2
70
0
43
0.000039
39
0.000039
10
73.151260
20
0.241457
10
73.513858
20
0.344173
0
LWPOLYLINE
5
118
100
AcDbEntity
8
KEEPOUTLAYER
62
6
100
AcDbPolyline
90
2
70
0
43
0.000039
39
0.000039
10
73.513858
20
0.344173
10
73.866142
20
0.478110
0
LWPOLYLINE
5
119
100
AcDbEntity
8
KEEPOUTLAYER
62
6
100
AcDbPolyline
90
2
70
0
43
0.000039
39
0.000039
10
73.866142
20
0.478110
10
74.205354
20
0.642205
0
LWPOLYLINE
5
11A
100
AcDbEntity
8
KEEPOUTLAYER
62
6
100
AcDbPolyline
90
2
70
0
43
0.000039
39
0.000039
10
74.205354
20
0.642205
10
74.529016
20
0.835276
0
LWPOLYLINE
5
11B
100
AcDbEntity
8
KEEPOUTLAYER
62
6
100
AcDbPolyline
90
2
70
0
43
0.000039
39
0.000039
10
74.529016
20
0.835276
10
74.834646
20
1.055787
0
LWPOLYLINE
5
11C
100
AcDbEntity
8
KEEPOUTLAYER
62
6
100
AcDbPolyline
90
2
70
0
43
0.000039
39
0.000039
10
74.834646
20
1.055787
10
75.119843
20
1.302126
0
LWPOLYLINE
5
11D
100
AcDbEntity
8
KEEPOUTLAYER
62
6
100
AcDbPolyline
90
2
70
0
43
0.000039
39
0.000039
10
75.119843
20
1.302126
10
75.382520
20
1.572362
0
LWPOLYLINE
5
11E
100
AcDbEntity
8
KEEPOUTLAYER
62
6
100
AcDbPolyline
90
2
70
0
43
0.000039
39
0.000039
10
75.382520
20
1.572362
10
75.620630
20
1.864449
0
LWPOLYLINE
5
11F
100
AcDbEntity
8
KEEPOUTLAYER
62
6
100
AcDbPolyline
90
2
70
0
43
0.000039
39
0.000039
10
75.620630
20
1.864449
10
75.832362
20
2.176220
0
LWPOLYLINE
5
120
100
AcDbEntity
8
KEEPOUTLAYER
62
6
100
AcDbPolyline
90
2
70
0
43
0.000039
39
0.000039
10
75.832362
20
2.176220
10
76.016142
20
2.505236
0
LWPOLYLINE
5
121
100
AcDbEntity
8
KEEPOUTLAYER
62
6
100
AcDbPolyline
90
2
70
0
43
0.000039
39
0.000039
10
76.016142
20
2.505236
10
76.170512
20
2.849016
0
LWPOLYLINE
5
122
100
AcDbEntity
8
KEEPOUTLAYER
62
6
100
AcDbPolyline
90
2
70
0
43
0.000039
39
0.000039
10
76.170512
20
2.849016
10
76.294370
20
3.204961
0
LWPOLYLINE
5
123
100
AcDbEntity
8
KEEPOUTLAYER
62
6
100
AcDbPolyline
90
2
70
0
43
0.000039
39
0.000039
10
76.294370
20
3.204961
10
76.386732
20
3.570315
0
LWPOLYLINE
5
124
100
AcDbEntity
8
KEEPOUTLAYER
62
6
100
AcDbPolyline
90
2
70
0
43
0.000039
39
0.000039
10
76.386732
20
3.570315
10
76.446890
20
3.942362
0
LWPOLYLINE
5
125
100
AcDbEntity
8
KEEPOUTLAYER
62
6
100
AcDbPolyline
90
2
70
0
43
0.000039
39
0.000039
10
76.446890
20
3.942362
10
76.474370
20
4.318228
0
LWPOLYLINE
5
126
100
AcDbEntity
8
KEEPOUTLAYER
62
6
100
AcDbPolyline
90
2
70
0
43
0.000039
39
0.000039
10
76.474370
20
4.318228
10
76.476260
20
4.445197
0
LWPOLYLINE
5
127
100
AcDbEntity
8
KEEPOUTLAYER
62
6
100
AcDbPolyline
90
2
70
0
43
0.000039
39
0.000039
10
76.476260
20
4.445236
10
76.476260
20
9.292323
0
LWPOLYLINE
5
128
100
AcDbEntity
8
KEEPOUTLAYER
62
6
100
AcDbPolyline
90
2
70
0
43
0.000039
39
0.000039
10
76.479331
20
9.292362
10
76.533858
20
17.719646
0
LWPOLYLINE
5
129
100
AcDbEntity
8
KEEPOUTLAYER
62
6
100
AcDbPolyline
90
2
70
0
43
0.000039
39
0.000039
10
76.533858
20
17.719646
10
76.474370
20
19.066772
0
ENDSEC
0
SECTION
2
OBJECTS
0
DICTIONARY
5
12A
100
AcDbDictionary
3
ACAD_GROUP
350
12B
3
ACAD_LAYOUT
350
12C
3
ACAD_MLINESTYLE
350
12D
0
DICTIONARY
5
12B
100
AcDbDictionary
0
DICTIONARY
5
12C
100
AcDbDictionary
0
DICTIONARY
5
12D
100
AcDbDictionary
3
STANDARD
350
12E
0
MLINESTYLE
5
12E
100
AcDbMlineStyle
2
Standard
70
0
3

62
256
51
90.0
52
90.0
71
2
49
0.5
62
256
6
BYLAYER
49
-0.5
62
256
6
BYLAYER
0
ENDSEC
0
EOF
