M48
METRIC,TZ
VER,1
FMAT,2
DETECT,ON
ATC,ON
T1C0.6000
T2C0.8890
T3C0.9949
%
T1
X106680Y172720
X327660Y320040
X365760Y307340
X327660Y342900
X353060Y167640
X210820Y139700
X147320Y281940
X175260Y210820
X378460Y375920
X322580
X314960Y294640
X175260Y241300
X368300Y142240
X292100Y200660
X271780Y274320
X292100Y233680
Y213360
X302260Y68580
X142240Y96520
X154940
X205740Y284480
X218440
X243840
X241300Y254000
X228600
X353060Y180340
T2
X106680Y238760
Y190077
X431800Y187960
Y137160
Y111760
Y162560
X142240Y71120
X193040
X167640
T3
X431800Y86360
X218440Y71120
M30
