G04 Generated by Ultiboard 14.1 *
%FSLAX34Y34*%
%MOMM*%

%ADD10C,0.0001*%
%ADD11C,0.1270*%


G04 ColorRGB CBCBCB for the following layer *
%LNMechanical 1*%
%LPD*%
G54D10*
G54D11*
X71305Y-11446D02*
X71305Y34063D01*
X71305Y-11446D02*
X109720Y-11446D01*
X455459Y-11446D02*
X417043Y-11446D01*
X455459Y-11446D02*
X455459Y34063D01*
X455459Y443652D02*
X455459Y398143D01*
X455459Y443652D02*
X417043Y443652D01*
X71305Y443652D02*
X109720Y443652D01*
X71305Y443652D02*
X71305Y398143D01*
X21305Y-11446D02*
X-78695Y-11446D01*
X-28695Y-61446D02*
X-28695Y38554D01*
X-66195Y-11446D02*
G75*
D01*
G02X-66195Y-11446I37500J0*
G01*
X505459Y-11446D02*
X605459Y-11446D01*
X555459Y-61446D02*
X555459Y38554D01*
X517959Y-11446D02*
G75*
D01*
G02X517959Y-11446I37500J0*
G01*
X542959Y-11446D02*
G75*
D01*
G02X542959Y-11446I12500J0*
G01*
X21305Y443652D02*
X-78695Y443652D01*
X-28695Y393652D02*
X-28695Y493652D01*
X-66195Y443652D02*
G75*
D01*
G02X-66195Y443652I37500J0*
G01*
X-53695Y443652D02*
G75*
D01*
G02X-53695Y443652I25000J0*
G01*
X-41195Y443652D02*
G75*
D01*
G02X-41195Y443652I12500J0*
G01*

M02*
