G04 Generated by Ultiboard 14.1 *
%FSLAX34Y34*%
%MOMM*%

%ADD10C,0.0001*%
%ADD11C,0.1270*%
%ADD12C,1.0000*%
%ADD13C,1.2700*%
%ADD14R,1.0000X1.5000*%
%ADD15C,1.6088*%
%ADD16R,0.5291X0.5291*%
%ADD17C,0.9949*%


G04 ColorRGB 9900CC for the following layer *
%LNSolder Mask Bottom*%
%LPD*%
G54D10*
G54D11*
X71305Y-11446D02*
X71305Y34063D01*
X71305Y-11446D02*
X109720Y-11446D01*
X455459Y-11446D02*
X417043Y-11446D01*
X455459Y-11446D02*
X455459Y34063D01*
X455459Y443652D02*
X455459Y398143D01*
X455459Y443652D02*
X417043Y443652D01*
X71305Y443652D02*
X109720Y443652D01*
X71305Y443652D02*
X71305Y398143D01*
X21305Y-11446D02*
X-78695Y-11446D01*
X-28695Y-61446D02*
X-28695Y38554D01*
X-66195Y-11446D02*
G75*
D01*
G02X-66195Y-11446I37500J0*
G01*
X505459Y-11446D02*
X605459Y-11446D01*
X555459Y-61446D02*
X555459Y38554D01*
X517959Y-11446D02*
G75*
D01*
G02X517959Y-11446I37500J0*
G01*
X542959Y-11446D02*
G75*
D01*
G02X542959Y-11446I12500J0*
G01*
X21305Y443652D02*
X-78695Y443652D01*
X-28695Y393652D02*
X-28695Y493652D01*
X-66195Y443652D02*
G75*
D01*
G02X-66195Y443652I37500J0*
G01*
X-53695Y443652D02*
G75*
D01*
G02X-53695Y443652I25000J0*
G01*
X-41195Y443652D02*
G75*
D01*
G02X-41195Y443652I12500J0*
G01*
G54D12*
X106680Y172720D03*
X327660Y320040D03*
X365760Y307340D03*
X327660Y342900D03*
X353060Y167640D03*
X210820Y139700D03*
X147320Y281940D03*
X175260Y210820D03*
X378460Y375920D03*
X322580Y375920D03*
X314960Y294640D03*
X175260Y241300D03*
X368300Y142240D03*
X292100Y200660D03*
X271780Y274320D03*
X292100Y233680D03*
X292100Y213360D03*
X302260Y68580D03*
X142240Y96520D03*
X154940Y96520D03*
X205740Y284480D03*
X218440Y284480D03*
X243840Y284480D03*
X241300Y254000D03*
X228600Y254000D03*
X353060Y180340D03*
G54D13*
X106680Y238760D03*
X106680Y190077D03*
G54D14*
X249920Y300620D03*
X209920Y155620D03*
X229920Y300620D03*
X269920Y155620D03*
X229920Y155620D03*
X269920Y300620D03*
X249920Y155620D03*
X209920Y300620D03*
G54D15*
X431800Y187960D03*
X431800Y137160D03*
X431800Y111760D03*
X431800Y162560D03*
X142240Y71120D03*
X193040Y71120D03*
X167640Y71120D03*
G54D16*
X431800Y86360D03*
X218440Y71120D03*
G54D17*
X429155Y83715D02*
X434445Y83715D01*
X434445Y89005D01*
X429155Y89005D01*
X429155Y83715D01*D02*
X215795Y68475D02*
X221085Y68475D01*
X221085Y73765D01*
X215795Y73765D01*
X215795Y68475D01*D02*

M02*
